<svg xmlns="http://www.w3.org/2000/svg" xmlns:xlink="http://www.w3.org/1999/xlink" version="1.1"><metadata>Created by FontForge 20150522 at Sat Nov 7 16:10:22 2015 By Christoph Haag,,, Digitized data copyright (c) 2012-2014, The Mozilla Foundation and Telefonica S.A.</metadata><defs><font id="FiraCode-Regular" horiz-adv-x="600"><font-face x-height="526" ascent="785" bbox="-282 -500 1712 1050" cap-height="688" descent="-215" font-family="Fira Code" font-stretch="normal" font-weight="400" panose-1="2 11 5 9 5 0 0 2 0 4" underline-position="-50" underline-thickness="50" unicode-range="U+000D-1F310" units-per-em="1000"/><glyph d="M1044 81v273h89v65h-278c-69 0 -123 54 -123 115c0 60 35 102 106 102c50 0 83 -19 118 -57l50 45c-55 60 -108 75 -167 75c-117 0 -189 -77 -189 -165c0 -43 15 -86 54 -115h-369c-69 0 -123 54 -123 115c0 60 35 102 106 102c50 0 83 -19 118 -57l50 45 c-55 60 -108 75 -167 75c-117 0 -189 -77 -189 -165c0 -62 30 -123 121 -144v-3c-101 -21 -157 -89 -157 -192s67 -206 222 -206c116 0 178 54 208 92v273h166c-49 -34 -76 -88 -76 -159c0 -103 67 -206 222 -206c116 0 178 54 208 92zM843 354h125v-245 c-27 -34 -74 -53 -129 -53c-102 0 -144 69 -144 142c0 71 44 156 148 156zM323 354h125v-245c-27 -34 -74 -53 -129 -53c-102 0 -144 69 -144 142c0 71 44 156 148 156z" glyph-name="ampersand_ampersand" horiz-adv-x="1200" unicode="&amp;&amp;"/><glyph d="M886 228c88 0 132 70 161 126l-59 31c-26 -47 -58 -85 -99 -85c-62 0 -92 100 -193 100c-55 0 -92 -26 -120 -60l-2 -2c-17 -21 -40 -38 -67 -38c-62 0 -92 100 -193 100c-89 0 -132 -69 -161 -127l59 -30c26 48 56 85 99 85c64 0 99 -100 193 -100c58 0 97 30 125 67 c17 19 38 33 64 33c64 0 99 -100 193 -100z" glyph-name="asciitilde_asciitilde" horiz-adv-x="1200" unicode="~~"/><glyph d="M1039 -91c120 0 146 124 146 376c0 203 -43 415 -301 415c-89 0 -188 2 -284 -97c-40 -41 -79 -187 -95 -221c-25 -53 -66 -82 -107 -82c-62 0 -92 100 -193 100c-89 0 -132 -69 -161 -127l59 -30c26 48 56 85 99 85c64 0 99 -100 193 -100c88 0 151 62 175 120 c27 66 51 175 87 211c70 69 162 68 228 68c184 0 215 -153 215 -343c0 -171 0 -307 -63 -307c-39 0 -71 23 -71 132v295c-56 30 -94 37 -140 37c-124 0 -196 -83 -196 -257c0 -133 42 -230 150 -230c80 0 118 51 137 98h4c-1 -49 34 -143 118 -143zM830 380 c24 0 43 -4 64 -15v-260c-12 -29 -34 -88 -104 -88c-61 0 -80 69 -80 167c0 129 28 196 120 196z" glyph-name="asciitilde_at" horiz-adv-x="1200" unicode="~@"/><glyph d="M267 397c-89 0 -132 -69 -161 -127l59 -30c26 48 56 85 99 85c64 0 99 -100 193 -100c88 0 132 70 161 126c3 4 8 19 23 19l4 72c-48 0 -79 -46 -86 -60c-26 -47 -58 -85 -99 -85c-62 0 -92 100 -193 100zM1094 370v72h-449l-4 -72h453zM1094 180v72h-413v-72h413z" glyph-name="asciitilde_equal" horiz-adv-x="1200" unicode="~="/><glyph d="M286 400c-88 0 -132 -70 -161 -126l59 -31c26 47 58 85 99 85c62 0 92 -100 193 -100c85 0 78 43 144 51h455v72h-445c-91 -4 -108 -51 -151 -51c-64 0 -99 100 -193 100z" glyph-name="asciitilde_hyphen" horiz-adv-x="1200" unicode="~-"/><glyph d="M571 -73l67 -30l427 880l-66 32zM366 362l15 164h-84l14 -164l-150 63l-26 -80l160 -36l-107 -127l71 -47l81 143l87 -141l68 52l-110 120l158 36l-25 80z" glyph-name="asterisk_slash" horiz-adv-x="1200" unicode="*/"/><glyph d="M800 -102v909h-75v-909h75zM475 -102v909h-75v-909h75z" glyph-name="bar_bar" horiz-adv-x="1200" unicode="||"/><glyph d="M789 431c0 -45 34 -82 80 -82s81 37 81 82c0 44 -35 80 -81 80s-80 -36 -80 -80zM339 431c0 -45 34 -82 80 -82s81 37 81 82c0 44 -35 80 -81 80s-80 -36 -80 -80zM789 70c0 -46 34 -81 80 -81s81 35 81 81c0 43 -35 80 -81 80s-80 -37 -80 -80zM339 70 c0 -46 34 -81 80 -81s81 35 81 81c0 43 -35 80 -81 80s-80 -37 -80 -80z" glyph-name="colon_colon" horiz-adv-x="1200" unicode="::"/><glyph d="M219 429c0 -45 34 -82 80 -82s81 37 81 82c0 44 -35 80 -81 80s-80 -36 -80 -80zM981 388v72h-488v-72h488zM219 203c0 -46 34 -81 80 -81s81 35 81 81c0 43 -35 80 -81 80s-80 -37 -80 -80zM981 172v72h-488v-72h488z" glyph-name="colon_equal" horiz-adv-x="1200" unicode=":="/><glyph d="M820 424c0 -45 34 -82 80 -82s81 37 81 82c0 44 -35 80 -81 80s-80 -36 -80 -80zM1640 370v72h-546v-72h546zM820 198c0 -46 34 -81 80 -81s81 35 81 81c0 43 -35 80 -81 80s-80 -37 -80 -80zM1640 180v72h-546v-72h546zM706 370v72h-546v-72h546zM706 180v72h-546v-72 h546z" glyph-name="equal_colon_equal" horiz-adv-x="1800" unicode="=:="/><glyph d="M1094 370v72h-988v-72h988zM1094 180v72h-988v-72h988z" glyph-name="equal_equal" horiz-adv-x="1200" unicode="=="/><glyph d="M1640 466v71h-1480v-71h1480zM1640 276v72h-1480v-72h1480zM1640 86v72h-1480v-72h1480z" glyph-name="equal_equal_equal" horiz-adv-x="1800" unicode="==="/><glyph d="M1700 310l-271 -304l-62 52l49 63c27 31 35 39 63 57h-1373v72h1425l62 59l-62 59h-1425v72h1375c-24 15 -44 35 -63 57l-51 65l62 52z" glyph-name="equal_equal_greater" horiz-adv-x="1800" unicode="==&gt;"/><glyph d="M1100 310l-271 304l-62 -52l49 -63c27 -31 35 -39 63 -57h-773v-72h825l62 -59l-62 -59h-825v-72h775c-24 -15 -44 -35 -63 -57l-51 -65l62 -52z" glyph-name="equal_greater" horiz-adv-x="1200" unicode="=&gt;"/><glyph d="M1385 312l-271 304l-62 -52l49 -63c27 -31 35 -39 63 -57h-1063v-72h1115l62 -59l-62 -59h-1115v-72h1065c-24 -15 -44 -35 -63 -57l-51 -65l62 -52zM1699 312l-271 304l-62 -52l224 -252l-224 -252l62 -52z" glyph-name="equal_greater_greater" horiz-adv-x="1800" unicode="=&gt;&gt;"/><glyph d="M1137 271l444 -214l32 64l-393 192l393 193l-32 65l-444 -215v-85zM1181 47l32 64l-393 202l393 203l-32 65l-274 -139h-748v-72h555l72 11l-49 -25v-86l59 -30l-81 12h-556v-72h753l-3 4z" glyph-name="equal_less_less" horiz-adv-x="1800" unicode="=&lt;&lt;"/><glyph d="M1025 370h615v72h-572l109 182l-70 35l-129 -217h-818v-72h775l-70 -118h-705v-72h662l-103 -170l72 -36l122 206h727v72h-684z" glyph-name="equal_slash_equal" horiz-adv-x="1800" unicode="=/="/><glyph d="M672 370h368v72h-325l109 182l-70 35l-129 -217h-465v-72h422l-70 -118h-352v-72h309l-103 -170l72 -36l122 206h480v72h-437z" glyph-name="exclam_equal" horiz-adv-x="1200" unicode="!="/><glyph d="M1640 86v72h-790l70 118h720v72h-677l70 118h607v71h-565l53 87l-70 35l-72 -122h-826v-71h784l-71 -118h-713v-72h670l-71 -118h-599v-72h556l-46 -76l72 -36l66 112h832z" glyph-name="exclam_equal_equal" horiz-adv-x="1800" unicode="!=="/><glyph d="M862 227l8 461h-93l10 -461h75zM415 227l8 461h-93l10 -461h75zM825 122c-38 0 -66 -30 -66 -66c0 -38 28 -67 66 -67s67 29 67 67c0 36 -29 66 -67 66zM378 122c-38 0 -66 -30 -66 -66c0 -38 28 -67 66 -67s67 29 67 67c0 36 -29 66 -67 66z" glyph-name="exclam_exclam" horiz-adv-x="1200" unicode="!!"/><glyph d="M890 356l-598 238l-28 -69l544 -212l-544 -212l28 -68l598 238v85zM920 109l-26 66l-596 -241l24 -65z" glyph-name="greater_equal" horiz-adv-x="1200" unicode="&gt;="/><glyph d="M1063 356l-444 225l-32 -65l393 -203l-393 -202l32 -64l444 224v85zM663 356l-444 215l-32 -65l393 -193l-393 -192l32 -64l444 214v85z" glyph-name="greater_greater" horiz-adv-x="1200" unicode="&gt;&gt;"/><glyph d="M663 356l-444 215l-32 -65l393 -193l-393 -192l32 -64l444 214v85zM888 180h753v72h-556l-81 -12l53 26v93l-43 22l72 -11h555v72h-748l-274 139l-32 -65l393 -203l-393 -202l32 -64l272 137z" glyph-name="greater_greater_equal" horiz-adv-x="1800" unicode="&gt;&gt;="/><glyph d="M914 228c88 0 132 70 161 126l-59 31c-26 -47 -58 -85 -99 -85c-62 0 -92 100 -193 100c-85 0 -78 -43 -144 -51h-455v-72h445c91 4 108 51 151 51c64 0 99 -100 193 -100z" glyph-name="hyphen_asciitilde" horiz-adv-x="1200" unicode="-~"/><glyph d="M1100 310l-271 304l-62 -52l144 -158c27 -31 35 -39 63 -57h-873v-74h873c-24 -15 -44 -35 -63 -57l-144 -158l62 -52z" glyph-name="hyphen_greater" horiz-adv-x="1200" unicode="-&gt;"/><glyph d="M1699 312l-271 304l-62 -52l224 -252l-224 -252l62 -52zM1384 310l-271 304l-62 -52l144 -158c27 -31 35 -39 63 -57h-1157v-74h1157c-24 -15 -44 -35 -63 -57l-144 -158l62 -52z" glyph-name="hyphen_greater_greater" horiz-adv-x="1800" unicode="-&gt;&gt;"/><glyph d="M1699 310l-271 304l-62 -52l144 -158c27 -31 35 -39 63 -57h-1472v-74h1472c-24 -15 -44 -35 -63 -57l-144 -158l62 -52z" glyph-name="hyphen_hyphen_greater" horiz-adv-x="1800" unicode="--&gt;"/><glyph d="M292 271l598 -238l28 68l-544 212l544 212l-28 69l-598 -238v-85zM860 -131l24 65l-596 241l-26 -66z" glyph-name="less_equal" horiz-adv-x="1200" unicode="&lt;="/><glyph d="M100 310l271 304l62 -52l-49 -63c-27 -31 -35 -39 -63 -57h1373v-72h-1425l-62 -59l62 -59h1425v-72h-1375c24 -15 44 -35 63 -57l51 -65l-62 -52z" glyph-name="less_equal_equal" horiz-adv-x="1800" unicode="&lt;=="/><glyph d="M1712 356l-384 238l-41 -63l354 -218l-354 -218l45 -62l380 238v85zM513 530l-41 64l-384 -238v-85l380 -238l45 61l-354 219zM1328 442h-856v-72h856v72zM1328 252h-856v-72h856v72z" glyph-name="less_equal_greater" horiz-adv-x="1800" unicode="&lt;=&gt;"/><glyph d="M600 -20l465 291v85l-465 289l-465 -289v-85zM206 313l395 243l393 -243l-395 -244z" glyph-name="less_greater" horiz-adv-x="1200" unicode="&lt;&gt;"/><glyph d="M372 6l62 52l-144 158c-19 22 -39 42 -63 57h872v74h-872c28 18 36 26 63 57l144 158l-62 52l-271 -304z" glyph-name="less_hyphen" horiz-adv-x="1200" unicode="&lt;-"/><glyph d="M101 310l271 -304l62 52l-144 158c-27 31 -35 39 -63 57h1472v74h-1472c24 15 44 35 63 57l144 158l-62 52z" glyph-name="less_hyphen_hyphen" horiz-adv-x="1800" unicode="&lt;--"/><glyph d="M187 271l444 -224l32 64l-393 202l393 203l-32 65l-444 -225v-85zM587 271l444 -214l32 64l-393 192l393 193l-32 65l-444 -215v-85z" glyph-name="less_less" horiz-adv-x="1200" unicode="&lt;&lt;"/><glyph d="M415 312l271 -304l62 52l-49 63c-27 31 -35 39 -63 57h1063v72h-1115l-62 59l62 59h1115v72h-1065c24 15 44 35 63 57l51 65l-62 52zM101 312l271 -304l62 52l-224 252l224 252l-62 52z" glyph-name="less_less_equal" horiz-adv-x="1800" unicode="&lt;&lt;="/><glyph d="M373 8l61 52l-225 252l225 252l-61 52l-272 -304zM687 6l62 52l-144 158c-20 22 -39 42 -63 57h1157v74h-1157c28 18 36 26 63 57l144 158l-62 52l-271 -304z" glyph-name="less_less_hyphen" horiz-adv-x="1800" unicode="&lt;&lt;-"/><glyph d="M585 -163l456 940l-66 32l-374 -770l-442 274l354 217l-41 64l-384 -238v-85l480 -300l-50 -104z" glyph-name="less_slash" horiz-adv-x="1200" unicode="&lt;/"/><glyph d="M1051 -135v65c-73 0 -132 18 -126 80l21 206c8 88 -23 121 -93 134c68 13 101 50 93 134l-21 206c-6 61 53 80 126 80v65c-111 0 -215 -33 -202 -155l17 -159h-341l24 167h-71l-22 -167h-148l24 167h-71l-22 -167h-90v-65h81l-30 -222h-88v-64h80l-23 -170h71l22 170h146 l-22 -170h71l21 170h387l-16 -150c-13 -122 91 -155 202 -155zM487 234l30 222h303l50 3c-5 -48 -40 -76 -153 -76v-66c118 0 151 -32 153 -86l-50 3h-333zM417 234h-146l29 222h147z" glyph-name="numbersign_braceleft" horiz-adv-x="1200" unicode="#{"/><glyph d="M1034 -115v70h-171v789h171v71h-250v-294h-260l24 167h-71l-22 -167h-148l24 167h-71l-22 -167h-90v-65h81l-30 -222h-88v-64h80l-23 -170h71l22 170h146l-22 -170h71l21 170h307v-285h250zM486 234l30 222h268v-222h-298zM416 234h-146l29 222h147z" glyph-name="numbersign_bracketleft" horiz-adv-x="1200" unicode="#["/><glyph d="M987 -140l43 46c-143 126 -214 235 -214 444c0 210 70 317 214 444l-43 46c-117 -96 -199 -189 -236 -319h-285l24 167h-71l-22 -167h-148l24 167h-71l-22 -167h-90v-65h81l-30 -222h-88v-64h80l-23 -170h71l22 170h146l-22 -170h71l21 170h335 c38 -125 119 -217 233 -310zM428 234l30 222h279c-5 -33 -8 -68 -8 -106c0 -42 3 -80 9 -116h-310zM358 234h-146l29 222h147z" glyph-name="numbersign_parenleft" horiz-adv-x="1200" unicode="#("/><glyph d="M408 234h-146l29 222h147zM253 170h146l-22 -170h71l21 170h91v64h-82l30 222h196c3 30 16 64 45 101c42 51 95 73 142 73c68 0 119 -32 119 -90c0 -113 -178 -112 -178 -274v-39h84v34c0 147 180 125 180 284c0 79 -74 155 -197 155c-80 0 -151 -31 -209 -99 c-32 -35 -43 -79 -43 -80h-131l24 167h-71l-22 -167h-148l24 167h-71l-22 -167h-90v-65h81l-30 -222h-88v-64h80l-23 -170h71zM877 122c-38 0 -66 -30 -66 -66c0 -38 28 -67 66 -67s67 29 67 67c0 36 -29 66 -67 66z" glyph-name="numbersign_question" horiz-adv-x="1200" unicode="#?"/><glyph d="M303 -181h904v72h-823l35 279h91v64h-82l30 222h89v65h-81l24 167h-71l-22 -167h-148l24 167h-71l-22 -167h-90v-65h81l-30 -222h-88v-64h80l-23 -170h71l22 170h146zM358 234h-146l29 222h147z" glyph-name="numbersign_underscore" horiz-adv-x="1200" unicode="#_"/><glyph d="M738 77c0 -50 37 -88 87 -88c51 0 88 38 88 88c0 48 -37 87 -88 87c-50 0 -87 -39 -87 -87zM288 77c0 -50 37 -88 87 -88c51 0 88 38 88 88c0 48 -37 87 -88 87c-50 0 -87 -39 -87 -87z" glyph-name="period_period" horiz-adv-x="1200" unicode=".."/><glyph d="M812 77c0 -50 37 -88 87 -88c51 0 88 38 88 88c0 48 -37 87 -88 87c-50 0 -87 -39 -87 -87zM1338 77c0 -50 37 -88 87 -88c51 0 88 38 88 88c0 48 -37 87 -88 87c-50 0 -87 -39 -87 -87zM288 77c0 -50 37 -88 87 -88c51 0 88 38 88 88c0 48 -37 87 -88 87 c-50 0 -87 -39 -87 -87z" glyph-name="period_period_period" horiz-adv-x="1800" unicode="..."/><glyph d="M392 128v148h414v-148h78v148h171v70h-171v149h-78v-149h-414v149h-78v-149h-169v-70h169v-148h78z" glyph-name="plus_plus" horiz-adv-x="1200" unicode="++"/><glyph d="M845 511c-46 0 -80 -36 -80 -80c0 -45 34 -82 80 -82s81 37 81 82c0 44 -35 80 -81 80zM845 150c-45 0 -80 -36 -80 -80c0 -27 12 -52 32 -67l-48 -198h76l82 187c14 31 19 54 19 78c0 44 -35 80 -81 80zM396 511c-46 0 -80 -36 -80 -80c0 -45 34 -82 80 -82s81 37 81 82 c0 44 -35 80 -81 80zM396 150c-45 0 -80 -36 -80 -80c0 -27 12 -52 32 -67l-48 -198h76l82 187c14 31 19 54 19 78c0 44 -35 80 -81 80z" glyph-name="semicolon_semicolon" horiz-adv-x="1200" unicode=";;"/><glyph d="M135 -73l67 -30l427 880l-66 32zM888 362l15 164h-84l14 -164l-150 63l-26 -80l160 -36l-107 -127l71 -47l81 143l87 -141l68 52l-110 120l158 36l-25 80z" glyph-name="slash_asterisk" horiz-adv-x="1200" unicode="/*"/><glyph d="M1042 313l-354 -218l45 -62l380 238v85l-511 316l51 105l-66 32l-428 -882l67 -30l343 708z" glyph-name="slash_greater" horiz-adv-x="1200" unicode="/&gt;"/><glyph d="M579 -73l67 -30l427 880l-66 32zM127 -76l67 -30l427 880l-66 32z" glyph-name="slash_slash" horiz-adv-x="1200" unicode="//"/><glyph d="M653 -73l67 -30l427 880l-66 32zM126 -73l67 -30l427 880l-66 32zM1180 -73l67 -30l427 880l-66 32z" glyph-name="slash_slash_slash" horiz-adv-x="1800" unicode="///"/><glyph d="M510 1050h-420v-1400h420v1400zM456 998v-1296h-311v1296h311zM307 173v45c67 10 95 48 95 118c0 60 -25 115 -111 115c-39 0 -93 -12 -93 -39c0 -13 9 -23 24 -23c4 0 8 1 13 3c17 8 31 11 52 11c50 0 61 -30 61 -69c0 -53 -19 -73 -91 -77v-84c0 -15 12 -24 25 -24 c12 0 25 9 25 24zM247 85c0 -21 15 -37 35 -37s35 16 35 37c0 20 -15 35 -35 35s-35 -15 -35 -35z" glyph-name=".notdef"/><glyph d="M412 247h-229l115 369zM161 176h273l55 -176h90l-224 688h-110l-224 -688h84z" glyph-name="A" unicode="A"/><glyph d="M314 248h-166l92 373zM125 176h205l36 -176h242v70h-172l-52 244h173v70h-186l-52 234h237l10 70h-376l-202 -688h88z" glyph-name="AE" unicode="Æ"/><glyph d="M481 834l-37 71l-198 -105l22 -44zM314 248h-166l92 373zM125 176h205l36 -176h242v70h-172l-52 244h173v70h-186l-52 234h237l10 70h-376l-202 -688h88z" glyph-name="AEacute" unicode="Ǽ"/><glyph d="M420 834l-37 71l-198 -105l22 -44zM412 247h-229l115 369zM161 176h273l55 -176h90l-224 688h-110l-224 -688h84z" glyph-name="Aacute" unicode="Á"/><glyph d="M298 759c77 0 142 46 150 119l-57 12c-14 -39 -46 -67 -93 -67s-76 28 -90 67l-57 -12c8 -73 71 -119 147 -119zM412 247h-229l115 369zM161 176h273l55 -176h90l-224 688h-110l-224 -688h84z" glyph-name="Abreve" unicode="Ă"/><glyph d="M463 803l-134 107h-56l-136 -107l38 -43l125 81l126 -81zM412 247h-229l115 369zM161 176h273l55 -176h90l-224 688h-110l-224 -688h84z" glyph-name="Acircumflex" unicode="Â"/><glyph d="M402 767c32 0 55 23 55 53c0 31 -23 54 -55 54c-30 0 -53 -23 -53 -54c0 -30 23 -53 53 -53zM196 767c30 0 54 23 54 53c0 31 -24 54 -54 54c-31 0 -54 -23 -54 -54c0 -30 23 -53 54 -53zM412 247h-229l115 369zM161 176h273l55 -176h90l-224 688h-110l-224 -688h84z" glyph-name="Adieresis" unicode="Ä"/><glyph d="M416 800l-185 109l-46 -72l205 -81zM412 247h-229l115 369zM161 176h273l55 -176h90l-224 688h-110l-224 -688h84z" glyph-name="Agrave" unicode="À"/><glyph d="M412 247h-229l115 369zM161 176h273l55 -176h90l-224 688h-110l-224 -688h84z" glyph-name="Alpha" unicode="Α"/><glyph d="M97 703l-47 -184l64 -11l74 180zM412 247h-229l115 369zM161 176h273l55 -176h90l-224 688h-110l-224 -688h84z" glyph-name="Alphatonos" unicode="Ά"/><glyph d="M165 795h269v64h-269v-64zM412 247h-229l115 369zM161 176h273l55 -176h90l-224 688h-110l-224 -688h84z" glyph-name="Amacron" unicode="Ā"/><glyph d="M539 0h40l-224 688h-110l-224 -688h84l56 176h273l50 -159c-101 -37 -145 -86 -145 -148c0 -55 45 -98 121 -98c27 0 44 3 64 7l8 67c-25 -6 -41 -7 -62 -7c-41 0 -55 18 -55 47c0 36 21 69 124 115zM412 247h-229l115 369z" glyph-name="Aogonek" unicode="Ą"/><glyph d="M300 942c-64 0 -111 -45 -111 -103c0 -56 47 -101 111 -101s111 45 111 101c0 58 -47 103 -111 103zM300 896c34 0 54 -21 54 -57c0 -35 -20 -56 -54 -56c-33 0 -54 21 -54 56c0 36 21 57 54 57zM412 247h-229l115 369zM161 176h273l55 -176h90l-224 688h-110l-224 -688 h84z" glyph-name="Aring" unicode="Å"/><glyph d="M351 771c57 0 91 41 111 85l-54 24c-16 -28 -29 -44 -51 -44c-31 0 -50 48 -109 48c-57 0 -91 -39 -111 -84l54 -24c16 28 29 44 51 44c31 0 52 -49 109 -49zM412 247h-229l115 369zM161 176h273l55 -176h90l-224 688h-110l-224 -688h84z" glyph-name="Atilde" unicode="Ã"/><glyph d="M539 196c0 117 -82 156 -158 169c66 14 128 61 128 150c0 135 -123 173 -243 173h-169v-688h184c127 0 258 46 258 196zM421 510c0 -80 -45 -115 -127 -115h-112v224h104c83 0 135 -30 135 -109zM449 193c0 -102 -85 -122 -152 -122h-115v253h119c80 0 148 -26 148 -131z" glyph-name="B" unicode="B"/><glyph d="M539 196c0 117 -82 156 -158 169c66 14 128 61 128 150c0 135 -123 173 -243 173h-169v-688h184c127 0 258 46 258 196zM421 510c0 -80 -45 -115 -127 -115h-112v224h104c83 0 135 -30 135 -109zM449 193c0 -102 -85 -122 -152 -122h-115v253h119c80 0 148 -26 148 -131z" glyph-name="Beta" unicode="Β"/><glyph d="M358 700c-159 0 -294 -123 -294 -355s130 -356 298 -356c98 0 164 34 205 74l-44 57c-37 -30 -83 -58 -160 -58c-118 0 -210 77 -210 283c0 211 98 283 211 283c53 0 101 -15 145 -51l48 56c-54 43 -109 67 -199 67z" glyph-name="C" unicode="C"/><glyph glyph-name="CR"/><glyph d="M485 834l-37 71l-198 -105l22 -44zM358 700c-159 0 -294 -123 -294 -355s130 -356 298 -356c98 0 164 34 205 74l-44 57c-37 -30 -83 -58 -160 -58c-118 0 -210 77 -210 283c0 211 98 283 211 283c53 0 101 -15 145 -51l48 56c-54 43 -109 67 -199 67z" glyph-name="Cacute" unicode="Ć"/><glyph d="M486 871l-65 43l-106 -161l41 -25zM358 700c-159 0 -294 -123 -294 -355s130 -356 298 -356c98 0 164 34 205 74l-44 57c-37 -30 -83 -58 -160 -58c-118 0 -210 77 -210 283c0 211 98 283 211 283c53 0 101 -15 145 -51l48 56c-54 43 -109 67 -199 67z" glyph-name="Cacute.loclPLK"/><glyph d="M529 862l-37 42l-126 -81l-125 81l-38 -42l136 -108h56zM358 700c-159 0 -294 -123 -294 -355s130 -356 298 -356c98 0 164 34 205 74l-44 57c-37 -30 -83 -58 -160 -58c-118 0 -210 77 -210 283c0 211 98 283 211 283c53 0 101 -15 145 -51l48 56 c-54 43 -109 67 -199 67z" glyph-name="Ccaron" unicode="Č"/><glyph d="M370 -57v46c94 2 157 35 197 74l-44 57c-37 -30 -83 -58 -160 -58c-118 0 -210 77 -210 283c0 211 98 283 211 283c53 0 101 -15 145 -51l48 56c-54 43 -109 67 -199 67c-159 0 -294 -123 -294 -355c0 -208 104 -329 247 -352l-7 -90c53 0 87 -7 87 -43 c0 -30 -25 -42 -60 -42c-22 0 -49 6 -68 16l-27 -48c26 -15 65 -24 105 -24c64 0 121 32 121 98c0 39 -27 77 -92 83z" glyph-name="Ccedilla" unicode="Ç"/><glyph d="M529 803l-134 107h-56l-136 -107l38 -43l125 81l126 -81zM358 700c-159 0 -294 -123 -294 -355s130 -356 298 -356c98 0 164 34 205 74l-44 57c-37 -30 -83 -58 -160 -58c-118 0 -210 77 -210 283c0 211 98 283 211 283c53 0 101 -15 145 -51l48 56 c-54 43 -109 67 -199 67z" glyph-name="Ccircumflex" unicode="Ĉ"/><glyph d="M364 892c-36 0 -60 -26 -60 -59c0 -34 24 -59 60 -59c37 0 61 25 61 59c0 33 -24 59 -61 59zM358 700c-159 0 -294 -123 -294 -355s130 -356 298 -356c98 0 164 34 205 74l-44 57c-37 -30 -83 -58 -160 -58c-118 0 -210 77 -210 283c0 211 98 283 211 283 c53 0 101 -15 145 -51l48 56c-54 43 -109 67 -199 67z" glyph-name="Cdotaccent" unicode="Ċ"/><glyph d="M148 688h-98l198 -321l-217 -367h92l175 312l172 -312h99l-220 372l196 316h-93l-152 -265z" glyph-name="Chi" unicode="Χ"/><glyph d="M552 348c0 286 -161 340 -322 340h-146v-688h157c143 0 311 59 311 348zM461 348c0 -229 -110 -279 -209 -279h-83v549h82c95 0 210 -30 210 -270z" glyph-name="D" unicode="D"/><glyph d="M447 862l-37 42l-126 -81l-125 81l-38 -42l136 -108h56zM552 348c0 286 -161 340 -322 340h-146v-688h157c143 0 311 59 311 348zM461 348c0 -229 -110 -279 -209 -279h-83v549h82c95 0 210 -30 210 -270z" glyph-name="Dcaron" unicode="Ď"/><glyph d="M240 688h-147v-302h-73v-66h73v-320h158c142 0 311 59 311 348c0 286 -161 340 -322 340zM262 69h-83v251h159v66h-159v232h82c95 0 209 -30 209 -270c0 -229 -109 -279 -208 -279z" glyph-name="Dcroat" unicode="Đ"/><glyph d="M579 0l-224 688h-110l-224 -688h558zM128 70l170 544l168 -544h-338z" glyph-name="Delta" unicode="Δ"/><glyph d="M212 385v233h294l10 70h-390v-688h399v69h-313v245h255v71h-255z" glyph-name="E" unicode="E"/><glyph d="M441 834l-37 71l-198 -105l22 -44zM212 385v233h294l10 70h-390v-688h399v69h-313v245h255v71h-255z" glyph-name="Eacute" unicode="É"/><glyph d="M319 759c77 0 142 46 150 119l-57 12c-14 -39 -46 -67 -93 -67s-76 28 -90 67l-57 -12c8 -73 71 -119 147 -119zM212 385v233h294l10 70h-390v-688h399v69h-313v245h255v71h-255z" glyph-name="Ebreve" unicode="Ĕ"/><glyph d="M484 862l-37 42l-126 -81l-125 81l-38 -42l136 -108h56zM212 385v233h294l10 70h-390v-688h399v69h-313v245h255v71h-255z" glyph-name="Ecaron" unicode="Ě"/><glyph d="M484 803l-134 107h-56l-136 -107l38 -43l125 81l126 -81zM212 385v233h294l10 70h-390v-688h399v69h-313v245h255v71h-255z" glyph-name="Ecircumflex" unicode="Ê"/><glyph d="M423 767c32 0 55 23 55 53c0 31 -23 54 -55 54c-30 0 -53 -23 -53 -54c0 -30 23 -53 53 -53zM217 767c30 0 54 23 54 53c0 31 -24 54 -54 54c-31 0 -54 -23 -54 -54c0 -30 23 -53 54 -53zM212 385v233h294l10 70h-390v-688h399v69h-313v245h255v71h-255z" glyph-name="Edieresis" unicode="Ë"/><glyph d="M320 892c-36 0 -60 -26 -60 -59c0 -34 24 -59 60 -59c37 0 61 25 61 59c0 33 -24 59 -61 59zM212 385v233h294l10 70h-390v-688h399v69h-313v245h255v71h-255z" glyph-name="Edotaccent" unicode="Ė"/><glyph d="M437 800l-185 109l-46 -72l205 -81zM212 385v233h294l10 70h-390v-688h399v69h-313v245h255v71h-255z" glyph-name="Egrave" unicode="È"/><glyph d="M186 795h269v64h-269v-64zM212 385v233h294l10 70h-390v-688h399v69h-313v245h255v71h-255z" glyph-name="Emacron" unicode="Ē"/><glyph d="M516 -6v694h-80v-345c0 -124 11 -235 12 -247h-4l-244 592h-116v-688h80v346c0 106 -11 230 -12 243h4l240 -589h35c1 -70 -20 -109 -111 -144l23 -68c109 38 173 99 173 206z" glyph-name="Eng" unicode="Ŋ"/><glyph d="M525 69h-313v245h255v71h-255v233h294l10 70h-390v-688h247c-73 -34 -105 -78 -105 -131c0 -55 45 -98 121 -98c27 0 44 3 64 7l8 67c-25 -6 -41 -7 -62 -7c-41 0 -55 18 -55 47c0 36 21 69 124 115h57v69z" glyph-name="Eogonek" unicode="Ę"/><glyph d="M212 385v233h294l10 70h-390v-688h399v69h-313v245h255v71h-255z" glyph-name="Epsilon" unicode="Ε"/><glyph d="M16 703l-47 -184l64 -11l74 180zM212 385v233h294l10 70h-390v-688h399v69h-313v245h255v71h-255z" glyph-name="Epsilontonos" unicode="Έ"/><glyph d="M431 328v-328h85v688h-85v-291h-262v291h-85v-688h85v328h262z" glyph-name="Eta" unicode="Η"/><glyph d="M-39 703l-47 -184l64 -11l74 180zM431 328v-328h85v688h-85v-291h-262v291h-85v-688h85v328h262z" glyph-name="Etatonos" unicode="Ή"/><glyph d="M240 688h-147v-302h-73v-66h73v-320h158c142 0 311 59 311 348c0 286 -161 340 -322 340zM262 69h-83v251h159v66h-159v232h82c95 0 209 -30 209 -270c0 -229 -109 -279 -208 -279z" glyph-name="Eth" unicode="Ð"/><glyph d="M381 700c-123 0 -221 -88 -250 -248h-82l-14 -58h88l-1 -92h-72l-15 -59h94c23 -164 108 -254 247 -254c62 0 111 16 144 36v86c-30 -26 -79 -51 -141 -51c-98 0 -148 56 -164 183h201l14 59h-218v92h238l14 58h-246c19 127 79 176 166 176c40 0 77 -10 114 -34l42 60 c-45 30 -91 46 -159 46z" glyph-name="Euro" unicode="€"/><glyph d="M381 700c-123 0 -221 -88 -250 -248h-82l-14 -58h88l-1 -92h-72l-15 -59h94c23 -164 108 -254 247 -254c62 0 111 16 144 36v86c-30 -26 -79 -51 -141 -51c-98 0 -148 56 -164 183h201l14 59h-218v92h238l14 58h-246c19 127 79 176 166 176c40 0 77 -10 114 -34l42 60 c-45 30 -91 46 -159 46z" glyph-name="Euro.tosf"/><glyph d="M224 376v242h309l11 70h-405v-688h85v307h270v69h-270z" glyph-name="F" unicode="F"/><glyph d="M314 -11c97 0 162 26 224 59v328h-231l10 -71h136v-211c-40 -22 -84 -33 -132 -33c-120 0 -184 83 -184 284c0 212 97 282 197 282c57 0 102 -18 144 -57l52 54c-54 50 -107 76 -196 76c-148 0 -288 -118 -288 -355c0 -238 105 -356 268 -356z" glyph-name="G" unicode="G"/><glyph d="M535 613l9 75h-407v-688h85v613h313z" glyph-name="Gamma" unicode="Γ"/><glyph d="M328 759c77 0 142 46 150 119l-57 12c-14 -39 -46 -67 -93 -67s-76 28 -90 67l-57 -12c8 -73 71 -119 147 -119zM314 -11c97 0 162 26 224 59v328h-231l10 -71h136v-211c-40 -22 -84 -33 -132 -33c-120 0 -184 83 -184 284c0 212 97 282 197 282c57 0 102 -18 144 -57 l52 54c-54 50 -107 76 -196 76c-148 0 -288 -118 -288 -355c0 -238 105 -356 268 -356z" glyph-name="Gbreve" unicode="Ğ"/><glyph d="M493 803l-134 107h-56l-136 -107l38 -43l125 81l126 -81zM314 -11c97 0 162 26 224 59v328h-231l10 -71h136v-211c-40 -22 -84 -33 -132 -33c-120 0 -184 83 -184 284c0 212 97 282 197 282c57 0 102 -18 144 -57l52 54c-54 50 -107 76 -196 76 c-148 0 -288 -118 -288 -355c0 -238 105 -356 268 -356z" glyph-name="Gcircumflex" unicode="Ĝ"/><glyph d="M314 -11c97 0 162 26 224 59v328h-231l10 -71h136v-211c-40 -22 -84 -33 -132 -33c-120 0 -184 83 -184 284c0 212 97 282 197 282c57 0 102 -18 144 -57l52 54c-54 50 -107 76 -196 76c-148 0 -288 -118 -288 -355c0 -238 105 -356 268 -356zM334 -71 c-30 0 -54 -22 -54 -53c0 -17 9 -34 22 -44l-29 -118h50l50 108c11 23 15 37 15 54c0 31 -23 53 -54 53z" glyph-name="Gcommaaccent" unicode="Ģ"/><glyph d="M329 892c-36 0 -60 -26 -60 -59c0 -34 24 -59 60 -59c37 0 61 25 61 59c0 33 -24 59 -61 59zM314 -11c97 0 162 26 224 59v328h-231l10 -71h136v-211c-40 -22 -84 -33 -132 -33c-120 0 -184 83 -184 284c0 212 97 282 197 282c57 0 102 -18 144 -57l52 54 c-54 50 -107 76 -196 76c-148 0 -288 -118 -288 -355c0 -238 105 -356 268 -356z" glyph-name="Gdotaccent" unicode="Ġ"/><glyph d="M431 328v-328h85v688h-85v-291h-262v291h-85v-688h85v328h262z" glyph-name="H" unicode="H"/><glyph d="M427 0v270h-285v-270h285z" glyph-name="H18543" unicode="▪"/><glyph d="M427 0v270h-285v-270h285zM222 190h125v-110h-125v110z" glyph-name="H18551" unicode="▫"/><glyph d="M570 0v540h-540v-540h540zM110 460h380v-380h-380v380z" glyph-name="H22073" unicode="□"/><glyph d="M431 509v-111h-262v111h262zM598 509v66h-81v113h-86v-113h-262v113h-86v-113h-81v-66h81v-509h86v327h262v-327h86v509h81z" glyph-name="Hbar" unicode="Ħ"/><glyph d="M463 803l-134 107h-56l-136 -107l38 -43l125 81l126 -81zM431 328v-328h85v688h-85v-291h-262v291h-85v-688h85v328h262z" glyph-name="Hcircumflex" unicode="Ĥ"/><glyph d="M497 620v68h-394v-68h154v-551h-154v-69h394v69h-154v551h154z" glyph-name="I" unicode="I"/><glyph d="M195 -71l10 -64c266 23 327 168 327 323v500h-521v-71h101v-546h-101v-71h269v71h-80v546h246v-423c0 -149 -48 -245 -251 -265z" glyph-name="IJ" unicode="Ĳ"/><glyph d="M420 834l-37 71l-198 -105l22 -44zM497 620v68h-394v-68h154v-551h-154v-69h394v69h-154v551h154z" glyph-name="Iacute" unicode="Í"/><glyph d="M298 759c77 0 142 46 150 119l-57 12c-14 -39 -46 -67 -93 -67s-76 28 -90 67l-57 -12c8 -73 71 -119 147 -119zM497 620v68h-394v-68h154v-551h-154v-69h394v69h-154v551h154z" glyph-name="Ibreve" unicode="Ĭ"/><glyph d="M463 803l-134 107h-56l-136 -107l38 -43l125 81l126 -81zM497 620v68h-394v-68h154v-551h-154v-69h394v69h-154v551h154z" glyph-name="Icircumflex" unicode="Î"/><glyph d="M402 767c32 0 55 23 55 53c0 31 -23 54 -55 54c-30 0 -53 -23 -53 -54c0 -30 23 -53 53 -53zM196 767c30 0 54 23 54 53c0 31 -24 54 -54 54c-31 0 -54 -23 -54 -54c0 -30 23 -53 54 -53zM497 620v68h-394v-68h154v-551h-154v-69h394v69h-154v551h154z" glyph-name="Idieresis" unicode="Ï"/><glyph d="M299 892c-36 0 -60 -26 -60 -59c0 -34 24 -59 60 -59c37 0 61 25 61 59c0 33 -24 59 -61 59zM497 620v68h-394v-68h154v-551h-154v-69h394v69h-154v551h154z" glyph-name="Idotaccent" unicode="İ"/><glyph d="M416 800l-185 109l-46 -72l205 -81zM497 620v68h-394v-68h154v-551h-154v-69h394v69h-154v551h154z" glyph-name="Igrave" unicode="Ì"/><glyph d="M165 795h269v64h-269v-64zM497 620v68h-394v-68h154v-551h-154v-69h394v69h-154v551h154z" glyph-name="Imacron" unicode="Ī"/><glyph d="M343 620h154v68h-394v-68h154v-551h-154v-69h146c-73 -34 -105 -78 -105 -131c0 -55 45 -98 121 -98c27 0 44 3 64 7l8 67c-25 -6 -41 -7 -62 -7c-41 0 -55 18 -55 47c0 36 21 69 124 115h153v69h-154v551z" glyph-name="Iogonek" unicode="Į"/><glyph d="M497 620v68h-394v-68h154v-551h-154v-69h394v69h-154v551h154z" glyph-name="Iota" unicode="Ι"/><glyph d="M402 767c32 0 55 23 55 53c0 31 -23 54 -55 54c-30 0 -53 -23 -53 -54c0 -30 23 -53 53 -53zM196 767c30 0 54 23 54 53c0 31 -24 54 -54 54c-31 0 -54 -23 -54 -54c0 -30 23 -53 54 -53zM497 620v68h-394v-68h154v-551h-154v-69h394v69h-154v551h154z" glyph-name="Iotadieresis" unicode="Ϊ"/><glyph d="M-10 703l-47 -184l64 -11l74 180zM497 620v68h-394v-68h154v-551h-154v-69h394v69h-154v551h154z" glyph-name="Iotatonos" unicode="Ί"/><glyph d="M351 771c57 0 91 41 111 85l-54 24c-16 -28 -29 -44 -51 -44c-31 0 -50 48 -109 48c-57 0 -91 -39 -111 -84l54 -24c16 28 29 44 51 44c31 0 52 -49 109 -49zM497 620v68h-394v-68h154v-551h-154v-69h394v69h-154v551h154z" glyph-name="Itilde" unicode="Ĩ"/><glyph d="M496 228v460h-289v-70h204v-385c0 -107 -54 -173 -150 -173c-41 0 -90 10 -150 48l-38 -57c54 -41 121 -63 189 -63c181 0 234 126 234 240z" glyph-name="J" unicode="J"/><glyph d="M513 803l-134 107h-56l-136 -107l38 -43l125 81l126 -81zM496 228v460h-289v-70h204v-385c0 -107 -54 -173 -150 -173c-41 0 -90 10 -150 48l-38 -57c54 -41 121 -63 189 -63c181 0 234 126 234 240z" glyph-name="Jcircumflex" unicode="Ĵ"/><glyph d="M468 688l-272 -320l283 -368h107l-289 373l270 315h-99zM106 0h85v688h-85v-688z" glyph-name="K" unicode="K"/><glyph d="M468 688l-272 -320l283 -368h107l-289 373l270 315h-99zM106 0h85v688h-85v-688z" glyph-name="Kappa" unicode="Κ"/><glyph d="M468 688l-272 -320l283 -368h107l-289 373l270 315h-99zM106 0h85v688h-85v-688zM326 -71c-30 0 -54 -22 -54 -53c0 -17 9 -34 22 -44l-29 -118h50l50 108c11 23 15 37 15 54c0 31 -23 53 -54 53z" glyph-name="Kcommaaccent" unicode="Ķ"/><glyph d="M136 688v-688h390l10 77h-314v611h-86z" glyph-name="L" unicode="L"/><glyph d="M299 834l-37 71l-198 -105l22 -44zM136 688v-688h390l10 77h-314v611h-86z" glyph-name="Lacute" unicode="Ĺ"/><glyph d="M574 0l-219 688h-110l-220 -688h85l188 609l186 -609h90z" glyph-name="Lambda" unicode="Λ"/><glyph d="M382 687l-75 9l-25 -179l47 -7zM136 688v-688h390l10 77h-314v611h-86z" glyph-name="Lcaron" unicode="Ľ"/><glyph d="M136 688v-688h390l10 77h-314v611h-86zM335 -71c-30 0 -54 -22 -54 -53c0 -17 9 -34 22 -44l-29 -118h50l50 108c11 23 15 37 15 54c0 31 -23 53 -54 53z" glyph-name="Lcommaaccent" unicode="Ļ"/><glyph d="M136 688v-688h390l10 77h-314v611h-86zM472 437c-36 0 -60 -26 -60 -59c0 -34 24 -59 60 -59c37 0 61 25 61 59c0 33 -24 59 -61 59z" glyph-name="Ldot" unicode="Ŀ"/><glyph d="M534 77h-314v245l202 125l-37 55l-165 -103v289h-86v-342l-93 -57l36 -56l57 35v-268h390z" glyph-name="Lslash" unicode="Ł"/><glyph d="M569 0l-39 688h-121l-107 -471l-112 471h-120l-39 -688h80l19 361c4 86 4 212 4 229h4l118 -466h87l114 466h2c0 -14 1 -134 6 -229l22 -361h82z" glyph-name="M" unicode="M"/><glyph d="M569 0l-39 688h-121l-107 -471l-112 471h-120l-39 -688h80l19 361c4 86 4 212 4 229h4l118 -466h87l114 466h2c0 -14 1 -134 6 -229l22 -361h82z" glyph-name="Mu" unicode="Μ"/><glyph d="M156 589l240 -589h120v688h-80v-345c0 -124 11 -235 12 -247h-4l-244 592h-116v-688h80v346c0 106 -11 230 -12 243h4z" glyph-name="N" unicode="N"/><glyph d="M419 834l-37 71l-198 -105l22 -44zM156 589l240 -589h120v688h-80v-345c0 -124 11 -235 12 -247h-4l-244 592h-116v-688h80v346c0 106 -11 230 -12 243h4z" glyph-name="Nacute" unicode="Ń"/><glyph d="M419 871l-65 43l-106 -161l41 -25zM156 589l240 -589h120v688h-80v-345c0 -124 11 -235 12 -247h-4l-244 592h-116v-688h80v346c0 106 -11 230 -12 243h4z" glyph-name="Nacute.loclPLK"/><glyph d="M462 862l-37 42l-126 -81l-125 81l-38 -42l136 -108h56zM156 589l240 -589h120v688h-80v-345c0 -124 11 -235 12 -247h-4l-244 592h-116v-688h80v346c0 106 -11 230 -12 243h4z" glyph-name="Ncaron" unicode="Ň"/><glyph d="M156 589l240 -589h120v688h-80v-345c0 -124 11 -235 12 -247h-4l-244 592h-116v-688h80v346c0 106 -11 230 -12 243h4zM303 -71c-30 0 -54 -22 -54 -53c0 -17 9 -34 22 -44l-29 -118h50l50 108c11 23 15 37 15 54c0 31 -23 53 -54 53z" glyph-name="Ncommaaccent" unicode="Ņ"/><glyph d="M349 771c57 0 91 41 111 85l-54 24c-16 -28 -29 -44 -51 -44c-31 0 -50 48 -109 48c-57 0 -91 -39 -111 -84l54 -24c16 28 29 44 51 44c31 0 52 -49 109 -49zM156 589l240 -589h120v688h-80v-345c0 -124 11 -235 12 -247h-4l-244 592h-116v-688h80v346 c0 106 -11 230 -12 243h4z" glyph-name="Ntilde" unicode="Ñ"/><glyph d="M156 589l240 -589h120v688h-80v-345c0 -124 11 -235 12 -247h-4l-244 592h-116v-688h80v346c0 106 -11 230 -12 243h4z" glyph-name="Nu" unicode="Ν"/><glyph d="M553 344c0 212 -86 356 -253 356s-253 -149 -253 -358c0 -212 86 -353 253 -353s253 146 253 355zM464 344c0 -184 -48 -283 -164 -283c-113 0 -164 98 -164 281c0 184 47 285 164 285s164 -100 164 -283z" glyph-name="O" unicode="O"/><glyph d="M211 700c-141 0 -212 -127 -212 -358c0 -234 70 -353 212 -353c25 0 46 4 69 11h338v70h-268c41 47 66 125 69 244h154v70h-154c-5 115 -28 190 -65 234h244l10 70h-326c-23 8 -46 12 -71 12zM211 629c86 0 123 -81 123 -285c0 -205 -39 -285 -123 -285 c-79 0 -120 79 -120 283c0 205 39 287 120 287z" glyph-name="OE" unicode="Œ"/><glyph d="M420 834l-37 71l-198 -105l22 -44zM553 344c0 212 -86 356 -253 356s-253 -149 -253 -358c0 -212 86 -353 253 -353s253 146 253 355zM464 344c0 -184 -48 -283 -164 -283c-113 0 -164 98 -164 281c0 184 47 285 164 285s164 -100 164 -283z" glyph-name="Oacute" unicode="Ó"/><glyph d="M421 871l-65 43l-106 -161l41 -25zM553 344c0 212 -86 356 -253 356s-253 -149 -253 -358c0 -212 86 -353 253 -353s253 146 253 355zM464 344c0 -184 -48 -283 -164 -283c-113 0 -164 98 -164 281c0 184 47 285 164 285s164 -100 164 -283z" glyph-name="Oacute.loclPLK"/><glyph d="M298 759c77 0 142 46 150 119l-57 12c-14 -39 -46 -67 -93 -67s-76 28 -90 67l-57 -12c8 -73 71 -119 147 -119zM553 344c0 212 -86 356 -253 356s-253 -149 -253 -358c0 -212 86 -353 253 -353s253 146 253 355zM464 344c0 -184 -48 -283 -164 -283 c-113 0 -164 98 -164 281c0 184 47 285 164 285s164 -100 164 -283z" glyph-name="Obreve" unicode="Ŏ"/><glyph d="M463 803l-134 107h-56l-136 -107l38 -43l125 81l126 -81zM553 344c0 212 -86 356 -253 356s-253 -149 -253 -358c0 -212 86 -353 253 -353s253 146 253 355zM464 344c0 -184 -48 -283 -164 -283c-113 0 -164 98 -164 281c0 184 47 285 164 285s164 -100 164 -283z" glyph-name="Ocircumflex" unicode="Ô"/><glyph d="M402 767c32 0 55 23 55 53c0 31 -23 54 -55 54c-30 0 -53 -23 -53 -54c0 -30 23 -53 53 -53zM196 767c30 0 54 23 54 53c0 31 -24 54 -54 54c-31 0 -54 -23 -54 -54c0 -30 23 -53 54 -53zM553 344c0 212 -86 356 -253 356s-253 -149 -253 -358c0 -212 86 -353 253 -353 s253 146 253 355zM464 344c0 -184 -48 -283 -164 -283c-113 0 -164 98 -164 281c0 184 47 285 164 285s164 -100 164 -283z" glyph-name="Odieresis" unicode="Ö"/><glyph d="M416 800l-185 109l-46 -72l205 -81zM553 344c0 212 -86 356 -253 356s-253 -149 -253 -358c0 -212 86 -353 253 -353s253 146 253 355zM464 344c0 -184 -48 -283 -164 -283c-113 0 -164 98 -164 281c0 184 47 285 164 285s164 -100 164 -283z" glyph-name="Ograve" unicode="Ò"/><glyph d="M434 954l-87 -173l52 -28l108 163zM260 954l-77 -173l54 -26l97 164zM553 344c0 212 -86 356 -253 356s-253 -149 -253 -358c0 -212 86 -353 253 -353s253 146 253 355zM464 344c0 -184 -48 -283 -164 -283c-113 0 -164 98 -164 281c0 184 47 285 164 285 s164 -100 164 -283z" glyph-name="Ohungarumlaut" unicode="Ő"/><glyph d="M165 795h269v64h-269v-64zM553 344c0 212 -86 356 -253 356s-253 -149 -253 -358c0 -212 86 -353 253 -353s253 146 253 355zM464 344c0 -184 -48 -283 -164 -283c-113 0 -164 98 -164 281c0 184 47 285 164 285s164 -100 164 -283z" glyph-name="Omacron" unicode="Ō"/><glyph d="M300 628c106 0 164 -79 164 -279c0 -159 -46 -244 -129 -285v-64h207v69h-114v4c77 42 125 128 125 276c0 225 -99 351 -253 351s-253 -126 -253 -351c0 -148 46 -236 123 -276v-4h-112v-69h208v64c-83 41 -130 126 -130 285c0 200 57 279 164 279z" glyph-name="Omega" unicode="Ω"/><glyph d="M-8 703l-47 -184l64 -11l74 180zM300 628c106 0 164 -79 164 -279c0 -159 -46 -244 -129 -285v-64h207v69h-114v4c77 42 125 128 125 276c0 225 -99 351 -253 351s-253 -126 -253 -351c0 -148 46 -236 123 -276v-4h-112v-69h208v64c-83 41 -130 126 -130 285 c0 200 57 279 164 279z" glyph-name="Omegatonos" unicode="Ώ"/><glyph d="M553 344c0 212 -86 356 -253 356s-253 -149 -253 -358c0 -212 86 -353 253 -353s253 146 253 355zM464 344c0 -184 -48 -283 -164 -283c-113 0 -164 98 -164 281c0 184 47 285 164 285s164 -100 164 -283z" glyph-name="Omicron" unicode="Ο"/><glyph d="M-7 703l-47 -184l64 -11l74 180zM553 344c0 212 -86 356 -253 356s-253 -149 -253 -358c0 -212 86 -353 253 -353s253 146 253 355zM464 344c0 -184 -48 -283 -164 -283c-113 0 -164 98 -164 281c0 184 47 285 164 285s164 -100 164 -283z" glyph-name="Omicrontonos" unicode="Ό"/><glyph d="M137 342c0 184 47 285 163 285c18 0 34 -2 48 -6l-151 -524c-41 41 -60 118 -60 245zM300 61c-18 0 -34 2 -49 6l151 525c43 -41 61 -120 61 -248c0 -184 -47 -283 -163 -283zM433 660l39 124l-75 19l-32 -111c-20 5 -42 8 -65 8c-167 0 -253 -149 -253 -358 c0 -145 41 -257 120 -313l-37 -120l74 -19l32 107c20 -5 41 -8 64 -8c167 0 253 146 253 355c0 145 -41 259 -120 316z" glyph-name="Oslash" unicode="Ø"/><glyph d="M207 756l213 78l-37 71l-198 -105zM137 342c0 184 47 285 163 285c18 0 34 -2 48 -6l-151 -524c-41 41 -60 118 -60 245zM300 61c-18 0 -34 2 -49 6l151 525c43 -41 61 -120 61 -248c0 -184 -47 -283 -163 -283zM433 660l39 124l-75 19l-32 -111c-20 5 -42 8 -65 8 c-167 0 -253 -149 -253 -358c0 -145 41 -257 120 -313l-37 -120l74 -19l32 107c20 -5 41 -8 64 -8c167 0 253 146 253 355c0 145 -41 259 -120 316z" glyph-name="Oslashacute" unicode="Ǿ"/><glyph d="M351 771c57 0 91 41 111 85l-54 24c-16 -28 -29 -44 -51 -44c-31 0 -50 48 -109 48c-57 0 -91 -39 -111 -84l54 -24c16 28 29 44 51 44c31 0 52 -49 109 -49zM553 344c0 212 -86 356 -253 356s-253 -149 -253 -358c0 -212 86 -353 253 -353s253 146 253 355zM464 344 c0 -184 -48 -283 -164 -283c-113 0 -164 98 -164 281c0 184 47 285 164 285s164 -100 164 -283z" glyph-name="Otilde" unicode="Õ"/><glyph d="M557 477c0 144 -102 211 -266 211h-174v-688h85v256h89c155 0 266 60 266 221zM465 476c0 -118 -70 -151 -166 -151h-97v295h100c94 0 163 -37 163 -144z" glyph-name="P" unicode="P"/><glyph d="M342 609v79h-84v-79c-169 -8 -247 -98 -247 -262c0 -171 88 -261 247 -266v-81h84v81c160 5 247 95 247 266c0 165 -78 254 -247 262zM341 145v400c108 -1 161 -49 161 -198c0 -137 -48 -196 -161 -202zM259 545v-400c-113 6 -161 64 -161 202c0 148 52 196 161 198z" glyph-name="Phi" unicode="Φ"/><glyph d="M431 614v-614h85v688h-432v-688h85v614h262z" glyph-name="Pi" unicode="Π"/><glyph d="M256 192v-192h89v193c165 14 242 108 242 237v258h-88v-253c0 -100 -41 -158 -155 -169v422h-87v-423c-117 11 -156 70 -156 170v253h-88v-258c0 -129 75 -225 243 -238z" glyph-name="Psi" unicode="Ψ"/><glyph d="M553 344c0 212 -86 356 -253 356c-168 0 -254 -149 -254 -358c0 -212 86 -351 244 -351c119 0 169 -58 211 -164l91 36c-34 100 -85 144 -176 163c100 59 137 171 137 318zM464 344c0 -184 -48 -283 -164 -283c-114 0 -165 98 -165 281c0 184 48 286 165 286 c116 0 164 -101 164 -284z" glyph-name="Q" unicode="Q"/><glyph d="M445 496c0 -96 -57 -133 -156 -133h-101v257h100c107 0 157 -36 157 -124zM537 496c0 127 -89 192 -259 192h-176v-688h86v296h94l188 -296h103l-205 306c96 23 169 86 169 190z" glyph-name="R" unicode="R"/><glyph d="M420 834l-37 71l-198 -105l22 -44zM445 496c0 -96 -57 -133 -156 -133h-101v257h100c107 0 157 -36 157 -124zM537 496c0 127 -89 192 -259 192h-176v-688h86v296h94l188 -296h103l-205 306c96 23 169 86 169 190z" glyph-name="Racute" unicode="Ŕ"/><glyph d="M463 862l-37 42l-126 -81l-125 81l-38 -42l136 -108h56zM445 496c0 -96 -57 -133 -156 -133h-101v257h100c107 0 157 -36 157 -124zM537 496c0 127 -89 192 -259 192h-176v-688h86v296h94l188 -296h103l-205 306c96 23 169 86 169 190z" glyph-name="Rcaron" unicode="Ř"/><glyph d="M445 496c0 -96 -57 -133 -156 -133h-101v257h100c107 0 157 -36 157 -124zM537 496c0 127 -89 192 -259 192h-176v-688h86v296h94l188 -296h103l-205 306c96 23 169 86 169 190zM302 -71c-30 0 -54 -22 -54 -53c0 -17 9 -34 22 -44l-29 -118h50l50 108c11 23 15 37 15 54 c0 31 -23 53 -54 53z" glyph-name="Rcommaaccent" unicode="Ŗ"/><glyph d="M557 477c0 144 -102 211 -266 211h-174v-688h85v256h89c155 0 266 60 266 221zM465 476c0 -118 -70 -151 -166 -151h-97v295h100c94 0 163 -37 163 -144z" glyph-name="Rho" unicode="Ρ"/><glyph d="M536 191c0 131 -94 176 -201 207c-131 38 -174 68 -174 127c0 69 63 103 138 103c59 0 117 -19 166 -63l51 56c-58 50 -125 79 -219 79c-132 0 -223 -74 -223 -177c0 -110 86 -159 222 -199c119 -35 151 -68 151 -135c0 -87 -77 -128 -160 -128c-85 0 -144 28 -192 73 l-51 -58c58 -56 141 -87 241 -87c160 0 251 83 251 202z" glyph-name="S" unicode="S"/><glyph d="M425 834l-37 71l-198 -105l22 -44zM536 191c0 131 -94 176 -201 207c-131 38 -174 68 -174 127c0 69 63 103 138 103c59 0 117 -19 166 -63l51 56c-58 50 -125 79 -219 79c-132 0 -223 -74 -223 -177c0 -110 86 -159 222 -199c119 -35 151 -68 151 -135 c0 -87 -77 -128 -160 -128c-85 0 -144 28 -192 73l-51 -58c58 -56 141 -87 241 -87c160 0 251 83 251 202z" glyph-name="Sacute" unicode="Ś"/><glyph d="M426 871l-65 43l-106 -161l41 -25zM536 191c0 131 -94 176 -201 207c-131 38 -174 68 -174 127c0 69 63 103 138 103c59 0 117 -19 166 -63l51 56c-58 50 -125 79 -219 79c-132 0 -223 -74 -223 -177c0 -110 86 -159 222 -199c119 -35 151 -68 151 -135 c0 -87 -77 -128 -160 -128c-85 0 -144 28 -192 73l-51 -58c58 -56 141 -87 241 -87c160 0 251 83 251 202z" glyph-name="Sacute.loclPLK"/><glyph d="M468 862l-37 42l-126 -81l-125 81l-38 -42l136 -108h56zM536 191c0 131 -94 176 -201 207c-131 38 -174 68 -174 127c0 69 63 103 138 103c59 0 117 -19 166 -63l51 56c-58 50 -125 79 -219 79c-132 0 -223 -74 -223 -177c0 -110 86 -159 222 -199 c119 -35 151 -68 151 -135c0 -87 -77 -128 -160 -128c-85 0 -144 28 -192 73l-51 -58c58 -56 141 -87 241 -87c160 0 251 83 251 202z" glyph-name="Scaron" unicode="Š"/><glyph d="M536 191c0 131 -94 176 -201 207c-131 38 -174 68 -174 127c0 69 63 103 138 103c59 0 117 -19 166 -63l51 56c-58 50 -125 79 -219 79c-132 0 -223 -74 -223 -177c0 -110 86 -159 222 -199c119 -35 151 -68 151 -135c0 -87 -77 -128 -160 -128c-85 0 -144 28 -192 73 l-51 -58c53 -51 126 -81 214 -86l-7 -87c53 0 87 -7 87 -43c0 -30 -25 -42 -60 -42c-22 0 -49 6 -68 16l-27 -48c26 -15 65 -24 105 -24c64 0 121 32 121 98c0 39 -27 77 -92 83v47c140 11 219 90 219 201z" glyph-name="Scedilla" unicode="Ş"/><glyph d="M468 803l-134 107h-56l-136 -107l38 -43l125 81l126 -81zM536 191c0 131 -94 176 -201 207c-131 38 -174 68 -174 127c0 69 63 103 138 103c59 0 117 -19 166 -63l51 56c-58 50 -125 79 -219 79c-132 0 -223 -74 -223 -177c0 -110 86 -159 222 -199 c119 -35 151 -68 151 -135c0 -87 -77 -128 -160 -128c-85 0 -144 28 -192 73l-51 -58c58 -56 141 -87 241 -87c160 0 251 83 251 202z" glyph-name="Scircumflex" unicode="Ŝ"/><glyph d="M536 191c0 131 -94 176 -201 207c-131 38 -174 68 -174 127c0 69 63 103 138 103c59 0 117 -19 166 -63l51 56c-58 50 -125 79 -219 79c-132 0 -223 -74 -223 -177c0 -110 86 -159 222 -199c119 -35 151 -68 151 -135c0 -87 -77 -128 -160 -128c-85 0 -144 28 -192 73 l-51 -58c58 -56 141 -87 241 -87c160 0 251 83 251 202zM300 -71c-30 0 -54 -22 -54 -53c0 -17 9 -34 22 -44l-29 -118h50l50 108c11 23 15 37 15 54c0 31 -23 53 -54 53z" glyph-name="Scommaaccent" unicode="Ș"/><glyph d="M174 72l230 244v61l-232 239h355v72h-454v-73l255 -271l-255 -272v-72h454v72h-353z" glyph-name="Sigma" unicode="Σ"/><glyph d="M341 0v615h209l9 73h-519v-73h216v-615h85z" glyph-name="T" unicode="T"/><glyph d="M341 0v615h209l9 73h-519v-73h216v-615h85z" glyph-name="Tau" unicode="Τ"/><glyph d="M341 615h209l9 73h-519v-73h216v-198h-131v-67h131v-350h85v350h132v67h-132v198z" glyph-name="Tbar" unicode="Ŧ"/><glyph d="M462 862l-37 42l-126 -81l-125 81l-38 -42l136 -108h56zM341 0v615h209l9 73h-519v-73h216v-615h85z" glyph-name="Tcaron" unicode="Ť"/><glyph d="M328 0h13v615h209l9 73h-519v-73h216v-615h14l-8 -97c53 0 87 -7 87 -43c0 -30 -25 -42 -60 -42c-22 0 -49 6 -68 16l-27 -48c26 -15 65 -24 105 -24c64 0 121 32 121 98c0 39 -27 77 -92 83v57z" glyph-name="Tcedilla" unicode="Ţ"/><glyph d="M553 344c0 212 -86 356 -253 356s-253 -149 -253 -358c0 -212 86 -353 253 -353s253 146 253 355zM463 344c0 -184 -47 -283 -163 -283c-113 0 -163 98 -163 281c0 184 46 285 163 285s163 -100 163 -283zM197 316h205v72h-205v-72z" glyph-name="Theta" unicode="Θ"/><glyph d="M193 572v116h-85v-688h85v128h99c154 0 263 66 263 227c0 149 -97 217 -262 217h-100zM193 504h110c96 0 162 -43 162 -151c0 -121 -67 -156 -161 -156h-111v307z" glyph-name="Thorn" unicode="Þ"/><glyph d="M527 223v465h-86v-469c0 -105 -52 -156 -142 -156c-89 0 -141 51 -141 156v469h-85v-465c0 -139 85 -234 226 -234c139 0 228 94 228 234z" glyph-name="U" unicode="U"/><glyph d="M420 834l-37 71l-198 -105l22 -44zM527 223v465h-86v-469c0 -105 -52 -156 -142 -156c-89 0 -141 51 -141 156v469h-85v-465c0 -139 85 -234 226 -234c139 0 228 94 228 234z" glyph-name="Uacute" unicode="Ú"/><glyph d="M298 759c77 0 142 46 150 119l-57 12c-14 -39 -46 -67 -93 -67s-76 28 -90 67l-57 -12c8 -73 71 -119 147 -119zM527 223v465h-86v-469c0 -105 -52 -156 -142 -156c-89 0 -141 51 -141 156v469h-85v-465c0 -139 85 -234 226 -234c139 0 228 94 228 234z" glyph-name="Ubreve" unicode="Ŭ"/><glyph d="M463 803l-134 107h-56l-136 -107l38 -43l125 81l126 -81zM527 223v465h-86v-469c0 -105 -52 -156 -142 -156c-89 0 -141 51 -141 156v469h-85v-465c0 -139 85 -234 226 -234c139 0 228 94 228 234z" glyph-name="Ucircumflex" unicode="Û"/><glyph d="M402 767c32 0 55 23 55 53c0 31 -23 54 -55 54c-30 0 -53 -23 -53 -54c0 -30 23 -53 53 -53zM196 767c30 0 54 23 54 53c0 31 -24 54 -54 54c-31 0 -54 -23 -54 -54c0 -30 23 -53 54 -53zM527 223v465h-86v-469c0 -105 -52 -156 -142 -156c-89 0 -141 51 -141 156v469 h-85v-465c0 -139 85 -234 226 -234c139 0 228 94 228 234z" glyph-name="Udieresis" unicode="Ü"/><glyph d="M416 800l-185 109l-46 -72l205 -81zM527 223v465h-86v-469c0 -105 -52 -156 -142 -156c-89 0 -141 51 -141 156v469h-85v-465c0 -139 85 -234 226 -234c139 0 228 94 228 234z" glyph-name="Ugrave" unicode="Ù"/><glyph d="M434 954l-87 -173l52 -28l108 163zM260 954l-77 -173l54 -26l97 164zM527 223v465h-86v-469c0 -105 -52 -156 -142 -156c-89 0 -141 51 -141 156v469h-85v-465c0 -139 85 -234 226 -234c139 0 228 94 228 234z" glyph-name="Uhungarumlaut" unicode="Ű"/><glyph d="M165 795h269v64h-269v-64zM527 223v465h-86v-469c0 -105 -52 -156 -142 -156c-89 0 -141 51 -141 156v469h-85v-465c0 -139 85 -234 226 -234c139 0 228 94 228 234z" glyph-name="Umacron" unicode="Ū"/><glyph d="M527 688h-86v-469c0 -105 -52 -156 -142 -156c-89 0 -141 51 -141 156v469h-85v-465c0 -127 71 -217 190 -232c-60 -33 -87 -73 -87 -122c0 -55 45 -98 121 -98c27 0 44 3 64 7l8 67c-25 -6 -41 -7 -62 -7c-41 0 -55 18 -55 47c0 36 21 69 123 115c95 28 152 111 152 223 v465z" glyph-name="Uogonek" unicode="Ų"/><glyph d="M343 0v266l233 422h-89l-185 -345l-183 345h-95l233 -423v-265h86z" glyph-name="Upsilon" unicode="Υ"/><glyph d="M405 767c32 0 55 23 55 53c0 31 -23 54 -55 54c-30 0 -53 -23 -53 -54c0 -30 23 -53 53 -53zM199 767c30 0 54 23 54 53c0 31 -24 54 -54 54c-31 0 -54 -23 -54 -54c0 -30 23 -53 54 -53zM343 0v266l233 422h-89l-185 -345l-183 345h-95l233 -423v-265h86z" glyph-name="Upsilondieresis" unicode="Ϋ"/><glyph d="M576 688h-89l-185 -345l-183 345h-93l-91 15l-47 -184l64 -11l73 178l232 -421v-265h86v266z" glyph-name="Upsilontonos" unicode="Ύ"/><glyph d="M300 942c-64 0 -111 -45 -111 -103c0 -56 47 -101 111 -101s111 45 111 101c0 58 -47 103 -111 103zM300 896c34 0 54 -21 54 -57c0 -35 -20 -56 -54 -56c-33 0 -54 21 -54 56c0 36 21 57 54 57zM527 223v465h-86v-469c0 -105 -52 -156 -142 -156c-89 0 -141 51 -141 156 v469h-85v-465c0 -139 85 -234 226 -234c139 0 228 94 228 234z" glyph-name="Uring" unicode="Ů"/><glyph d="M351 771c57 0 91 41 111 85l-54 24c-16 -28 -29 -44 -51 -44c-31 0 -50 48 -109 48c-57 0 -91 -39 -111 -84l54 -24c16 28 29 44 51 44c31 0 52 -49 109 -49zM527 223v465h-86v-469c0 -105 -52 -156 -142 -156c-89 0 -141 51 -141 156v469h-85v-465 c0 -139 85 -234 226 -234c139 0 228 94 228 234z" glyph-name="Utilde" unicode="Ũ"/><glyph d="M489 688l-187 -590l-185 590h-92l231 -688h88l231 688h-86z" glyph-name="V" unicode="V"/><glyph d="M490 0l105 688h-79l-82 -581h-4l-76 501h-106l-82 -505h-4l-71 585h-86l97 -688h116l78 505h4l77 -505h113z" glyph-name="W" unicode="W"/><glyph d="M420 834l-37 71l-198 -105l22 -44zM490 0l105 688h-79l-82 -581h-4l-76 501h-106l-82 -505h-4l-71 585h-86l97 -688h116l78 505h4l77 -505h113z" glyph-name="Wacute" unicode="Ẃ"/><glyph d="M463 803l-134 107h-56l-136 -107l38 -43l125 81l126 -81zM490 0l105 688h-79l-82 -581h-4l-76 501h-106l-82 -505h-4l-71 585h-86l97 -688h116l78 505h4l77 -505h113z" glyph-name="Wcircumflex" unicode="Ŵ"/><glyph d="M402 767c32 0 55 23 55 53c0 31 -23 54 -55 54c-30 0 -53 -23 -53 -54c0 -30 23 -53 53 -53zM196 767c30 0 54 23 54 53c0 31 -24 54 -54 54c-31 0 -54 -23 -54 -54c0 -30 23 -53 54 -53zM490 0l105 688h-79l-82 -581h-4l-76 501h-106l-82 -505h-4l-71 585h-86l97 -688 h116l78 505h4l77 -505h113z" glyph-name="Wdieresis" unicode="Ẅ"/><glyph d="M416 800l-185 109l-46 -72l205 -81zM490 0l105 688h-79l-82 -581h-4l-76 501h-106l-82 -505h-4l-71 585h-86l97 -688h116l78 505h4l77 -505h113z" glyph-name="Wgrave" unicode="Ẁ"/><glyph d="M148 688h-98l198 -321l-217 -367h92l175 312l172 -312h99l-220 372l196 316h-93l-152 -265z" glyph-name="X" unicode="X"/><glyph d="M501 610l12 78h-436v-78h424zM463 309v80h-336v-80h336zM523 0v80h-446v-80h446z" glyph-name="Xi" unicode="Ξ"/><glyph d="M343 0v266l233 422h-89l-185 -345l-183 345h-95l233 -423v-265h86z" glyph-name="Y" unicode="Y"/><glyph d="M423 834l-37 71l-198 -105l22 -44zM343 0v266l233 422h-89l-185 -345l-183 345h-95l233 -423v-265h86z" glyph-name="Yacute" unicode="Ý"/><glyph d="M466 803l-134 107h-56l-136 -107l38 -43l125 81l126 -81zM343 0v266l233 422h-89l-185 -345l-183 345h-95l233 -423v-265h86z" glyph-name="Ycircumflex" unicode="Ŷ"/><glyph d="M405 767c32 0 55 23 55 53c0 31 -23 54 -55 54c-30 0 -53 -23 -53 -54c0 -30 23 -53 53 -53zM199 767c30 0 54 23 54 53c0 31 -24 54 -54 54c-31 0 -54 -23 -54 -54c0 -30 23 -53 54 -53zM343 0v266l233 422h-89l-185 -345l-183 345h-95l233 -423v-265h86z" glyph-name="Ydieresis" unicode="Ÿ"/><glyph d="M419 800l-185 109l-46 -72l205 -81zM343 0v266l233 422h-89l-185 -345l-183 345h-95l233 -423v-265h86z" glyph-name="Ygrave" unicode="Ỳ"/><glyph d="M527 74h-361l362 544v70h-420v-73h328l-364 -545v-70h445z" glyph-name="Z" unicode="Z"/><glyph d="M439 834l-37 71l-198 -105l22 -44zM527 74h-361l362 544v70h-420v-73h328l-364 -545v-70h445z" glyph-name="Zacute" unicode="Ź"/><glyph d="M439 871l-65 43l-106 -161l41 -25zM527 74h-361l362 544v70h-420v-73h328l-364 -545v-70h445z" glyph-name="Zacute.loclPLK"/><glyph d="M482 862l-37 42l-126 -81l-125 81l-38 -42l136 -108h56zM527 74h-361l362 544v70h-420v-73h328l-364 -545v-70h445z" glyph-name="Zcaron" unicode="Ž"/><glyph d="M317 892c-36 0 -60 -26 -60 -59c0 -34 24 -59 60 -59c37 0 61 25 61 59c0 33 -24 59 -61 59zM527 74h-361l362 544v70h-420v-73h328l-364 -545v-70h445z" glyph-name="Zdotaccent" unicode="Ż"/><glyph d="M527 74h-361l362 544v70h-420v-73h328l-364 -545v-70h445z" glyph-name="Zeta" unicode="Ζ"/><glyph d="M477 114v254c0 104 -66 170 -197 170c-51 0 -107 -10 -171 -34l22 -62c54 19 102 26 137 26c78 0 125 -28 125 -104v-44h-77c-160 0 -247 -61 -247 -169c0 -98 64 -162 170 -162c68 0 127 25 165 74c15 -47 51 -69 96 -75l20 59c-29 9 -43 25 -43 67zM260 52 c-69 0 -102 34 -102 100c0 68 42 111 159 111h76v-136c-31 -48 -81 -75 -133 -75z" glyph-name="a" unicode="a"/><glyph d="M362 785l-185 -115l28 -46l201 90zM477 114v254c0 104 -66 170 -197 170c-51 0 -107 -10 -171 -34l22 -62c54 19 102 26 137 26c78 0 125 -28 125 -104v-44h-77c-160 0 -247 -61 -247 -169c0 -98 64 -162 170 -162c68 0 127 25 165 74c15 -47 51 -69 96 -75l20 59 c-29 9 -43 25 -43 67zM260 52c-69 0 -102 34 -102 100c0 68 42 111 159 111h76v-136c-31 -48 -81 -75 -133 -75z" glyph-name="aacute" unicode="á"/><glyph d="M290 630c92 0 142 75 150 135l-57 13c-15 -50 -45 -84 -93 -84c-47 0 -76 34 -90 84l-57 -13c8 -60 56 -135 147 -135zM477 114v254c0 104 -66 170 -197 170c-51 0 -107 -10 -171 -34l22 -62c54 19 102 26 137 26c78 0 125 -28 125 -104v-44h-77 c-160 0 -247 -61 -247 -169c0 -98 64 -162 170 -162c68 0 127 25 165 74c15 -47 51 -69 96 -75l20 59c-29 9 -43 25 -43 67zM260 52c-69 0 -102 34 -102 100c0 68 42 111 159 111h76v-136c-31 -48 -81 -75 -133 -75z" glyph-name="abreve" unicode="ă"/><glyph d="M129 670l40 -41l124 91l124 -91l38 41l-134 119h-56zM477 114v254c0 104 -66 170 -197 170c-51 0 -107 -10 -171 -34l22 -62c54 19 102 26 137 26c78 0 125 -28 125 -104v-44h-77c-160 0 -247 -61 -247 -169c0 -98 64 -162 170 -162c68 0 127 25 165 74 c15 -47 51 -69 96 -75l20 59c-29 9 -43 25 -43 67zM260 52c-69 0 -102 34 -102 100c0 68 42 111 159 111h76v-136c-31 -48 -81 -75 -133 -75z" glyph-name="acircumflex" unicode="â"/><glyph d="M370 785l-185 -115l28 -46l201 90z" glyph-name="acute" unicode="´"/><glyph d="M417 834l-37 71l-198 -105l22 -44z" glyph-name="acute.case"/><glyph d="M386 871l-65 43l-106 -161l41 -25z" glyph-name="acute.case.loclPLK"/><glyph d="M385 728l-65 42l-105 -168l41 -26z" glyph-name="acute.loclPLK"/><glyph d="M418 697l-38 71l-198 -105l23 -45z" glyph-name="acutecomb" horiz-adv-x="0" unicode="́"/><glyph d="M394 648c32 0 55 23 55 53c0 31 -23 54 -55 54c-30 0 -53 -23 -53 -54c0 -30 23 -53 53 -53zM188 648c30 0 54 23 54 53c0 31 -24 54 -54 54c-31 0 -54 -23 -54 -54c0 -30 23 -53 54 -53zM477 114v254c0 104 -66 170 -197 170c-51 0 -107 -10 -171 -34l22 -62 c54 19 102 26 137 26c78 0 125 -28 125 -104v-44h-77c-160 0 -247 -61 -247 -169c0 -98 64 -162 170 -162c68 0 127 25 165 74c15 -47 51 -69 96 -75l20 59c-29 9 -43 25 -43 67zM260 52c-69 0 -102 34 -102 100c0 68 42 111 159 111h76v-136c-31 -48 -81 -75 -133 -75z" glyph-name="adieresis" unicode="ä"/><glyph d="M435 538c-64 0 -108 -34 -126 -88c-21 53 -58 88 -138 88c-43 0 -91 -13 -135 -34l22 -63c44 19 69 27 105 27c58 0 91 -31 91 -104v-44h-46c-140 0 -214 -60 -214 -169c0 -98 59 -162 152 -162c67 0 107 27 153 89c33 -57 78 -89 148 -89c57 0 99 20 139 52l-38 57 c-34 -25 -61 -39 -100 -39c-70 0 -104 54 -113 174h270c1 12 2 28 2 46c0 161 -53 259 -172 259zM432 468c69 0 91 -59 93 -170h-190c9 126 37 170 97 170zM211 263h43c0 -42 4 -80 14 -113c-36 -64 -65 -97 -110 -97c-44 0 -74 35 -74 103c0 64 31 107 127 107z" glyph-name="ae" unicode="æ"/><glyph d="M379 785l-185 -115l28 -46l201 90zM435 538c-64 0 -108 -34 -126 -88c-21 53 -58 88 -138 88c-43 0 -91 -13 -135 -34l22 -63c44 19 69 27 105 27c58 0 91 -31 91 -104v-44h-46c-140 0 -214 -60 -214 -169c0 -98 59 -162 152 -162c67 0 107 27 153 89 c33 -57 78 -89 148 -89c57 0 99 20 139 52l-38 57c-34 -25 -61 -39 -100 -39c-70 0 -104 54 -113 174h270c1 12 2 28 2 46c0 161 -53 259 -172 259zM432 468c69 0 91 -59 93 -170h-190c9 126 37 170 97 170zM211 263h43c0 -42 4 -80 14 -113c-36 -64 -65 -97 -110 -97 c-44 0 -74 35 -74 103c0 64 31 107 127 107z" glyph-name="aeacute" unicode="ǽ"/><glyph d="M177 715l202 -91l27 46l-185 117zM477 114v254c0 104 -66 170 -197 170c-51 0 -107 -10 -171 -34l22 -62c54 19 102 26 137 26c78 0 125 -28 125 -104v-44h-77c-160 0 -247 -61 -247 -169c0 -98 64 -162 170 -162c68 0 127 25 165 74c15 -47 51 -69 96 -75l20 59 c-29 9 -43 25 -43 67zM260 52c-69 0 -102 34 -102 100c0 68 42 111 159 111h76v-136c-31 -48 -81 -75 -133 -75z" glyph-name="agrave" unicode="à"/><glyph d="M255 538c-130 0 -196 -117 -196 -280c0 -181 71 -269 191 -269c89 0 136 69 164 150l8 -56c9 -56 50 -89 92 -95l30 70c-30 11 -41 27 -45 51l-26 136l51 281h-76l-27 -154c-22 125 -77 166 -166 166zM261 471c67 0 111 -42 139 -204c-35 -178 -93 -211 -143 -211 c-72 0 -109 63 -109 202c0 138 41 213 113 213z" glyph-name="alpha" unicode="α"/><glyph d="M279 806l-38 -205l63 -11l67 200zM255 538c-130 0 -196 -117 -196 -280c0 -181 71 -269 191 -269c89 0 136 69 164 150l8 -56c9 -56 50 -89 92 -95l30 70c-30 11 -41 27 -45 51l-26 136l51 281h-76l-27 -154c-22 125 -77 166 -166 166zM261 471c67 0 111 -42 139 -204 c-35 -178 -93 -211 -143 -211c-72 0 -109 63 -109 202c0 138 41 213 113 213z" glyph-name="alphatonos" unicode="ά"/><glyph d="M157 676h269v64h-269v-64zM477 114v254c0 104 -66 170 -197 170c-51 0 -107 -10 -171 -34l22 -62c54 19 102 26 137 26c78 0 125 -28 125 -104v-44h-77c-160 0 -247 -61 -247 -169c0 -98 64 -162 170 -162c68 0 127 25 165 74c15 -47 51 -69 96 -75l20 59 c-29 9 -43 25 -43 67zM260 52c-69 0 -102 34 -102 100c0 68 42 111 159 111h76v-136c-31 -48 -81 -75 -133 -75z" glyph-name="amacron" unicode="ā"/><glyph d="M279 699c-117 0 -189 -77 -189 -165c0 -62 30 -123 121 -144v-3c-101 -21 -157 -89 -157 -192s67 -206 222 -206c116 0 178 54 208 92v273h89v65h-278c-69 0 -123 54 -123 115c0 60 35 102 106 102c50 0 83 -19 118 -57l50 45c-55 60 -108 75 -167 75zM283 354h125v-245 c-27 -34 -74 -53 -129 -53c-102 0 -144 69 -144 142c0 71 44 156 148 156z" glyph-name="ampersand" unicode="&amp;"/><glyph d="M500 -12l20 59c-29 9 -43 25 -43 67v254c0 104 -66 170 -197 170c-51 0 -107 -10 -171 -34l22 -62c54 19 102 26 137 26c78 0 125 -28 125 -104v-44h-77c-160 0 -247 -61 -247 -169c0 -98 64 -162 170 -162c68 0 127 25 165 74c8 -27 24 -45 44 -57 c-103 -37 -148 -86 -148 -149c0 -55 45 -98 121 -98c27 0 44 3 64 7l8 67c-25 -6 -41 -7 -62 -7c-41 0 -55 18 -55 47c0 36 21 69 124 115zM393 263v-136c-31 -48 -81 -75 -133 -75c-69 0 -102 34 -102 100c0 68 42 111 159 111h76z" glyph-name="aogonek" unicode="ą"/><glyph d="M226 470c-71 0 -111 -49 -131 -87l58 -31c16 28 34 51 67 51c41 0 76 -56 154 -56c72 0 111 49 131 87l-58 30c-16 -28 -34 -51 -67 -51c-41 0 -76 57 -154 57zM226 281c-71 0 -111 -49 -131 -87l58 -30c16 28 34 51 67 51c41 0 76 -56 154 -56c72 0 111 48 131 86 l-58 30c-16 -27 -34 -50 -67 -50c-41 0 -76 56 -154 56z" glyph-name="approxequal" unicode="≈"/><glyph d="M226 470c-71 0 -111 -49 -131 -87l58 -31c16 28 34 51 67 51c41 0 76 -56 154 -56c72 0 111 49 131 87l-58 30c-16 -28 -34 -51 -67 -51c-41 0 -76 57 -154 57zM226 281c-71 0 -111 -49 -131 -87l58 -30c16 28 34 51 67 51c41 0 76 -56 154 -56c72 0 111 48 131 86 l-58 30c-16 -27 -34 -50 -67 -50c-41 0 -76 56 -154 56z" glyph-name="approxequal.tosf"/><glyph d="M292 823c-64 0 -111 -45 -111 -103c0 -56 47 -101 111 -101s111 45 111 101c0 58 -47 103 -111 103zM292 777c34 0 54 -21 54 -57c0 -35 -20 -56 -54 -56c-33 0 -54 21 -54 56c0 36 21 57 54 57zM477 114v254c0 104 -66 170 -197 170c-51 0 -107 -10 -171 -34l22 -62 c54 19 102 26 137 26c78 0 125 -28 125 -104v-44h-77c-160 0 -247 -61 -247 -169c0 -98 64 -162 170 -162c68 0 127 25 165 74c15 -47 51 -69 96 -75l20 59c-29 9 -43 25 -43 67zM260 52c-69 0 -102 34 -102 100c0 68 42 111 159 111h76v-136c-31 -48 -81 -75 -133 -75z" glyph-name="aring" unicode="å"/><glyph d="M341 80v551h-82v-551c-17 31 -37 51 -59 70l-162 149l-50 -56l312 -279l312 279l-50 56l-162 -149c-22 -19 -43 -39 -59 -70z" glyph-name="arrowdown" unicode="↓"/><glyph d="M381 750h-162c-30 0 -50 -20 -50 -50v-496h-169l300 -298l300 298h-169v496c0 30 -20 50 -50 50zM216 706h168v-547h107l-191 -189l-191 189h107v547z" glyph-name="arrowdownwhite" unicode="⇩"/><glyph d="M356 581l-62 52l-271 -304l271 -304l62 52l-144 158c-19 22 -39 42 -63 57h428v74h-428c28 18 36 26 63 57z" glyph-name="arrowleft" unicode="←"/><glyph d="M258 437v176l-298 -300l298 -300v176h332c30 0 50 20 50 50v148c0 30 -20 50 -50 50h-332zM24 313l189 191v-111h383v-160h-383v-111z" glyph-name="arrowleftwhite" unicode="⇦"/><glyph d="M577 329l-271 304l-62 -52l144 -158c27 -31 35 -39 63 -57h-428v-74h428c-24 -15 -44 -35 -63 -57l-144 -158l62 -52z" glyph-name="arrowright" unicode="→"/><glyph d="M640 313l-298 300v-176h-332c-30 0 -50 -20 -50 -50v-148c0 -30 20 -50 50 -50h332v-176zM387 393v111l189 -191l-189 -191v111h-383v160h383z" glyph-name="arrowrightwhite" unicode="⇨"/><glyph d="M612 388l-312 279l-312 -279l50 -56l162 149c22 19 42 39 59 70v-551h82v551c16 -31 37 -51 59 -70l162 -149z" glyph-name="arrowup" unicode="↑"/><glyph d="M612 586l-312 279l-312 -279l50 -56l162 148c22 20 42 39 59 71v-818c-17 32 -37 51 -59 71l-162 148l-50 -56l312 -279l312 279l-50 56l-162 -149c-22 -19 -43 -39 -59 -69v816c16 -30 37 -50 59 -69l162 -149z" glyph-name="arrowupdn" unicode="↕"/><glyph d="M600 534l-300 298l-300 -298h169v-496c0 -30 20 -50 50 -50h162c30 0 50 20 50 50v496h169zM109 579l191 189l191 -189h-107v-547h-168v547h-107z" glyph-name="arrowupwhite" unicode="⇧"/><glyph d="M526 527l-189 312h-74l-189 -312h89l136 238l136 -238h91z" glyph-name="asciicircum" unicode="^"/><glyph d="M205 400c-89 0 -132 -69 -161 -127l59 -30c26 48 56 85 99 85c64 0 99 -100 193 -100c88 0 132 70 161 126l-59 31c-26 -47 -58 -85 -99 -85c-62 0 -92 100 -193 100z" glyph-name="asciitilde" unicode="~"/><glyph d="M205 400c-89 0 -132 -69 -161 -127l59 -30c26 48 56 85 99 85c64 0 99 -100 193 -100c88 0 132 70 161 126l-59 31c-26 -47 -58 -85 -99 -85c-62 0 -92 100 -193 100z" glyph-name="asciitilde.tosf"/><glyph d="M327 362l15 164h-84l14 -164l-150 63l-26 -80l160 -36l-107 -127l71 -47l81 143l87 -141l68 52l-110 120l158 36l-25 80z" glyph-name="asterisk" unicode="*"/><glyph d="M284 700c-89 0 -185 -32 -275 -110l49 -55c85 75 161 92 227 92c184 0 215 -153 215 -343c0 -171 0 -307 -63 -307c-39 0 -71 23 -71 132v295c-56 30 -94 37 -140 37c-124 0 -196 -83 -196 -257c0 -133 42 -230 150 -230c80 0 118 51 137 98h4c-1 -49 34 -143 118 -143 c120 0 146 124 146 376c0 203 -43 415 -301 415zM230 380c24 0 43 -4 64 -15v-260c-12 -29 -34 -88 -104 -88c-61 0 -80 69 -80 167c0 129 28 196 120 196z" glyph-name="at" unicode="@"/><glyph d="M343 652c57 0 91 41 111 85l-54 24c-16 -28 -29 -44 -51 -44c-31 0 -50 48 -109 48c-57 0 -91 -39 -111 -84l54 -24c16 28 29 44 51 44c31 0 52 -49 109 -49zM477 114v254c0 104 -66 170 -197 170c-51 0 -107 -10 -171 -34l22 -62c54 19 102 26 137 26 c78 0 125 -28 125 -104v-44h-77c-160 0 -247 -61 -247 -169c0 -98 64 -162 170 -162c68 0 127 25 165 74c15 -47 51 -69 96 -75l20 59c-29 9 -43 25 -43 67zM260 52c-69 0 -102 34 -102 100c0 68 42 111 159 111h76v-136c-31 -48 -81 -75 -133 -75z" glyph-name="atilde" unicode="ã"/><glyph d="M184 458v291l-83 -10v-739h73l6 55c35 -46 82 -66 143 -66c136 0 209 115 209 275c0 165 -57 274 -198 274c-60 0 -112 -29 -150 -80zM304 56c-49 0 -92 26 -120 68v262c28 42 73 85 132 85c82 0 125 -69 125 -207c0 -141 -49 -208 -137 -208z" glyph-name="b" unicode="b"/><glyph d="M119 809l-66 -32l427 -880l67 30z" glyph-name="backslash" unicode="\"/><glyph d="M337 -102v909h-75v-909h75z" glyph-name="bar" unicode="|"/><glyph d="M317 57c-62 0 -107 16 -143 52v430c0 97 41 143 119 143c70 0 123 -36 123 -119c0 -94 -57 -133 -126 -133h-53l-10 -64h54c117 0 181 -56 181 -164c0 -95 -65 -145 -145 -145zM341 404c82 10 151 62 151 168c0 111 -92 176 -200 176c-125 0 -200 -78 -200 -208v-752 l82 11v242c44 -35 96 -52 151 -52c115 0 222 81 222 213c0 151 -110 191 -206 202z" glyph-name="beta" unicode="β"/><glyph d="M570 270l-270 270l-270 -270l270 -270z" glyph-name="blackDiamond" unicode="◆"/><glyph d="M300 540c-150 0 -270 -121 -270 -270c0 -150 120 -270 270 -270c149 0 270 120 270 270c0 149 -121 270 -270 270z" glyph-name="blackcircle" unicode="●"/><glyph d="M570 0l-540 540v-540h540z" glyph-name="blacklowerlefttriangle" unicode="◣"/><glyph d="M570 0v540l-540 -540h540z" glyph-name="blacklowerrighttriangle" unicode="◢"/><glyph d="M30 0l540 540h-540v-540z" glyph-name="blackupperlefttriangle" unicode="◤"/><glyph d="M570 0v540h-540z" glyph-name="blackupperrighttriangle" unicode="◥"/><glyph d="M600 -500v1500h-600v-1500h600z" glyph-name="block" unicode="█"/><glyph d="M451 770v65c-111 0 -215 -33 -202 -155l20 -192c7 -68 -16 -105 -152 -105v-66c135 0 159 -38 152 -106l-20 -191c-13 -122 91 -155 202 -155v65c-73 0 -132 18 -126 80l21 206c8 88 -23 121 -93 134c68 13 101 50 93 134l-21 206c-6 61 53 80 126 80z" glyph-name="braceleft" unicode="{"/><glyph d="M451 760v65c-111 0 -215 -33 -202 -155l20 -192c7 -68 -16 -105 -152 -105v-66c135 0 159 -38 152 -106l-20 -191c-13 -122 91 -155 202 -155v65c-73 0 -132 18 -126 80l21 206c8 88 -23 121 -93 134c68 13 101 50 93 134l-21 206c-6 61 53 80 126 80z" glyph-name="braceleft.case"/><glyph d="M149 835v-65c73 0 132 -19 126 -80l-21 -206c-8 -84 25 -121 104 -135c-82 -12 -112 -45 -104 -133l21 -206c6 -62 -53 -80 -126 -80v-65c111 0 215 33 202 155l-20 191c-7 68 28 106 152 106v66c-124 0 -159 37 -152 105l20 192c13 122 -91 155 -202 155z" glyph-name="braceright" unicode="}"/><glyph d="M149 825v-65c73 0 132 -19 126 -80l-21 -206c-8 -84 25 -121 104 -135c-82 -12 -112 -45 -104 -133l21 -206c6 -62 -53 -80 -126 -80v-65c111 0 215 33 202 155l-20 191c-7 68 28 106 152 106v66c-124 0 -159 37 -152 105l20 192c13 122 -91 155 -202 155z" glyph-name="braceright.case"/><glyph d="M184 815v-930h250v70h-171v789h171v71h-250z" glyph-name="bracketleft" unicode="["/><glyph d="M184 805v-930h250v70h-171v789h171v71h-250z" glyph-name="bracketleft.case"/><glyph d="M416 -115v930h-250v-71h171v-789h-171v-70h250z" glyph-name="bracketright" unicode="]"/><glyph d="M416 -125v930h-250v-71h171v-789h-171v-70h250z" glyph-name="bracketright.case"/><glyph d="M298 630c92 0 142 75 150 135l-57 13c-15 -50 -45 -84 -93 -84c-47 0 -76 34 -90 84l-57 -13c8 -60 56 -135 147 -135z" glyph-name="breve" unicode="˘"/><glyph d="M299 759c77 0 142 46 150 119l-57 12c-14 -39 -46 -67 -93 -67s-76 28 -90 67l-57 -12c8 -73 71 -119 147 -119z" glyph-name="breve.case"/><glyph d="M299 647c77 0 142 39 150 112l-57 13c-15 -44 -46 -60 -93 -60s-75 16 -90 60l-57 -13c8 -73 71 -112 147 -112z" glyph-name="brevecy" horiz-adv-x="0"/><glyph d="M298 773c77 0 142 39 150 112l-57 13c-15 -44 -46 -60 -93 -60s-75 16 -90 60l-57 -13c8 -73 71 -112 147 -112z" glyph-name="brevecy.case" horiz-adv-x="0"/><glyph d="M337 452v355h-75v-355h75zM337 -102v355h-75v-355h75z" glyph-name="brokenbar" unicode="¦"/><glyph d="M300 221c70 0 121 50 121 120s-51 121 -121 121s-121 -50 -121 -120s51 -121 121 -121z" glyph-name="bullet" unicode="•"/><glyph d="M212 342c0 -50 37 -88 87 -88c51 0 88 38 88 88c0 49 -37 87 -88 87c-50 0 -87 -38 -87 -87z" glyph-name="bulletoperator" unicode="∙"/><glyph d="M300 540c-150 0 -270 -121 -270 -270c0 -150 120 -270 270 -270c149 0 270 120 270 270c0 149 -121 270 -270 270zM300 460c104 0 190 -86 190 -190c0 -105 -86 -190 -190 -190c-105 0 -190 85 -190 190c0 104 85 190 190 190zM300 380c-61 0 -110 -50 -110 -110 c0 -61 49 -110 110 -110c60 0 110 49 110 110c0 60 -50 110 -110 110zM300 300c16 0 30 -14 30 -30c0 -17 -14 -30 -30 -30c-17 0 -30 13 -30 30c0 16 13 30 30 30z" glyph-name="bullseye" unicode="◎"/><glyph d="M338 60c-90 0 -156 60 -156 201c0 139 65 207 156 207c47 0 91 -16 135 -49l42 57c-50 41 -108 62 -176 62c-157 0 -247 -119 -247 -277c0 -165 89 -272 246 -272c62 0 132 24 178 63l-40 58c-39 -31 -84 -50 -138 -50z" glyph-name="c" unicode="c"/><glyph d="M414 777l-185 -115l28 -46l201 90zM338 60c-90 0 -156 60 -156 201c0 139 65 207 156 207c47 0 91 -16 135 -49l42 57c-50 41 -108 62 -176 62c-157 0 -247 -119 -247 -277c0 -165 89 -272 246 -272c62 0 132 24 178 63l-40 58c-39 -31 -84 -50 -138 -50z" glyph-name="cacute" unicode="ć"/><glyph d="M464 720l-65 42l-105 -168l41 -26zM338 60c-90 0 -156 60 -156 201c0 139 65 207 156 207c47 0 91 -16 135 -49l42 57c-50 41 -108 62 -176 62c-157 0 -247 -119 -247 -277c0 -165 89 -272 246 -272c62 0 132 24 178 63l-40 58c-39 -31 -84 -50 -138 -50z" glyph-name="cacute.loclPLK"/><glyph d="M600 534l-300 298l-300 -298h169v-279h262v279h169zM109 579l191 189l191 -189h-107v-282h-168v282h-107zM431 38v117h-262v-117c0 -30 20 -50 50 -50h162c30 0 50 20 50 50zM216 113h168v-81h-168v81z" glyph-name="capslock" unicode="⇪"/><glyph d="M463 748l-38 41l-124 -91l-124 91l-40 -41l136 -119h56z" glyph-name="caron" unicode="ˇ"/><glyph d="M354 688l-75 9l-25 -179l47 -7z" glyph-name="caron.alt"/><glyph d="M463 862l-37 42l-126 -81l-125 81l-38 -42l136 -108h56z" glyph-name="caron.case"/><glyph d="M507 740l-38 41l-124 -91l-124 91l-40 -41l136 -119h56zM338 60c-90 0 -156 60 -156 201c0 139 65 207 156 207c47 0 91 -16 135 -49l42 57c-50 41 -108 62 -176 62c-157 0 -247 -119 -247 -277c0 -165 89 -272 246 -272c62 0 132 24 178 63l-40 58 c-39 -31 -84 -50 -138 -50z" glyph-name="ccaron" unicode="č"/><glyph d="M359 -57v47c56 5 116 27 157 62l-40 58c-39 -31 -84 -50 -138 -50c-90 0 -156 60 -156 201c0 139 65 207 156 207c47 0 91 -16 135 -49l42 57c-50 41 -108 62 -176 62c-157 0 -247 -119 -247 -277c0 -151 75 -254 208 -270l-7 -88c53 0 87 -7 87 -43 c0 -30 -25 -42 -60 -42c-22 0 -49 6 -68 16l-27 -48c26 -15 65 -24 105 -24c64 0 121 32 121 98c0 39 -27 77 -92 83z" glyph-name="ccedilla" unicode="ç"/><glyph d="M181 662l40 -41l124 91l124 -91l38 41l-134 119h-56zM338 60c-90 0 -156 60 -156 201c0 139 65 207 156 207c47 0 91 -16 135 -49l42 57c-50 41 -108 62 -176 62c-157 0 -247 -119 -247 -277c0 -165 89 -272 246 -272c62 0 132 24 178 63l-40 58 c-39 -31 -84 -50 -138 -50z" glyph-name="ccircumflex" unicode="ĉ"/><glyph d="M343 765c-36 0 -60 -26 -60 -59c0 -34 24 -59 60 -59c37 0 61 25 61 59c0 33 -24 59 -61 59zM338 60c-90 0 -156 60 -156 201c0 139 65 207 156 207c47 0 91 -16 135 -49l42 57c-50 41 -108 62 -176 62c-157 0 -247 -119 -247 -277c0 -165 89 -272 246 -272 c62 0 132 24 178 63l-40 58c-39 -31 -84 -50 -138 -50z" glyph-name="cdotaccent" unicode="ċ"/><glyph d="M341 -140c0 -30 -25 -42 -60 -42c-22 0 -49 6 -68 16l-27 -48c26 -15 65 -24 105 -24c64 0 121 32 121 98c0 39 -27 77 -92 83v73h-57l-9 -113c53 0 87 -7 87 -43z" glyph-name="cedilla" unicode="¸"/><glyph d="M341 -140c0 -30 -25 -42 -60 -42c-22 0 -49 6 -68 16l-27 -48c26 -15 65 -24 105 -24c64 0 121 32 121 98c0 39 -27 77 -92 83v73h-57l-9 -113c53 0 87 -7 87 -43z" glyph-name="cedilla.case"/><glyph d="M373 533v150h-74v-151c-128 -18 -193 -127 -193 -271c0 -151 66 -251 192 -267v-147h75v147c42 5 83 20 121 52l-41 59c-43 -34 -77 -45 -117 -45c-86 0 -140 60 -140 201c0 139 53 207 140 207c39 0 72 -9 116 -41l42 55c-38 31 -79 46 -121 51z" glyph-name="cent" unicode="¢"/><glyph d="M373 533v150h-74v-151c-128 -18 -193 -127 -193 -271c0 -151 66 -251 192 -267v-147h75v147c42 5 83 20 121 52l-41 59c-43 -34 -77 -45 -117 -45c-86 0 -140 60 -140 201c0 139 53 207 140 207c39 0 72 -9 116 -41l42 55c-38 31 -79 46 -121 51z" glyph-name="cent.tosf"/><glyph d="M552 -203l-195 391l176 341l-87 4l-138 -295c-62 160 -109 235 -172 299l-81 -31c72 -75 115 -129 202 -323l-198 -385l86 -6l162 332l159 -334z" glyph-name="chi" unicode="χ"/><glyph d="M300 540c-150 0 -270 -121 -270 -270c0 -150 120 -270 270 -270c149 0 270 120 270 270c0 149 -121 270 -270 270zM300 460c104 0 190 -86 190 -190c0 -105 -86 -190 -190 -190c-105 0 -190 85 -190 190c0 104 85 190 190 190z" glyph-name="circle" unicode="○"/><glyph d="M300 540c-150 0 -270 -121 -270 -270c0 -150 120 -270 270 -270c149 0 270 120 270 270c0 149 -121 270 -270 270zM300 80v380c104 0 190 -86 190 -190c0 -105 -86 -190 -190 -190z" glyph-name="circlewithlefthalfblack" unicode="◐"/><glyph d="M300 540c-150 0 -270 -121 -270 -270c0 -150 120 -270 270 -270h11c144 6 259 123 259 270c0 149 -121 270 -270 270zM300 460v-380c-105 0 -190 85 -190 190c0 104 85 190 190 190z" glyph-name="circlewithrighthalfblack" unicode="◑"/><glyph d="M137 670l40 -41l124 91l124 -91l38 41l-134 119h-56z" glyph-name="circumflex" unicode="ˆ"/><glyph d="M463 803l-134 107h-56l-136 -107l38 -43l125 81l126 -81z" glyph-name="circumflex.case"/><glyph d="M630 673h-660c-30 0 -50 -20 -50 -50v-545c0 -30 20 -50 50 -50h660c30 0 50 20 50 50v545c0 30 -20 50 -50 50zM300 422l134 135l67 -69l-134 -133l134 -134l-67 -67l-134 134l-134 -134l-67 67l134 134l-134 133l67 69z" glyph-name="clear" unicode="⌧"/><glyph d="M300 539c-72 0 -120 -31 -120 -95c0 -54 27 -80 54 -102c-26 11 -37 14 -67 14c-64 0 -97 -44 -97 -117c0 -62 44 -105 104 -105c47 0 80 20 108 66l-16 -135h-156l-40 -65h460l-40 65h-156l-16 135c27 -46 60 -66 108 -66c60 0 104 43 104 105c0 73 -33 117 -97 117 c-30 0 -41 -3 -67 -14c27 22 54 48 54 102c0 64 -48 95 -120 95z" glyph-name="club" unicode="♣"/><glyph d="M219 431c0 -45 34 -82 80 -82s81 37 81 82c0 44 -35 80 -81 80s-80 -36 -80 -80zM219 70c0 -46 34 -81 80 -81s81 35 81 81c0 43 -35 80 -81 80s-80 -37 -80 -80z" glyph-name="colon" unicode=":"/><glyph d="M300 164c-45 0 -80 -36 -80 -80c0 -26 13 -51 33 -66l-48 -197h75l81 186c15 30 20 53 20 77c0 44 -35 80 -81 80z" glyph-name="comma" unicode=","/><glyph d="M301 747c-173 0 -271 -139 -271 -312c0 -171 99 -310 271 -310c171 0 269 139 269 310c0 173 -98 312 -269 312zM301 697c144 0 215 -117 215 -262c0 -144 -71 -259 -215 -259c-145 0 -216 115 -216 259c0 145 71 262 216 262zM304 625c-86 0 -162 -65 -162 -189 c0 -122 69 -189 163 -189c56 0 94 23 121 47l-32 48c-24 -22 -51 -35 -87 -35c-55 0 -94 41 -94 129c0 95 42 133 94 133c27 0 53 -9 79 -30l35 47c-35 27 -65 39 -117 39z" glyph-name="copyright" unicode="©"/><glyph d="M301 486c84 0 128 -55 128 -144c0 -90 -44 -144 -128 -144s-129 54 -129 144c0 89 45 144 129 144zM177 520l-89 90l-54 -54l88 -90c-21 -33 -34 -76 -34 -124c0 -49 13 -92 35 -126l-89 -89l54 -54l89 89c34 -21 77 -32 124 -32c46 0 87 11 120 32l91 -88l54 54l-88 87 c22 34 37 77 37 127c0 48 -14 92 -36 125l87 88l-54 54l-89 -89c-33 22 -76 33 -122 33c-47 0 -90 -12 -124 -33z" glyph-name="currency" unicode="¤"/><glyph d="M301 486c84 0 128 -55 128 -144c0 -90 -44 -144 -128 -144s-129 54 -129 144c0 89 45 144 129 144zM177 520l-89 90l-54 -54l88 -90c-21 -33 -34 -76 -34 -124c0 -49 13 -92 35 -126l-89 -89l54 -54l89 89c34 -21 77 -32 124 -32c46 0 87 11 120 32l91 -88l54 54l-88 87 c22 34 37 77 37 127c0 48 -14 92 -36 125l87 88l-54 54l-89 -89c-33 22 -76 33 -122 33c-47 0 -90 -12 -124 -33z" glyph-name="currency.tosf"/><glyph d="M296 471c49 0 92 -26 120 -68v-264c-28 -43 -70 -83 -130 -83c-83 0 -127 70 -127 207c0 139 49 208 137 208zM499 739l-83 10v-274c-35 41 -81 63 -141 63c-130 0 -207 -117 -207 -276c0 -163 63 -273 201 -273c58 0 110 25 149 80l8 -69h73v739z" glyph-name="d" unicode="d"/><glyph d="M340 520v157h-80v-157h-169v-70h169v-450h80v450h169v70h-169z" glyph-name="dagger" unicode="†"/><glyph d="M341 520v157h-80v-157h-169v-70h169v-450h80v450h169v70h-169z" glyph-name="dagger.tosf"/><glyph d="M340 512v165h-80v-165h-169v-70h169v-211h-169v-70h169v-161h80v161h169v70h-169v211h169v70h-169z" glyph-name="daggerdbl" unicode="‡"/><glyph d="M341 512v165h-80v-165h-169v-70h169v-211h-169v-70h169v-161h80v161h169v70h-169v211h169v70h-169z" glyph-name="daggerdbl.tosf"/><glyph d="M612 738l-75 9l-25 -180l47 -7zM267 471c49 0 92 -26 121 -68v-264c-29 -43 -71 -83 -131 -83c-83 0 -127 70 -127 207c0 139 49 208 137 208zM470 739l-82 10v-274c-36 41 -81 63 -142 63c-130 0 -206 -117 -206 -276c0 -163 63 -273 200 -273c58 0 110 25 150 80l8 -69 h72v739z" glyph-name="dcaron" unicode="ď"/><glyph d="M419 403v-264c-29 -43 -70 -83 -130 -83c-84 0 -128 70 -128 207c0 139 50 208 138 208c49 0 91 -26 120 -68zM581 598v66h-79v75l-83 10v-85h-172v-66h172v-123c-36 41 -81 63 -142 63c-130 0 -206 -117 -206 -276c0 -163 63 -273 201 -273c57 0 110 25 149 80l8 -69h73 v598h79z" glyph-name="dcroat" unicode="đ"/><glyph d="M227 749c-82 0 -162 -57 -162 -156c0 -101 80 -157 162 -157c84 0 162 56 162 156s-78 157 -162 157zM227 690c47 0 90 -31 90 -98c0 -66 -43 -97 -90 -97c-45 0 -89 31 -89 98s44 97 89 97z" glyph-name="degree" unicode="°"/><glyph d="M227 749c-82 0 -162 -57 -162 -156c0 -101 80 -157 162 -157c84 0 162 56 162 156s-78 157 -162 157zM227 690c47 0 90 -31 90 -98c0 -66 -43 -97 -90 -97c-45 0 -89 31 -89 98s44 97 89 97z" glyph-name="degree.tosf"/><glyph d="M740 352l-340 321h-430c-30 0 -50 -20 -50 -50v-545c0 -30 20 -50 50 -50h430zM220 422l134 135l67 -69l-134 -133l134 -134l-67 -67l-134 134l-134 -134l-67 67l134 134l-134 133l67 69z" glyph-name="deleterightKey" unicode="⌦"/><glyph d="M318 749c-106 0 -187 -49 -187 -138c0 -54 25 -92 97 -129c-89 -35 -160 -118 -160 -239c0 -139 87 -254 235 -254s235 121 235 254c0 152 -66 218 -202 274c-87 36 -119 51 -119 97c0 45 37 71 96 71c45 0 82 -10 128 -45l42 49c-46 38 -94 60 -165 60zM291 454 c120 -50 157 -91 157 -211c0 -121 -53 -186 -145 -186c-91 0 -145 70 -145 185c0 101 37 169 133 212z" glyph-name="delta" unicode="δ"/><glyph d="M496 266l-196 273l-196 -273l196 -278z" glyph-name="diamond" unicode="♦"/><glyph d="M402 648c32 0 55 23 55 53c0 31 -23 54 -55 54c-30 0 -53 -23 -53 -54c0 -30 23 -53 53 -53zM196 648c30 0 54 23 54 53c0 31 -24 54 -54 54c-31 0 -54 -23 -54 -54c0 -30 23 -53 54 -53z" glyph-name="dieresis" unicode="¨"/><glyph d="M402 768c31 0 54 22 54 52c0 32 -23 54 -54 54s-54 -22 -54 -54c0 -30 23 -52 54 -52zM196 768c30 0 53 22 53 52c0 32 -23 54 -53 54c-31 0 -55 -22 -55 -54c0 -30 24 -52 55 -52z" glyph-name="dieresis.case"/><glyph d="M392 883l-96 17l-29 -176l65 -10zM411 720c-30 0 -54 -23 -54 -54s24 -53 54 -53c32 0 55 22 55 53s-23 54 -55 54zM187 720c-31 0 -55 -23 -55 -54s24 -53 55 -53s54 22 54 53s-23 54 -54 54z" glyph-name="dieresistonos" unicode="΅"/><glyph d="M300 574c-37 0 -67 -30 -67 -66c0 -38 30 -66 67 -66s67 28 67 66c0 36 -30 66 -67 66zM484 276v71h-368v-71h368zM300 183c-37 0 -67 -30 -67 -67s30 -67 67 -67s67 30 67 67s-30 67 -67 67z" glyph-name="divide" unicode="÷"/><glyph d="M300 574c-37 0 -67 -30 -67 -66c0 -38 30 -66 67 -66s67 28 67 66c0 36 -30 66 -67 66zM484 276v71h-368v-71h368zM300 183c-37 0 -67 -30 -67 -67s30 -67 67 -67s67 30 67 67s-30 67 -67 67z" glyph-name="divide.tosf"/><glyph d="M-282 237l30 -53l534 256l-29 53z" glyph-name="divisionslash" horiz-adv-x="0" unicode="∕"/><glyph d="M450 925h50v-75h-50v75zM350 925h50v-75h-50v75zM250 925h50v-75h-50v75zM150 925h50v-75h-50v75zM50 925h50v-75h-50v75zM450 775h50v-75h-50v75zM350 775h50v-75h-50v75zM250 775h50v-75h-50v75zM150 775h50v-75h-50v75zM50 775h50v-75h-50v75zM450 625h50v-75h-50v75z M350 625h50v-75h-50v75zM250 625h50v-75h-50v75zM150 625h50v-75h-50v75zM50 625h50v-75h-50v75zM450 475h50v-75h-50v75zM350 475h50v-75h-50v75zM250 475h50v-75h-50v75zM150 475h50v-75h-50v75zM50 475h50v-75h-50v75zM450 325h50v-75h-50v75zM350 325h50v-75h-50v75z M250 325h50v-75h-50v75zM150 325h50v-75h-50v75zM50 325h50v-75h-50v75zM450 175h50v-75h-50v75zM350 175h50v-75h-50v75zM250 175h50v-75h-50v75zM150 175h50v-75h-50v75zM50 175h50v-75h-50v75zM450 25h50v-75h-50v75zM350 25h50v-75h-50v75zM250 25h50v-75h-50v75z M150 25h50v-75h-50v75zM50 25h50v-75h-50v75zM450 -125h50v-75h-50v75zM350 -125h50v-75h-50v75zM250 -125h50v-75h-50v75zM150 -125h50v-75h-50v75zM50 -125h50v-75h-50v75zM450 -275h50v-75h-50v75zM350 -275h50v-75h-50v75zM250 -275h50v-75h-50v75zM150 -275h50v-75h-50 v75zM50 -275h50v-75h-50v75zM600 925v75h-600v-1500h50v75h50v-75h50v75h50v-75h50v75h50v-75h50v75h50v-75h50v75h50v-75h50v75h50v75h-50v75h50v75h-50v75h50v75h-50v75h50v75h-50v75h50v75h-50v75h50v75h-50v75h50v75h-50v75h50v75h-50v75h50v75h-50v75h50z" glyph-name="dkshade" unicode="▓"/><glyph d="M600 -500v750h-600v-750h600z" glyph-name="dnblock" unicode="▄"/><glyph d="M278 627v-205c-73 30 -94 60 -94 107c0 57 39 88 94 98zM346 64v251c76 -32 101 -70 101 -127c0 -70 -34 -110 -101 -124zM346 698v150h-68v-150c-123 -12 -183 -90 -183 -170c0 -93 67 -151 183 -190v-278c-66 5 -117 36 -159 79l-50 -55c45 -44 115 -88 209 -94v-143 h68v146c127 17 191 101 191 196c0 123 -92 179 -191 211v229c50 -7 94 -28 132 -64l51 53c-41 37 -104 72 -183 80z" glyph-name="dollar" unicode="$"/><glyph d="M278 627v-205c-73 30 -94 60 -94 107c0 57 39 88 94 98zM346 64v251c76 -32 101 -70 101 -127c0 -70 -34 -110 -101 -124zM346 698v150h-68v-150c-123 -12 -183 -90 -183 -170c0 -93 67 -151 183 -190v-278c-66 5 -117 36 -159 79l-50 -55c45 -44 115 -88 209 -94v-143 h68v146c127 17 191 101 191 196c0 123 -92 179 -191 211v229c50 -7 94 -28 132 -64l51 53c-41 37 -104 72 -183 80z" glyph-name="dollar.tosf"/><glyph d="M299 773c-36 0 -60 -26 -60 -59c0 -34 24 -59 60 -59c37 0 61 25 61 59c0 33 -24 59 -61 59z" glyph-name="dotaccent" unicode="˙"/><glyph d="M298 892c-35 0 -60 -25 -60 -58c0 -34 25 -60 60 -60c37 0 61 26 61 60c0 33 -24 58 -61 58z" glyph-name="dotaccent.case"/><glyph d="M367 66v460h-241v-65h158v-395h-163v-66h394v66h-148z" glyph-name="dotlessi" unicode="ı"/><glyph d="M166 234h354c1 11 2 27 2 45c0 160 -81 259 -217 259s-226 -116 -226 -275c0 -164 87 -274 241 -274c65 0 131 23 180 61l-39 57c-46 -37 -93 -49 -141 -49c-81 0 -150 53 -154 176zM306 469c83 0 134 -58 136 -171h-276c7 116 65 171 140 171z" glyph-name="e" unicode="e"/><glyph d="M380 785l-185 -115l28 -46l201 90zM166 234h354c1 11 2 27 2 45c0 160 -81 259 -217 259s-226 -116 -226 -275c0 -164 87 -274 241 -274c65 0 131 23 180 61l-39 57c-46 -37 -93 -49 -141 -49c-81 0 -150 53 -154 176zM306 469c83 0 134 -58 136 -171h-276 c7 116 65 171 140 171z" glyph-name="eacute" unicode="é"/><glyph d="M308 630c92 0 142 75 150 135l-57 13c-15 -50 -45 -84 -93 -84c-47 0 -76 34 -90 84l-57 -13c8 -60 56 -135 147 -135zM166 234h354c1 11 2 27 2 45c0 160 -81 259 -217 259s-226 -116 -226 -275c0 -164 87 -274 241 -274c65 0 131 23 180 61l-39 57 c-46 -37 -93 -49 -141 -49c-81 0 -150 53 -154 176zM306 469c83 0 134 -58 136 -171h-276c7 116 65 171 140 171z" glyph-name="ebreve" unicode="ĕ"/><glyph d="M473 748l-38 41l-124 -91l-124 91l-40 -41l136 -119h56zM166 234h354c1 11 2 27 2 45c0 160 -81 259 -217 259s-226 -116 -226 -275c0 -164 87 -274 241 -274c65 0 131 23 180 61l-39 57c-46 -37 -93 -49 -141 -49c-81 0 -150 53 -154 176zM306 469 c83 0 134 -58 136 -171h-276c7 116 65 171 140 171z" glyph-name="ecaron" unicode="ě"/><glyph d="M147 670l40 -41l124 91l124 -91l38 41l-134 119h-56zM166 234h354c1 11 2 27 2 45c0 160 -81 259 -217 259s-226 -116 -226 -275c0 -164 87 -274 241 -274c65 0 131 23 180 61l-39 57c-46 -37 -93 -49 -141 -49c-81 0 -150 53 -154 176zM306 469c83 0 134 -58 136 -171 h-276c7 116 65 171 140 171z" glyph-name="ecircumflex" unicode="ê"/><glyph d="M412 648c32 0 55 23 55 53c0 31 -23 54 -55 54c-30 0 -53 -23 -53 -54c0 -30 23 -53 53 -53zM206 648c30 0 54 23 54 53c0 31 -24 54 -54 54c-31 0 -54 -23 -54 -54c0 -30 23 -53 54 -53zM166 234h354c1 11 2 27 2 45c0 160 -81 259 -217 259s-226 -116 -226 -275 c0 -164 87 -274 241 -274c65 0 131 23 180 61l-39 57c-46 -37 -93 -49 -141 -49c-81 0 -150 53 -154 176zM306 469c83 0 134 -58 136 -171h-276c7 116 65 171 140 171z" glyph-name="edieresis" unicode="ë"/><glyph d="M309 773c-36 0 -60 -26 -60 -59c0 -34 24 -59 60 -59c37 0 61 25 61 59c0 33 -24 59 -61 59zM166 234h354c1 11 2 27 2 45c0 160 -81 259 -217 259s-226 -116 -226 -275c0 -164 87 -274 241 -274c65 0 131 23 180 61l-39 57c-46 -37 -93 -49 -141 -49 c-81 0 -150 53 -154 176zM306 469c83 0 134 -58 136 -171h-276c7 116 65 171 140 171z" glyph-name="edotaccent" unicode="ė"/><glyph d="M195 715l202 -91l27 46l-185 117zM166 234h354c1 11 2 27 2 45c0 160 -81 259 -217 259s-226 -116 -226 -275c0 -164 87 -274 241 -274c65 0 131 23 180 61l-39 57c-46 -37 -93 -49 -141 -49c-81 0 -150 53 -154 176zM306 469c83 0 134 -58 136 -171h-276 c7 116 65 171 140 171z" glyph-name="egrave" unicode="è"/><glyph d="M506 525c0 122 -106 175 -206 175c-90 0 -206 -54 -206 -180c0 -77 37 -123 110 -157c-84 -39 -138 -95 -138 -180c0 -109 85 -194 232 -194c145 0 236 83 236 196c0 84 -58 147 -147 184c76 42 119 88 119 156zM176 519c0 73 46 116 124 116c79 0 124 -44 124 -114 c0 -63 -32 -95 -96 -131c-94 30 -152 49 -152 129zM447 183c0 -72 -53 -127 -149 -127s-145 48 -145 127c0 87 51 130 108 156c109 -38 186 -63 186 -156z" glyph-name="eight" unicode="8"/><glyph d="M441 244c0 45 -53 83 -141 83c-81 0 -140 -36 -140 -85c0 -42 22 -63 62 -74c-51 -12 -80 -38 -80 -76c0 -58 57 -98 157 -98c98 0 159 40 159 100c0 42 -31 65 -87 82c39 4 70 23 70 68zM231 242c0 16 21 31 69 31c49 0 70 -16 70 -32c0 -23 -19 -32 -55 -43 c-62 11 -84 21 -84 44zM384 95c0 -23 -32 -42 -85 -42c-56 0 -83 16 -83 41c0 22 21 40 60 51c64 -11 108 -21 108 -50z" glyph-name="eight.dnom"/><glyph d="M441 612c0 45 -53 83 -141 83c-81 0 -140 -36 -140 -85c0 -42 22 -63 62 -74c-51 -12 -80 -38 -80 -76c0 -58 57 -98 157 -98c98 0 159 40 159 100c0 42 -31 65 -87 82c39 4 70 23 70 68zM231 610c0 16 21 31 69 31c49 0 70 -16 70 -32c0 -23 -19 -32 -55 -43 c-62 11 -84 21 -84 44zM384 463c0 -23 -32 -42 -85 -42c-56 0 -83 16 -83 41c0 22 21 40 60 51c64 -11 108 -21 108 -50z" glyph-name="eight.numr"/><glyph d="M506 525c0 120 -106 175 -206 175c-90 0 -206 -55 -206 -180c0 -77 39 -121 110 -157c-84 -39 -138 -95 -138 -180c0 -109 85 -194 232 -194c145 0 236 83 236 196c0 84 -58 147 -147 184c76 40 119 86 119 156zM176 519c0 73 46 116 124 116c79 0 124 -44 124 -114 c0 -63 -32 -95 -96 -131c-94 30 -152 49 -152 129zM447 183c0 -72 -53 -127 -149 -127s-145 48 -145 127c0 87 51 130 108 156c109 -38 186 -63 186 -156z" glyph-name="eight.tosf"/><glyph d="M441 51c0 45 -53 83 -141 83c-81 0 -140 -36 -140 -85c0 -42 22 -63 62 -74c-51 -12 -80 -38 -80 -76c0 -58 57 -98 157 -98c98 0 159 40 159 100c0 42 -31 65 -87 82c39 4 70 23 70 68zM231 49c0 16 21 31 69 31c49 0 70 -16 70 -32c0 -23 -19 -32 -55 -43 c-62 11 -84 21 -84 44zM384 -98c0 -23 -32 -42 -85 -42c-56 0 -83 16 -83 41c0 22 21 40 60 51c64 -11 108 -21 108 -50z" glyph-name="eightinferior" unicode="₈"/><glyph d="M441 559c0 45 -53 83 -141 83c-81 0 -140 -36 -140 -85c0 -42 22 -63 62 -74c-51 -12 -80 -38 -80 -76c0 -58 57 -98 157 -98c98 0 159 40 159 100c0 42 -31 65 -87 82c39 4 70 23 70 68zM231 557c0 16 21 31 69 31c49 0 70 -16 70 -32c0 -23 -19 -32 -55 -43 c-62 11 -84 21 -84 44zM384 410c0 -23 -32 -42 -85 -42c-56 0 -83 16 -83 41c0 22 21 40 60 51c64 -11 108 -21 108 -50z" glyph-name="eightsuperior" unicode="⁸"/><glyph d="M433 57c0 -38 29 -68 67 -68c39 0 68 30 68 68c0 37 -29 67 -68 67c-38 0 -67 -30 -67 -67zM232 57c0 -38 30 -68 68 -68s67 30 67 68c0 37 -29 67 -67 67s-68 -30 -68 -67zM32 57c0 -38 29 -68 67 -68c39 0 68 30 68 68c0 37 -29 67 -68 67c-38 0 -67 -30 -67 -67z" glyph-name="ellipsis" unicode="…"/><glyph d="M175 676h269v64h-269v-64zM166 234h354c1 11 2 27 2 45c0 160 -81 259 -217 259s-226 -116 -226 -275c0 -164 87 -274 241 -274c65 0 131 23 180 61l-39 57c-46 -37 -93 -49 -141 -49c-81 0 -150 53 -154 176zM306 469c83 0 134 -58 136 -171h-276c7 116 65 171 140 171z" glyph-name="emacron" unicode="ē"/><glyph d="M0 349v-72h600v72h-600z" glyph-name="emdash" unicode="—"/><glyph d="M0 389v-72h600v72h-600z" glyph-name="emdash.case"/><glyph d="M33 349v-72h534v72h-534z" glyph-name="endash" unicode="–"/><glyph d="M33 389v-72h534v72h-534z" glyph-name="endash.case"/><glyph d="M500 28v354c0 98 -45 156 -148 156c-62 0 -131 -31 -174 -85l-6 73h-71v-526h83v384c27 41 81 88 142 88c82 0 91 -44 91 -152v-297c0 -116 -33 -141 -102 -173l31 -61c103 47 154 90 154 239z" glyph-name="eng" unicode="ŋ"/><glyph d="M522 279c0 160 -81 259 -217 259s-226 -116 -226 -275c0 -157 80 -265 222 -273c-68 -28 -102 -70 -102 -121c0 -55 45 -98 121 -98c27 0 44 3 64 7l8 67c-25 -6 -41 -7 -62 -7c-41 0 -55 18 -55 47c0 36 21 69 124 115c37 10 72 28 101 50l-39 57 c-46 -37 -93 -49 -141 -49c-81 0 -150 53 -154 176h354c1 11 2 27 2 45zM442 298h-276c7 116 65 171 140 171c83 0 134 -58 136 -171z" glyph-name="eogonek" unicode="ę"/><glyph d="M301 241h90l10 68h-95c-71 0 -115 31 -115 80c0 56 47 82 128 82c53 0 109 -11 155 -39l42 52c-54 38 -134 54 -200 54c-116 0 -211 -48 -211 -141c0 -57 37 -100 110 -115c-84 -12 -132 -49 -132 -130c0 -105 98 -163 227 -163c102 0 185 32 236 70l-45 56 c-49 -34 -109 -58 -186 -58c-89 0 -142 39 -142 98c0 60 38 86 128 86z" glyph-name="epsilon" unicode="ε"/><glyph d="M318 806l-38 -205l63 -11l67 200zM301 241h90l10 68h-95c-71 0 -115 31 -115 80c0 56 47 82 128 82c53 0 109 -11 155 -39l42 52c-54 38 -134 54 -200 54c-116 0 -211 -48 -211 -141c0 -57 37 -100 110 -115c-84 -12 -132 -49 -132 -130c0 -105 98 -163 227 -163 c102 0 185 32 236 70l-45 56c-49 -34 -109 -58 -186 -58c-89 0 -142 39 -142 98c0 60 38 86 128 86z" glyph-name="epsilontonos" unicode="έ"/><glyph d="M494 370v72h-388v-72h388zM494 180v72h-388v-72h388z" glyph-name="equal" unicode="="/><glyph d="M416 195v62h-233v-62h233zM416 75v62h-233v-62h233z" glyph-name="equal.dnom"/><glyph d="M416 562v63h-233v-63h233zM416 442v63h-233v-63h233z" glyph-name="equal.numr"/><glyph d="M494 370v72h-388v-72h388zM494 180v72h-388v-72h388z" glyph-name="equal.tosf"/><glyph d="M416 510v62h-233v-62h233zM416 390v62h-233v-62h233z" glyph-name="equalsuperior" unicode="⁼"/><glyph d="M494 466v71h-388v-71h388zM494 276v72h-388v-72h388zM494 86v72h-388v-72h388z" glyph-name="equivalence" unicode="≡"/><glyph d="M302 701c-181 0 -260 -107 -281 -233v-254c24 -128 111 -226 283 -226c129 0 204 58 243 135h-49c-34 -61 -101 -97 -193 -97c-69 0 -119 18 -154 47v261h432v134c-21 126 -100 233 -281 233zM303 662c62 0 116 -18 147 -43v-246h-299v247c36 28 88 42 152 42z" glyph-name="estimated" unicode="℮"/><glyph d="M351 538c-62 0 -131 -31 -176 -88c-3 25 -14 70 -24 88l-78 -11c13 -43 27 -102 27 -173v-354h83v384c28 41 82 88 142 88c82 0 92 -44 92 -152v-532l83 10v584c0 98 -46 156 -149 156z" glyph-name="eta" unicode="η"/><glyph d="M300 806l-38 -205l63 -11l67 200zM351 538c-62 0 -131 -31 -176 -88c-3 25 -14 70 -24 88l-78 -11c13 -43 27 -102 27 -173v-354h83v384c28 41 82 88 142 88c82 0 92 -44 92 -152v-532l83 10v584c0 98 -46 156 -149 156z" glyph-name="etatonos" unicode="ή"/><glyph d="M251 647l-81 -85l59 -30l79 81c64 -47 112 -116 130 -201c-38 44 -90 69 -158 69c-114 0 -213 -98 -213 -246c0 -158 102 -246 228 -246c143 0 237 106 237 274c0 192 -54 320 -172 402l62 64l-51 44l-69 -74c-41 22 -91 37 -150 50l-18 -66c47 -9 84 -20 117 -36z M448 267c0 -139 -60 -211 -154 -211c-83 0 -142 64 -142 183c0 122 65 175 138 175c65 0 121 -28 155 -81c2 -21 3 -42 3 -66z" glyph-name="eth" unicode="ð"/><glyph d="M336 227l8 461h-93l10 -461h75zM299 122c-38 0 -66 -30 -66 -66c0 -38 28 -67 66 -67s67 29 67 67c0 36 -29 66 -67 66z" glyph-name="exclam" unicode="!"/><glyph d="M299 498c-38 0 -66 -29 -66 -67c0 -36 28 -66 66 -66c37 0 67 30 67 66c0 38 -30 67 -67 67zM347 -197l-12 458h-72l-12 -458h96z" glyph-name="exclamdown" unicode="¡"/><glyph d="M300 700c-38 0 -66 -30 -66 -67s28 -67 66 -67c37 0 67 30 67 67s-30 67 -67 67zM349 0l-13 458h-72l-12 -458h97z" glyph-name="exclamdown.case"/><glyph d="M411 749c-108 0 -191 -61 -191 -158v-105h-126v-66h126v-420h83v420h170l9 66h-179v107c0 59 37 88 111 88c40 0 79 -7 113 -23l27 62c-42 18 -86 29 -143 29z" glyph-name="f" unicode="f"/><glyph d="M299 539c-89 0 -160 -69 -160 -158c0 -81 59 -143 137 -154v-82h-96v-40h96v-105h48v105h96v40h-96v83c77 11 136 72 136 153c0 89 -72 158 -161 158zM299 493c64 0 110 -48 110 -112s-46 -111 -110 -111s-109 47 -109 111s45 112 109 112z" glyph-name="female" unicode="♀"/><glyph d="M314 0h272v66h-94v460h-297v67c0 59 37 88 113 88c40 0 79 -7 112 -23l28 62c-42 18 -86 29 -143 29c-108 0 -194 -61 -194 -158v-65h-91v-65h91v-461h84v461h213v-395h-94v-66z" glyph-name="fi" unicode="ﬁ"/><glyph d="M35 348v-72h530v72h-530z" glyph-name="figuredash" unicode="‒"/><glyph d="M35 348v-72h530v72h-530z" glyph-name="figuredash.tosf"/><glyph d="M570 0v540h-540v-540h540z" glyph-name="filledbox" unicode="■"/><glyph d="M570 0v270h-540v-270h540z" glyph-name="filledrect" unicode="▬"/><glyph d="M165 683h269v64h-269v-64z" glyph-name="firsttonechinese" unicode="ˉ"/><glyph d="M300 540c-150 0 -270 -121 -270 -270c0 -150 120 -270 270 -270c149 0 270 120 270 270c0 149 -121 270 -270 270zM300 460c104 0 190 -86 190 -190c0 -105 -86 -190 -190 -190c-105 0 -190 85 -190 190c0 104 85 190 190 190zM300 380c-61 0 -110 -50 -110 -110 c0 -61 49 -110 110 -110c60 0 110 49 110 110c0 60 -50 110 -110 110z" glyph-name="fisheye" unicode="◉"/><glyph d="M474 622l13 66h-364v-343h67c40 15 67 23 108 23c69 0 124 -36 124 -148c0 -107 -53 -163 -144 -163c-60 0 -107 21 -149 64l-51 -50c53 -52 116 -82 199 -82c141 0 232 91 232 229s-75 216 -188 216c-41 0 -77 -7 -119 -30v218h272z" glyph-name="five" unicode="5"/><glyph d="M444 109c0 69 -48 105 -117 105c-22 0 -50 -6 -70 -15v63h165l7 59h-243v-176h55c20 11 48 17 66 17c40 0 63 -17 63 -53c0 -37 -24 -58 -72 -58c-37 0 -70 13 -98 37l-44 -39c40 -40 91 -55 144 -55c82 0 144 38 144 115z" glyph-name="five.dnom"/><glyph d="M444 477c0 69 -48 105 -117 105c-22 0 -50 -6 -70 -15v63h165l7 59h-243v-176h55c20 11 48 17 66 17c40 0 63 -17 63 -53c0 -37 -24 -58 -72 -58c-37 0 -70 13 -98 37l-44 -39c40 -40 91 -55 144 -55c82 0 144 38 144 115z" glyph-name="five.numr"/><glyph d="M482 496l12 67h-365v-333h68c33 14 60 23 102 23c74 0 131 -36 131 -143c0 -102 -56 -157 -145 -157c-63 0 -107 20 -148 64l-51 -51c52 -51 111 -82 199 -82c139 0 232 91 232 224s-78 211 -195 211c-44 0 -77 -7 -113 -27v204h273z" glyph-name="five.tosf"/><glyph d="M-6 237l31 -53l534 256l-30 53zM287 477c0 69 -48 105 -117 105c-22 0 -50 -6 -70 -15v63h165l7 59h-243v-176h55c20 11 48 17 66 17c40 0 63 -17 63 -53c0 -37 -24 -58 -72 -58c-37 0 -70 13 -98 37l-44 -39c40 -40 91 -55 144 -55c82 0 144 38 144 115zM588 244 c0 45 -53 83 -141 83c-82 0 -140 -36 -140 -85c0 -42 22 -63 62 -74c-51 -12 -80 -38 -80 -76c0 -58 57 -98 157 -98c98 0 159 40 159 100c0 42 -31 65 -88 82c40 4 71 23 71 68zM378 242c0 16 21 31 69 31c49 0 70 -16 70 -32c0 -23 -19 -32 -55 -43c-62 11 -84 21 -84 44z M531 95c0 -23 -32 -42 -85 -42c-56 0 -83 16 -83 41c0 22 21 40 60 51c64 -11 108 -21 108 -50z" glyph-name="fiveeighths" unicode="⅝"/><glyph d="M444 -84c0 69 -48 105 -117 105c-22 0 -50 -6 -70 -15v63h165l7 59h-243v-176h55c20 11 48 17 66 17c40 0 63 -17 63 -53c0 -37 -24 -58 -72 -58c-37 0 -70 13 -98 37l-44 -39c40 -40 91 -55 144 -55c82 0 144 38 144 115z" glyph-name="fiveinferior" unicode="₅"/><glyph d="M444 424c0 69 -48 105 -117 105c-22 0 -50 -6 -70 -15v63h165l7 59h-243v-176h55c20 11 48 17 66 17c40 0 63 -17 63 -53c0 -37 -24 -58 -72 -58c-37 0 -70 13 -98 37l-44 -39c40 -40 91 -55 144 -55c82 0 144 38 144 115z" glyph-name="fivesuperior" unicode="⁵"/><glyph d="M601 10l-23 59c-19 -7 -34 -11 -54 -11c-32 0 -52 14 -52 62v627l-74 -16c-30 11 -60 18 -98 18c-109 0 -195 -61 -195 -158v-65h-91v-65h91v-461h84v461h117l11 65h-128v67c0 59 38 87 115 87c28 0 57 -3 85 -10v-553c0 -90 53 -128 123 -128c41 0 65 9 89 21z" glyph-name="fl" unicode="ﬂ"/><glyph d="M369 749c-103 0 -160 -62 -160 -148v-75h-84v-65h84v-438c0 -116 -32 -141 -101 -174l30 -60c108 49 153 93 153 250v422h119l10 65h-129v77c0 52 22 78 80 78c27 0 59 -5 92 -20l28 61c-42 18 -74 27 -122 27z" glyph-name="florin" unicode="ƒ"/><glyph d="M528 168v66h-89v196h-73l-7 -196h-199l184 436l-69 30l-203 -472v-60h286v-168h81v168h89z" glyph-name="four" unicode="4"/><glyph d="M397 0v56h56v59h-56v86h-66l-6 -86h-97l115 191l-61 25l-136 -227v-48h179v-56h72z" glyph-name="four.dnom"/><glyph d="M397 368v56h56v59h-56v86h-66l-6 -86h-97l115 191l-61 25l-136 -227v-48h179v-56h72z" glyph-name="four.numr"/><glyph d="M546 42v64h-100v185h-70l-7 -185h-218l184 438l-70 29l-202 -473v-58h305v-148h78v148h100z" glyph-name="four.tosf"/><glyph d="M397 -193v56h56v59h-56v86h-66l-6 -86h-97l115 191l-61 25l-136 -227v-48h179v-56h72z" glyph-name="fourinferior" unicode="₄"/><glyph d="M397 315v56h56v59h-56v86h-66l-6 -86h-97l115 191l-61 25l-136 -227v-48h179v-56h72z" glyph-name="foursuperior" unicode="⁴"/><glyph d="M-282 237l30 -53l534 256l-29 53z" glyph-name="fraction" horiz-adv-x="0" unicode="⁄"/><glyph d="M288 477c78 0 117 -42 117 -121c0 -78 -40 -124 -115 -124c-86 0 -126 51 -126 123c0 71 39 122 124 122zM554 503l-26 79c-61 -27 -107 -44 -239 -44c-125 0 -210 -76 -210 -183c0 -68 28 -114 88 -145c-38 -25 -58 -59 -58 -92c0 -52 41 -99 133 -99h94 c67 0 119 -26 119 -76c0 -58 -52 -87 -168 -87c-118 0 -146 29 -146 91h-75c0 -108 54 -159 222 -159c160 0 251 57 251 160c0 81 -80 143 -186 143h-95c-54 0 -70 19 -70 44c0 20 11 40 27 52c22 -7 43 -11 79 -11c124 0 198 75 198 180c0 60 -31 104 -92 132 c59 0 109 2 154 15z" glyph-name="g" unicode="g"/><glyph d="M557 519l-85 19l-168 -431c-40 188 -108 350 -176 430l-85 -30c82 -77 170 -301 214 -487c-29 -76 -28 -168 4 -232l67 11c-16 86 -17 149 12 218z" glyph-name="gamma" unicode="γ"/><glyph d="M300 630c92 0 142 75 150 135l-57 13c-15 -50 -45 -84 -93 -84c-47 0 -76 34 -90 84l-57 -13c8 -60 56 -135 147 -135zM288 477c78 0 117 -42 117 -121c0 -78 -40 -124 -115 -124c-86 0 -126 51 -126 123c0 71 39 122 124 122zM554 503l-26 79c-61 -27 -107 -44 -239 -44 c-125 0 -210 -76 -210 -183c0 -68 28 -114 88 -145c-38 -25 -58 -59 -58 -92c0 -52 41 -99 133 -99h94c67 0 119 -26 119 -76c0 -58 -52 -87 -168 -87c-118 0 -146 29 -146 91h-75c0 -108 54 -159 222 -159c160 0 251 57 251 160c0 81 -80 143 -186 143h-95 c-54 0 -70 19 -70 44c0 20 11 40 27 52c22 -7 43 -11 79 -11c124 0 198 75 198 180c0 60 -31 104 -92 132c59 0 109 2 154 15z" glyph-name="gbreve" unicode="ğ"/><glyph d="M139 670l40 -41l124 91l124 -91l38 41l-134 119h-56zM288 477c78 0 117 -42 117 -121c0 -78 -40 -124 -115 -124c-86 0 -126 51 -126 123c0 71 39 122 124 122zM554 503l-26 79c-61 -27 -107 -44 -239 -44c-125 0 -210 -76 -210 -183c0 -68 28 -114 88 -145 c-38 -25 -58 -59 -58 -92c0 -52 41 -99 133 -99h94c67 0 119 -26 119 -76c0 -58 -52 -87 -168 -87c-118 0 -146 29 -146 91h-75c0 -108 54 -159 222 -159c160 0 251 57 251 160c0 81 -80 143 -186 143h-95c-54 0 -70 19 -70 44c0 20 11 40 27 52c22 -7 43 -11 79 -11 c124 0 198 75 198 180c0 60 -31 104 -92 132c59 0 109 2 154 15z" glyph-name="gcircumflex" unicode="ĝ"/><glyph d="M299 597c30 0 54 22 54 53c0 17 -9 34 -22 44l29 118h-50l-50 -108c-11 -23 -15 -37 -15 -54c0 -31 23 -53 54 -53zM288 477c78 0 117 -42 117 -121c0 -78 -40 -124 -115 -124c-86 0 -126 51 -126 123c0 71 39 122 124 122zM554 503l-26 79c-61 -27 -107 -44 -239 -44 c-125 0 -210 -76 -210 -183c0 -68 28 -114 88 -145c-38 -25 -58 -59 -58 -92c0 -52 41 -99 133 -99h94c67 0 119 -26 119 -76c0 -58 -52 -87 -168 -87c-118 0 -146 29 -146 91h-75c0 -108 54 -159 222 -159c160 0 251 57 251 160c0 81 -80 143 -186 143h-95 c-54 0 -70 19 -70 44c0 20 11 40 27 52c22 -7 43 -11 79 -11c124 0 198 75 198 180c0 60 -31 104 -92 132c59 0 109 2 154 15z" glyph-name="gcommaaccent" unicode="ģ"/><glyph d="M301 773c-36 0 -60 -26 -60 -59c0 -34 24 -59 60 -59c37 0 61 25 61 59c0 33 -24 59 -61 59zM288 477c78 0 117 -42 117 -121c0 -78 -40 -124 -115 -124c-86 0 -126 51 -126 123c0 71 39 122 124 122zM554 503l-26 79c-61 -27 -107 -44 -239 -44 c-125 0 -210 -76 -210 -183c0 -68 28 -114 88 -145c-38 -25 -58 -59 -58 -92c0 -52 41 -99 133 -99h94c67 0 119 -26 119 -76c0 -58 -52 -87 -168 -87c-118 0 -146 29 -146 91h-75c0 -108 54 -159 222 -159c160 0 251 57 251 160c0 81 -80 143 -186 143h-95 c-54 0 -70 19 -70 44c0 20 11 40 27 52c22 -7 43 -11 79 -11c124 0 198 75 198 180c0 60 -31 104 -92 132c59 0 109 2 154 15z" glyph-name="gdotaccent" unicode="ġ"/><glyph d="M297 749c-125 0 -201 -74 -201 -216v-533h83v539c0 104 42 143 117 143c73 0 95 -48 95 -85c0 -74 -117 -83 -117 -178c0 -131 199 -128 199 -257c0 -71 -42 -106 -109 -106c-29 0 -63 10 -88 24l-34 -57c35 -22 76 -34 129 -34c101 0 187 62 187 178 c0 168 -202 174 -202 262c0 62 114 78 114 176c0 85 -71 144 -173 144z" glyph-name="germandbls" unicode="ß"/><glyph d="M185 715l202 -91l27 46l-185 117z" glyph-name="grave" unicode="`"/><glyph d="M415 800l-185 109l-46 -72l205 -81z" glyph-name="grave.case"/><glyph d="M415 627l-184 108l-46 -71l205 -82z" glyph-name="gravecomb" horiz-adv-x="0" unicode="̀"/><glyph d="M513 356l-384 238l-41 -63l354 -218l-354 -218l45 -62l380 238v85z" glyph-name="greater" unicode="&gt;"/><glyph d="M513 356l-384 238l-41 -63l354 -218l-354 -218l45 -62l380 238v85z" glyph-name="greater.tosf"/><glyph d="M492 385l-351 161l-34 -70l321 -137l-321 -130l34 -67l351 154v89zM493 0v73h-368v-73h368z" glyph-name="greaterequal" unicode="≥"/><glyph d="M492 385l-351 161l-34 -70l321 -137l-321 -130l34 -67l351 154v89zM493 0v73h-368v-73h368z" glyph-name="greaterequal.tosf"/><glyph d="M466 56l50 32l-135 206l135 206l-50 32l-177 -209v-60zM258 56l50 32l-135 206l135 206l-50 32l-175 -209v-60z" glyph-name="guillemotleft" unicode="«"/><glyph d="M466 101l50 32l-135 206l135 206l-50 32l-177 -209v-60zM258 101l50 32l-135 206l135 206l-50 32l-175 -209v-60z" glyph-name="guillemotleft.case"/><glyph d="M289 500l136 -206l-136 -206l50 -32l177 207v60l-177 209zM83 500l135 -206l-135 -206l50 -32l175 207v60l-175 209z" glyph-name="guillemotright" unicode="»"/><glyph d="M289 545l136 -206l-136 -206l50 -32l177 207v60l-177 209zM83 545l135 -206l-135 -206l50 -32l175 207v60l-175 209z" glyph-name="guillemotright.case"/><glyph d="M362 56l49 31l-134 207l134 207l-49 31l-173 -209v-60z" glyph-name="guilsinglleft" unicode="‹"/><glyph d="M362 101l49 31l-134 207l134 207l-49 31l-173 -209v-60z" glyph-name="guilsinglleft.case"/><glyph d="M189 501l134 -207l-134 -207l49 -31l173 207v60l-173 209z" glyph-name="guilsinglright" unicode="›"/><glyph d="M189 546l134 -207l-134 -207l49 -31l173 207v60l-173 209z" glyph-name="guilsinglright.case"/><glyph d="M184 454v293l-83 -10v-737h83v384c27 41 81 88 142 88c62 0 91 -28 91 -91v-381h83v382c0 98 -45 156 -148 156c-62 0 -127 -29 -168 -84z" glyph-name="h" unicode="h"/><glyph d="M352 538c-62 0 -127 -29 -168 -84v144h169v66h-169v83l-83 -10v-73h-82v-66h82v-598h83v384c27 41 81 88 142 88c62 0 91 -28 91 -91v-381h83v382c0 98 -45 156 -148 156z" glyph-name="hbar" unicode="ħ"/><glyph d="M463 853l-134 107h-56l-136 -107l38 -43l125 81l126 -81zM184 454v293l-83 -10v-737h83v384c27 41 81 88 142 88c62 0 91 -28 91 -91v-381h83v382c0 98 -45 156 -148 156c-62 0 -127 -29 -168 -84z" glyph-name="hcircumflex" unicode="ĥ"/><glyph d="M434 539c-69 0 -104 -37 -134 -102c-30 65 -65 102 -134 102c-73 0 -116 -57 -116 -124c0 -118 110 -249 250 -415c140 166 250 298 250 415c0 67 -43 124 -116 124z" glyph-name="heart" unicode="♥"/><glyph d="M560 308l-261 231l-259 -231v-308h520v308zM110 277l189 171l191 -171v-212h-380v212z" glyph-name="house" unicode="⌂"/><glyph d="M389 835l-87 -173l52 -28l108 163zM215 835l-77 -173l54 -26l97 164z" glyph-name="hungarumlaut" unicode="˝"/><glyph d="M389 955l-88 -174l53 -27l108 162zM214 955l-77 -174l55 -25l96 163z" glyph-name="hungarumlaut.case"/><glyph d="M125 349v-72h350v72h-350z" glyph-name="hyphen" unicode="-"/><glyph d="M125 389v-72h350v72h-350z" glyph-name="hyphen.case"/><glyph d="M300 773c-35 0 -60 -26 -60 -59c0 -34 25 -59 60 -59c37 0 61 25 61 59c0 33 -24 59 -61 59zM367 66v460h-241v-65h158v-395h-163v-66h394v66h-148z" glyph-name="i" unicode="i"/><glyph d="M300 773c-36 0 -60 -26 -60 -59c0 -34 24 -59 60 -59c37 0 61 25 61 59c0 33 -24 59 -61 59zM367 66v460h-241v-65h158v-395h-163v-66h394v66h-148z" glyph-name="i.loclTRK"/><glyph d="M371 785l-185 -115l28 -46l201 90zM367 66v460h-241v-65h158v-395h-163v-66h394v66h-148z" glyph-name="iacute" unicode="í"/><glyph d="M299 630c92 0 142 75 150 135l-57 13c-15 -50 -45 -84 -93 -84c-47 0 -76 34 -90 84l-57 -13c8 -60 56 -135 147 -135zM367 66v460h-241v-65h158v-395h-163v-66h394v66h-148z" glyph-name="ibreve" unicode="ĭ"/><glyph d="M138 670l40 -41l124 91l124 -91l38 41l-134 119h-56zM367 66v460h-241v-65h158v-395h-163v-66h394v66h-148z" glyph-name="icircumflex" unicode="î"/><glyph d="M403 648c32 0 55 23 55 53c0 31 -23 54 -55 54c-30 0 -53 -23 -53 -54c0 -30 23 -53 53 -53zM197 648c30 0 54 23 54 53c0 31 -24 54 -54 54c-31 0 -54 -23 -54 -54c0 -30 23 -53 54 -53zM367 66v460h-241v-65h158v-395h-163v-66h394v66h-148z" glyph-name="idieresis" unicode="ï"/><glyph d="M186 715l202 -91l27 46l-185 117zM367 66v460h-241v-65h158v-395h-163v-66h394v66h-148z" glyph-name="igrave" unicode="ì"/><glyph d="M448 773c-36 0 -60 -26 -60 -59c0 -34 24 -59 60 -59s61 25 61 59c0 33 -25 59 -61 59zM184 773c-35 0 -60 -26 -60 -59c0 -34 25 -59 60 -59c36 0 61 25 61 59c0 33 -25 59 -61 59zM500 54v472h-446v-63h89v-397h-94v-66h270v66h-97v397h197v-414 c0 -111 -104 -159 -199 -196l25 -65c140 46 255 121 255 266z" glyph-name="ij" unicode="ĳ"/><glyph d="M166 676h269v64h-269v-64zM367 66v460h-241v-65h158v-395h-163v-66h394v66h-148z" glyph-name="imacron" unicode="ī"/><glyph d="M453 512c-78 0 -120 -59 -155 -131c-39 87 -83 131 -155 131c-107 0 -149 -85 -149 -196c0 -110 41 -197 152 -197c78 0 121 58 155 131c37 -87 83 -131 155 -131c107 0 149 85 149 196c0 110 -41 197 -152 197zM148 445c63 0 91 -72 114 -120 c-28 -68 -56 -138 -114 -138c-48 0 -72 42 -72 129c0 88 25 129 72 129zM451 443c48 0 71 -41 71 -128c0 -88 -24 -129 -71 -129c-63 0 -91 72 -114 120c27 68 56 137 114 137z" glyph-name="infinity" unicode="∞"/><glyph d="M453 552c-78 0 -120 -59 -155 -131c-39 87 -83 131 -155 131c-107 0 -149 -85 -149 -196c0 -110 41 -197 152 -197c78 0 121 58 155 131c37 -87 83 -131 155 -131c107 0 149 85 149 196c0 110 -41 197 -152 197zM148 485c63 0 91 -72 114 -120 c-28 -68 -56 -138 -114 -138c-48 0 -72 42 -72 129c0 88 25 129 72 129zM451 483c48 0 71 -41 71 -128c0 -88 -24 -129 -71 -129c-63 0 -91 72 -114 120c27 68 56 137 114 137z" glyph-name="infinity.case"/><glyph d="M453 512c-78 0 -120 -59 -155 -131c-39 87 -83 131 -155 131c-107 0 -149 -85 -149 -196c0 -110 41 -197 152 -197c78 0 121 58 155 131c37 -87 83 -131 155 -131c107 0 149 85 149 196c0 110 -41 197 -152 197zM148 445c63 0 91 -72 114 -120 c-28 -68 -56 -138 -114 -138c-48 0 -72 42 -72 129c0 88 25 129 72 129zM451 443c48 0 71 -41 71 -128c0 -88 -24 -129 -71 -129c-63 0 -91 72 -114 120c27 68 56 137 114 137z" glyph-name="infinity.tosf"/><glyph d="M400 851c-91 0 -148 -47 -148 -146v-778c0 -44 -22 -70 -64 -70c-27 0 -50 4 -83 19l-27 -62c40 -17 66 -26 115 -26c87 0 139 45 139 138v779c0 49 16 77 72 77c29 0 57 -4 91 -20l27 62c-42 19 -73 27 -122 27z" glyph-name="integral" unicode="∫"/><glyph d="M400 851c-91 0 -148 -47 -148 -146v-778c0 -44 -22 -70 -64 -70c-27 0 -50 4 -83 19l-27 -62c40 -17 66 -26 115 -26c87 0 139 45 139 138v779c0 49 16 77 72 77c29 0 57 -4 91 -20l27 62c-42 19 -73 27 -122 27z" glyph-name="integral.tosf"/><glyph d="M332 -74v1074h-80v-1073c0 -44 -22 -70 -64 -70c-27 0 -50 4 -83 19l-27 -62c40 -17 66 -26 115 -26c87 0 139 45 139 138z" glyph-name="integralbt" unicode="⌡"/><glyph d="M400 851c-91 0 -148 -47 -148 -146v-1205h80v1205c0 49 16 77 72 77c29 0 57 -4 91 -20l27 62c-42 19 -73 27 -122 27z" glyph-name="integraltp" unicode="⌠"/><glyph d="M300 574c-125 0 -226 -101 -226 -226v-305h72v305c0 84 70 154 154 154s154 -70 154 -154v-305h72v305c0 125 -101 226 -226 226z" glyph-name="intersection" unicode="∩"/><glyph d="M570 0v540h-540v-540h540zM300 500c126 0 230 -104 230 -230c0 -127 -104 -230 -230 -230c-127 0 -230 103 -230 230c0 126 103 230 230 230zM300 420c-83 0 -150 -68 -150 -150c0 -83 67 -150 150 -150c82 0 150 67 150 150c0 82 -68 150 -150 150z" glyph-name="invcircle" unicode="◙"/><glyph d="M300 539c-150 0 -270 -120 -270 -269c0 -150 120 -270 270 -270c149 0 270 120 270 270c0 149 -121 269 -270 269zM383 396c28 0 48 -20 48 -45c0 -27 -20 -47 -48 -47s-48 20 -48 47c0 25 20 45 48 45zM213 396c28 0 48 -20 48 -45c0 -27 -20 -47 -48 -47s-48 20 -48 47 c0 25 20 45 48 45zM404 235h43c-9 -73 -68 -133 -147 -133s-138 60 -147 133h43c13 -52 47 -89 104 -89s91 37 104 89z" glyph-name="invsmileface" unicode="☻"/><glyph d="M300 655c37 0 61 25 61 59c0 33 -24 59 -61 59c-36 0 -60 -26 -60 -59c0 -34 24 -59 60 -59zM515 66h-148v460h-241v-65h158v-395h-163v-66h151c-73 -34 -105 -78 -105 -131c0 -55 45 -98 121 -98c27 0 44 3 64 7l8 67c-25 -6 -41 -7 -62 -7c-41 0 -55 18 -55 47 c0 36 21 69 124 115h148v66z" glyph-name="iogonek" unicode="į"/><glyph d="M63 456h178v-317c0 -95 62 -150 156 -150c48 0 101 13 125 27l-22 60c-29 -11 -61 -18 -89 -18c-51 0 -87 19 -87 72v396h-251z" glyph-name="iota" unicode="ι"/><glyph d="M386 648c32 0 55 23 55 53c0 31 -23 54 -55 54c-30 0 -53 -23 -53 -54c0 -30 23 -53 53 -53zM180 648c30 0 54 23 54 53c0 31 -24 54 -54 54c-31 0 -54 -23 -54 -54c0 -30 23 -53 54 -53zM63 456h178v-317c0 -95 62 -150 156 -150c48 0 101 13 125 27l-22 60 c-29 -11 -61 -18 -89 -18c-51 0 -87 19 -87 72v396h-251z" glyph-name="iotadieresis" unicode="ϊ"/><glyph d="M365 883l-96 17l-29 -176l65 -10zM384 720c-30 0 -54 -23 -54 -54s24 -53 54 -53c32 0 55 22 55 53s-23 54 -55 54zM160 720c-31 0 -55 -23 -55 -54s24 -53 55 -53s54 22 54 53s-23 54 -54 54zM63 456h178v-317c0 -95 62 -150 156 -150c48 0 101 13 125 27l-22 60 c-29 -11 -61 -18 -89 -18c-51 0 -87 19 -87 72v396h-251z" glyph-name="iotadieresistonos" unicode="ΐ"/><glyph d="M286 806l-38 -205l63 -11l67 200zM63 456h178v-317c0 -95 62 -150 156 -150c48 0 101 13 125 27l-22 60c-29 -11 -61 -18 -89 -18c-51 0 -87 19 -87 72v396h-251z" glyph-name="iotatonos" unicode="ί"/><glyph d="M352 652c57 0 91 41 111 85l-54 24c-16 -28 -29 -44 -51 -44c-31 0 -50 48 -109 48c-57 0 -91 -39 -111 -84l54 -24c16 28 29 44 51 44c31 0 52 -49 109 -49zM367 66v460h-241v-65h158v-395h-163v-66h394v66h-148z" glyph-name="itilde" unicode="ĩ"/><glyph d="M367 773c-36 0 -60 -26 -60 -59c0 -34 24 -59 60 -59s61 25 61 59c0 33 -25 59 -61 59zM445 83v443h-303v-65h220v-383c0 -141 -110 -200 -266 -226l14 -64c211 36 335 120 335 295z" glyph-name="j" unicode="j"/><glyph d="M205 670l40 -41l124 91l124 -91l38 41l-134 119h-56zM445 83v443h-303v-65h220v-383c0 -141 -110 -200 -266 -226l14 -64c211 36 335 120 335 295z" glyph-name="jcircumflex" unicode="ĵ"/><glyph d="M445 83v443h-303v-65h220v-383c0 -141 -110 -200 -266 -226l14 -64c211 36 335 120 335 295z" glyph-name="jdotless" unicode="ȷ"/><glyph d="M189 0v749l-83 -10v-739h83zM303 289l238 237h-108l-234 -238l260 -288h110z" glyph-name="k" unicode="k"/><glyph d="M527 489l-70 49l-257 -255l198 -216c40 -42 76 -70 133 -78l29 68c-41 9 -68 27 -111 72l-148 156zM169 526h-82c16 -59 26 -117 26 -186v-340h83v325c0 59 -4 137 -27 201z" glyph-name="kappa" unicode="κ"/><glyph d="M189 0v749l-83 -10v-739h83zM303 289l238 237h-108l-234 -238l260 -288h110zM309 -71c-30 0 -54 -22 -54 -53c0 -17 9 -34 22 -44l-29 -118h50l50 108c11 23 15 37 15 54c0 31 -23 53 -54 53z" glyph-name="kcommaaccent" unicode="ķ"/><glyph d="M296 288l239 238h-108l-234 -243l260 -283h110zM184 0v526h-83v-526h83z" glyph-name="kgreenlandic" unicode="ĸ"/><glyph d="M305 129v610h-245v-66h162v-539c0 -91 64 -145 156 -145c54 0 97 12 125 27l-22 60c-29 -11 -57 -18 -89 -18c-51 0 -87 19 -87 71z" glyph-name="l" unicode="l"/><glyph d="M335 997l-185 -115l28 -46l201 90zM305 129v610h-245v-66h162v-539c0 -91 64 -145 156 -145c54 0 97 12 125 27l-22 60c-29 -11 -57 -18 -89 -18c-51 0 -87 19 -87 71z" glyph-name="lacute" unicode="ĺ"/><glyph d="M277 526h-34l-194 -521l79 -17l169 474c46 -227 102 -382 176 -473l85 32c-81 80 -130 242 -187 478c-38 161 -102 229 -257 252l-13 -66c109 -17 148 -64 176 -159z" glyph-name="lambda" unicode="λ"/><glyph d="M300 540c-150 0 -270 -121 -270 -270c0 -150 120 -270 270 -270c149 0 270 120 270 270c0 149 -121 270 -270 270zM300 460c104 0 190 -86 190 -190c0 -105 -86 -190 -190 -190c-105 0 -190 85 -190 190c0 104 85 190 190 190z" glyph-name="largeCircle" unicode="◯"/><glyph d="M456 738l-75 9l-25 -179l47 -7zM305 129v610h-245v-66h162v-539c0 -91 64 -145 156 -145c54 0 97 12 125 27l-22 60c-29 -11 -57 -18 -89 -18c-51 0 -87 19 -87 71z" glyph-name="lcaron" unicode="ľ"/><glyph d="M305 129v610h-245v-66h162v-539c0 -91 64 -145 156 -145c54 0 97 12 125 27l-22 60c-29 -11 -57 -18 -89 -18c-51 0 -87 19 -87 71zM364 -71c-30 0 -54 -22 -54 -53c0 -17 9 -34 22 -44l-29 -118h50l50 108c11 23 15 37 15 54c0 31 -23 53 -54 53z" glyph-name="lcommaaccent" unicode="ļ"/><glyph d="M305 129v610h-245v-66h162v-539c0 -91 64 -145 156 -145c54 0 97 12 125 27l-22 60c-29 -11 -57 -18 -89 -18c-51 0 -87 19 -87 71zM560 441c-36 0 -60 -26 -60 -59c0 -34 24 -59 60 -59c37 0 61 25 61 59c0 33 -24 59 -61 59z" glyph-name="ldot" unicode="ŀ"/><glyph d="M513 530l-41 64l-384 -238v-85l380 -238l45 61l-354 219z" glyph-name="less" unicode="&lt;"/><glyph d="M513 530l-41 64l-384 -238v-85l380 -238l45 61l-354 219z" glyph-name="less.tosf"/><glyph d="M492 478l-34 68l-351 -161v-89l351 -154l34 70l-321 127zM474 0v73h-368v-73h368z" glyph-name="lessequal" unicode="≤"/><glyph d="M492 478l-34 68l-351 -161v-89l351 -154l34 70l-321 127zM474 0v73h-368v-73h368z" glyph-name="lessequal.tosf"/><glyph d="M300 -500v1500h-300v-1500h300z" glyph-name="lfblock" unicode="▌"/><glyph d="M484 135v212h-368v-71h292v-141h76z" glyph-name="logicalnot" unicode="¬"/><glyph d="M484 135v212h-368v-71h292v-141h76z" glyph-name="logicalnot.tosf"/><glyph d="M533 345l-185 343h-97l-184 -344l184 -344h97zM298 624h4l143 -280l-143 -280h-4l-143 280z" glyph-name="lozenge" unicode="◊"/><glyph d="M533 345l-185 343h-97l-184 -344l184 -344h97zM298 624h4l143 -280l-143 -280h-4l-143 280z" glyph-name="lozenge.tosf"/><glyph d="M503 16l-22 60c-29 -11 -57 -18 -89 -18c-51 0 -87 19 -87 71v228l125 78l-35 54l-90 -56v306h-245v-66h162v-292l-103 -62l35 -54l68 41v-172c0 -91 64 -145 156 -145c54 0 97 12 125 27z" glyph-name="lslash" unicode="ł"/><glyph d="M600 850v75h-50v-75h50zM500 850v75h-50v-75h50zM400 850v75h-50v-75h50zM300 850v75h-50v-75h50zM200 850v75h-50v-75h50zM100 850v75h-50v-75h50zM600 700v75h-50v-75h50zM500 700v75h-50v-75h50zM400 700v75h-50v-75h50zM300 700v75h-50v-75h50zM200 700v75h-50v-75 h50zM100 700v75h-50v-75h50zM600 550v75h-50v-75h50zM500 550v75h-50v-75h50zM400 550v75h-50v-75h50zM300 550v75h-50v-75h50zM200 550v75h-50v-75h50zM100 550v75h-50v-75h50zM600 400v75h-50v-75h50zM500 400v75h-50v-75h50zM400 400v75h-50v-75h50zM300 400v75h-50v-75 h50zM200 400v75h-50v-75h50zM100 400v75h-50v-75h50zM600 250v75h-50v-75h50zM500 250v75h-50v-75h50zM400 250v75h-50v-75h50zM300 250v75h-50v-75h50zM200 250v75h-50v-75h50zM100 250v75h-50v-75h50zM600 100v75h-50v-75h50zM500 100v75h-50v-75h50zM400 100v75h-50v-75 h50zM300 100v75h-50v-75h50zM200 100v75h-50v-75h50zM100 100v75h-50v-75h50zM600 -50v75h-50v-75h50zM500 -50v75h-50v-75h50zM400 -50v75h-50v-75h50zM300 -50v75h-50v-75h50zM200 -50v75h-50v-75h50zM100 -50v75h-50v-75h50zM600 -200v75h-50v-75h50zM500 -200v75h-50 v-75h50zM400 -200v75h-50v-75h50zM300 -200v75h-50v-75h50zM200 -200v75h-50v-75h50zM100 -200v75h-50v-75h50zM600 -350v75h-50v-75h50zM500 -350v75h-50v-75h50zM400 -350v75h-50v-75h50zM300 -350v75h-50v-75h50zM200 -350v75h-50v-75h50zM100 -350v75h-50v-75h50z M600 -500v75h-50v-75h50zM500 -500v75h-50v-75h50zM400 -500v75h-50v-75h50zM300 -500v75h-50v-75h50zM200 -500v75h-50v-75h50zM100 -500v75h-50v-75h50z" glyph-name="ltshade" unicode="░"/><glyph d="M447 538c-54 0 -87 -29 -116 -70c-16 54 -55 70 -95 70c-53 0 -86 -32 -115 -73l-5 61h-65v-526h77v409c29 45 59 64 92 64c38 0 41 -28 41 -95v-378h78v409c29 45 61 64 92 64c38 0 41 -28 41 -95v-378h77v392c0 121 -52 146 -102 146z" glyph-name="m" unicode="m"/><glyph d="M165 676h269v64h-269v-64z" glyph-name="macron" unicode="¯"/><glyph d="M164 796h269v63h-269v-63z" glyph-name="macron.case"/><glyph d="M529 476l-214 11l-4 -42l100 -4c18 -1 31 -1 47 0l1 -2l-152 -151c-25 15 -55 25 -87 25c-89 0 -160 -69 -160 -158s71 -155 160 -155s161 66 161 155c0 39 -14 74 -37 102l148 151l2 -1c-3 -16 -4 -31 -3 -48l5 -99l44 2zM220 267c64 0 110 -48 110 -112 s-46 -111 -110 -111s-109 47 -109 111s45 112 109 112z" glyph-name="male" unicode="♂"/><glyph d="M484 275v75h-368v-75h368z" glyph-name="minus" unicode="−"/><glyph d="M416 133v62h-232v-62h232z" glyph-name="minus.dnom"/><glyph d="M416 500v62h-232v-62h232z" glyph-name="minus.numr"/><glyph d="M484 275v75h-368v-75h368z" glyph-name="minus.tosf"/><glyph d="M483 167v359h-83v-384c-30 -42 -76 -80 -139 -80c-81 0 -89 64 -89 169v295h-83v-738l83 10v154c0 21 -4 51 -9 87c26 -37 50 -51 104 -51c53 0 110 34 141 85c3 -25 14 -67 25 -85l78 12c-13 40 -28 98 -28 167z" glyph-name="mu" unicode="μ"/><glyph d="M475 430l-52 53l-123 -124l-123 124l-52 -53l123 -123l-123 -123l52 -52l123 123l123 -123l52 52l-123 123z" glyph-name="multiply" unicode="×"/><glyph d="M475 430l-52 53l-123 -124l-123 124l-52 -53l123 -123l-123 -123l52 -52l123 123l123 -123l52 52l-123 123z" glyph-name="multiply.tosf"/><glyph d="M385 496l-47 31h-48v-392c-15 8 -33 13 -56 13c-70 0 -125 -40 -125 -90c0 -46 40 -70 105 -70c73 0 124 50 124 90v382l23 -15c45 -29 58 -59 58 -138l29 -12c10 21 18 48 18 78c0 53 -21 83 -81 123z" glyph-name="musicalnote" unicode="♪"/><glyph d="M536 128v449l-331 -86v-356c-15 8 -33 13 -56 13c-70 0 -125 -40 -125 -90c0 -46 40 -70 105 -70c73 0 124 50 124 90v359l235 59v-311c-15 8 -33 13 -56 13c-70 0 -125 -40 -125 -90c0 -46 40 -70 105 -70c73 0 124 50 124 90z" glyph-name="musicalnotedbl" unicode="♫"/><glyph d="M101 526v-526h83v384c27 41 80 88 143 88c80 0 90 -44 90 -152v-320h83v382c0 98 -45 156 -148 156c-62 0 -131 -31 -174 -85l-6 73h-71z" glyph-name="n" unicode="n"/><glyph d="M370 787l-185 -115l28 -46l201 90zM101 526v-526h83v384c27 41 80 88 143 88c80 0 90 -44 90 -152v-320h83v382c0 98 -45 156 -148 156c-62 0 -131 -31 -174 -85l-6 73h-71z" glyph-name="nacute" unicode="ń"/><glyph d="M419 730l-65 42l-105 -168l41 -26zM101 526v-526h83v384c27 41 80 88 143 88c80 0 90 -44 90 -152v-320h83v382c0 98 -45 156 -148 156c-62 0 -131 -31 -174 -85l-6 73h-71z" glyph-name="nacute.loclPLK"/><glyph d="M98 749c-31 0 -56 -23 -56 -53c0 -18 10 -33 23 -45l-30 -121h49l42 89c22 46 26 60 26 76c0 31 -24 54 -54 54zM109 526v-526h83v384c28 41 81 88 143 88c80 0 91 -44 91 -152v-320h83v382c0 98 -45 156 -148 156c-62 0 -132 -31 -174 -85l-7 73h-71z" glyph-name="napostrophe" unicode="ŉ"/><glyph d="M463 750l-38 41l-124 -91l-124 91l-40 -41l136 -119h56zM101 526v-526h83v384c27 41 80 88 143 88c80 0 90 -44 90 -152v-320h83v382c0 98 -45 156 -148 156c-62 0 -131 -31 -174 -85l-6 73h-71z" glyph-name="ncaron" unicode="ň"/><glyph d="M101 526v-526h83v384c27 41 80 88 143 88c80 0 90 -44 90 -152v-320h83v382c0 98 -45 156 -148 156c-62 0 -131 -31 -174 -85l-6 73h-71zM304 -71c-30 0 -54 -22 -54 -53c0 -17 9 -34 22 -44l-29 -118h50l50 108c11 23 15 37 15 54c0 31 -23 53 -54 53z" glyph-name="ncommaaccent" unicode="ņ"/><glyph d="M289 699c-123 0 -222 -79 -222 -227c0 -137 82 -221 197 -219c76 1 132 40 162 85c-2 -168 -114 -246 -298 -296l19 -63c257 73 366 159 366 454c0 164 -71 266 -224 266zM279 319c-79 -1 -126 45 -126 150c0 106 46 162 136 162c96 0 141 -54 139 -217 c-37 -57 -83 -94 -149 -95z" glyph-name="nine" unicode="9"/><glyph d="M184 51l18 -56c171 18 253 72 253 195c0 85 -57 137 -156 137c-81 0 -152 -41 -152 -112c0 -69 59 -101 126 -101c45 0 75 15 109 33c-25 -60 -83 -81 -198 -96zM292 168c-43 0 -71 14 -71 48c0 33 30 52 77 52c54 0 83 -26 84 -77c-26 -13 -58 -23 -90 -23z" glyph-name="nine.dnom"/><glyph d="M184 419l18 -56c171 18 253 72 253 195c0 85 -57 137 -156 137c-81 0 -152 -41 -152 -112c0 -69 59 -101 126 -101c45 0 75 15 109 33c-25 -60 -83 -81 -198 -96zM292 536c-43 0 -71 14 -71 48c0 33 30 52 77 52c54 0 83 -26 84 -77c-26 -13 -58 -23 -90 -23z" glyph-name="nine.numr"/><glyph d="M289 573c-123 0 -222 -84 -222 -216c0 -127 82 -217 198 -216c75 1 132 34 161 85v-10c-1 -131 -112 -223 -298 -273l19 -63c257 73 366 169 366 426c0 165 -71 267 -224 267zM280 208c-80 -1 -127 52 -127 146c0 90 46 151 136 151c93 0 138 -51 139 -205 c-37 -65 -83 -91 -148 -92z" glyph-name="nine.tosf"/><glyph d="M184 -142l18 -56c171 18 253 72 253 195c0 85 -57 137 -156 137c-81 0 -152 -41 -152 -112c0 -69 59 -101 126 -101c45 0 75 15 109 33c-25 -60 -83 -81 -198 -96zM292 -25c-43 0 -71 14 -71 48c0 33 30 52 77 52c54 0 83 -26 84 -77c-26 -13 -58 -23 -90 -23z" glyph-name="nineinferior" unicode="₉"/><glyph d="M184 366l18 -56c171 18 253 72 253 195c0 85 -57 137 -156 137c-81 0 -152 -41 -152 -112c0 -69 59 -101 126 -101c45 0 75 15 109 33c-25 -60 -83 -81 -198 -96zM292 483c-43 0 -71 14 -71 48c0 33 30 52 77 52c54 0 83 -26 84 -77c-26 -13 -58 -23 -90 -23z" glyph-name="ninesuperior" unicode="⁹"/><glyph d="M364 370h130v72h-87l75 127l-46 25l-90 -152h-240v-72h197l-70 -118h-127v-72h84l-74 -125l47 -26l89 151h242v72h-199z" glyph-name="notequal" unicode="≠"/><glyph d="M364 370h130v72h-87l75 127l-46 25l-90 -152h-240v-72h197l-70 -118h-127v-72h84l-74 -125l47 -26l89 151h242v72h-199z" glyph-name="notequal.tosf"/><glyph d="M332 723c-32 0 -71 -15 -98 -37l-3 30h-63v-338h71v241c17 23 47 47 76 47c41 0 47 -24 47 -84v-204h71v242c0 65 -30 103 -101 103z" glyph-name="nsuperior" unicode="ⁿ"/><glyph d="M351 654c57 0 91 41 111 85l-54 24c-16 -28 -29 -44 -51 -44c-31 0 -50 48 -109 48c-57 0 -91 -39 -111 -84l54 -24c16 28 29 44 51 44c31 0 52 -49 109 -49zM101 526v-526h83v384c27 41 80 88 143 88c80 0 90 -44 90 -152v-320h83v382c0 98 -45 156 -148 156 c-62 0 -131 -31 -174 -85l-6 73h-71z" glyph-name="ntilde" unicode="ñ"/><glyph d="M237 0h102l208 519l-84 19l-169 -464c-41 187 -100 373 -178 463l-84 -31c84 -75 161 -318 205 -506z" glyph-name="nu" unicode="ν"/><glyph d="M358 234h-146l29 222h147zM428 234l30 222h89v65h-81l24 167h-71l-22 -167h-148l24 167h-71l-22 -167h-90v-65h81l-30 -222h-88v-64h80l-23 -170h71l22 170h146l-22 -170h71l21 170h91v64h-82z" glyph-name="numbersign" unicode="#"/><glyph d="M358 234h-146l29 222h147zM428 234l30 222h89v65h-81l24 167h-71l-22 -167h-148l24 167h-71l-22 -167h-90v-65h81l-30 -222h-88v-64h80l-23 -170h71l22 170h146l-22 -170h71l21 170h91v64h-82z" glyph-name="numbersign.tosf"/><glyph d="M301 538c-148 0 -227 -113 -227 -275c0 -166 78 -274 226 -274c147 0 226 114 226 275c0 166 -77 274 -225 274zM301 470c90 0 136 -66 136 -206c0 -141 -46 -207 -137 -207s-137 66 -137 206c0 141 47 207 138 207z" glyph-name="o" unicode="o"/><glyph d="M370 785l-185 -115l28 -46l201 90zM301 538c-148 0 -227 -113 -227 -275c0 -166 78 -274 226 -274c147 0 226 114 226 275c0 166 -77 274 -225 274zM301 470c90 0 136 -66 136 -206c0 -141 -46 -207 -137 -207s-137 66 -137 206c0 141 47 207 138 207z" glyph-name="oacute" unicode="ó"/><glyph d="M420 728l-65 42l-105 -168l41 -26zM301 538c-148 0 -227 -113 -227 -275c0 -166 78 -274 226 -274c147 0 226 114 226 275c0 166 -77 274 -225 274zM301 470c90 0 136 -66 136 -206c0 -141 -46 -207 -137 -207s-137 66 -137 206c0 141 47 207 138 207z" glyph-name="oacute.loclPLK"/><glyph d="M298 630c92 0 142 75 150 135l-57 13c-15 -50 -45 -84 -93 -84c-47 0 -76 34 -90 84l-57 -13c8 -60 56 -135 147 -135zM301 538c-148 0 -227 -113 -227 -275c0 -166 78 -274 226 -274c147 0 226 114 226 275c0 166 -77 274 -225 274zM301 470c90 0 136 -66 136 -206 c0 -141 -46 -207 -137 -207s-137 66 -137 206c0 141 47 207 138 207z" glyph-name="obreve" unicode="ŏ"/><glyph d="M137 670l40 -41l124 91l124 -91l38 41l-134 119h-56zM301 538c-148 0 -227 -113 -227 -275c0 -166 78 -274 226 -274c147 0 226 114 226 275c0 166 -77 274 -225 274zM301 470c90 0 136 -66 136 -206c0 -141 -46 -207 -137 -207s-137 66 -137 206c0 141 47 207 138 207z" glyph-name="ocircumflex" unicode="ô"/><glyph d="M402 648c32 0 55 23 55 53c0 31 -23 54 -55 54c-30 0 -53 -23 -53 -54c0 -30 23 -53 53 -53zM196 648c30 0 54 23 54 53c0 31 -24 54 -54 54c-31 0 -54 -23 -54 -54c0 -30 23 -53 54 -53zM301 538c-148 0 -227 -113 -227 -275c0 -166 78 -274 226 -274 c147 0 226 114 226 275c0 166 -77 274 -225 274zM301 470c90 0 136 -66 136 -206c0 -141 -46 -207 -137 -207s-137 66 -137 206c0 141 47 207 138 207z" glyph-name="odieresis" unicode="ö"/><glyph d="M449 538c-75 0 -116 -45 -139 -104c-23 62 -60 104 -143 104c-119 0 -169 -113 -169 -275c0 -166 52 -274 169 -274c79 0 117 41 142 101c26 -64 76 -101 150 -101c55 0 96 20 136 52l-39 57c-33 -25 -58 -39 -96 -39c-70 0 -101 54 -110 174h263c1 12 2 28 2 46 c0 161 -49 259 -166 259zM177 471c65 0 89 -67 89 -207c0 -151 -23 -207 -89 -207c-65 0 -90 61 -90 206c0 140 25 208 90 208zM447 468c65 0 84 -59 87 -170h-184c8 126 36 170 97 170z" glyph-name="oe" unicode="œ"/><glyph d="M402 0l-14 30c-130 -38 -186 -91 -186 -161c0 -55 45 -98 121 -98c27 0 44 3 64 7l8 67c-25 -6 -41 -7 -62 -7c-41 0 -55 18 -55 47c0 36 21 69 124 115z" glyph-name="ogonek" unicode="˛"/><glyph d="M185 715l202 -91l27 46l-185 117zM301 538c-148 0 -227 -113 -227 -275c0 -166 78 -274 226 -274c147 0 226 114 226 275c0 166 -77 274 -225 274zM301 470c90 0 136 -66 136 -206c0 -141 -46 -207 -137 -207s-137 66 -137 206c0 141 47 207 138 207z" glyph-name="ograve" unicode="ò"/><glyph d="M428 835l-87 -173l52 -28l108 163zM254 835l-77 -173l54 -26l97 164zM301 538c-148 0 -227 -113 -227 -275c0 -166 78 -274 226 -274c147 0 226 114 226 275c0 166 -77 274 -225 274zM301 470c90 0 136 -66 136 -206c0 -141 -46 -207 -137 -207s-137 66 -137 206 c0 141 47 207 138 207z" glyph-name="ohungarumlaut" unicode="ő"/><glyph d="M165 676h269v64h-269v-64zM301 538c-148 0 -227 -113 -227 -275c0 -166 78 -274 226 -274c147 0 226 114 226 275c0 166 -77 274 -225 274zM301 470c90 0 136 -66 136 -206c0 -141 -46 -207 -137 -207s-137 66 -137 206c0 141 47 207 138 207z" glyph-name="omacron" unicode="ō"/><glyph d="M523 526h-76c36 -114 44 -192 44 -266c0 -128 -16 -203 -77 -203c-59 0 -74 71 -74 173v138l-80 -11v-126c0 -90 -15 -174 -75 -174c-61 0 -76 75 -76 203c0 74 5 153 41 266h-74c-26 -65 -50 -162 -50 -287c0 -161 49 -250 151 -250c65 0 107 42 122 116 c10 -77 53 -116 122 -116c101 0 153 95 153 250c0 125 -26 221 -51 287z" glyph-name="omega" unicode="ω"/><glyph d="M302 806l-38 -205l63 -11l67 200zM523 526h-76c36 -114 44 -192 44 -266c0 -128 -16 -203 -77 -203c-59 0 -74 71 -74 173v138l-80 -11v-126c0 -90 -15 -174 -75 -174c-61 0 -76 75 -76 203c0 74 5 153 41 266h-74c-26 -65 -50 -162 -50 -287c0 -161 49 -250 151 -250 c65 0 107 42 122 116c10 -77 53 -116 122 -116c101 0 153 95 153 250c0 125 -26 221 -51 287z" glyph-name="omegatonos" unicode="ώ"/><glyph d="M301 538c-148 0 -227 -113 -227 -275c0 -166 78 -274 226 -274c147 0 226 114 226 275c0 166 -77 274 -225 274zM301 470c90 0 136 -66 136 -206c0 -141 -46 -207 -137 -207s-137 66 -137 206c0 141 47 207 138 207z" glyph-name="omicron" unicode="ο"/><glyph d="M302 806l-38 -205l63 -11l67 200zM301 538c-148 0 -227 -113 -227 -275c0 -166 78 -274 226 -274c147 0 226 114 226 275c0 166 -77 274 -225 274zM301 470c90 0 136 -66 136 -206c0 -141 -46 -207 -137 -207s-137 66 -137 206c0 141 47 207 138 207z" glyph-name="omicrontonos" unicode="ό"/><glyph d="M517 68h-144v620h-73l-204 -126l36 -59l158 95v-530h-170v-68h397v68z" glyph-name="one" unicode="1"/><glyph d="M331 239v-239h69v321h-56l-144 -85l35 -49z" glyph-name="one.dnom"/><glyph d="M331 607v-239h69v321h-56l-144 -85l35 -49z" glyph-name="one.numr"/><glyph d="M528 0v68h-143v495h-73l-206 -128l37 -59l158 97v-405h-170v-68h170v-2h84v2h143z" glyph-name="one.tosf"/><glyph d="M120 607v-239h69v321h-56l-144 -85l35 -49zM-2 237l30 -53l534 256l-29 53zM595 244c0 45 -53 83 -141 83c-81 0 -140 -36 -140 -85c0 -42 22 -63 62 -74c-50 -12 -80 -38 -80 -76c0 -58 57 -98 157 -98c98 0 159 40 159 100c0 42 -31 65 -87 82c39 4 70 23 70 68z M385 242c0 16 21 31 69 31c49 0 70 -16 70 -32c0 -23 -19 -32 -55 -43c-62 11 -84 21 -84 44zM538 95c0 -23 -32 -42 -85 -42c-56 0 -83 16 -83 41c0 22 21 40 60 51c64 -11 108 -21 108 -50z" glyph-name="oneeighth" unicode="⅛"/><glyph d="M148 607v-239h69v321h-56l-144 -85l35 -49zM19 237l30 -53l534 256l-29 53z" glyph-name="onefraction" unicode="⅟"/><glyph d="M127 607v-239h69v321h-56l-144 -85l35 -49zM10 237l31 -53l534 256l-30 53zM594 221c0 63 -47 106 -133 106c-56 0 -108 -24 -148 -71l51 -38c30 36 62 49 95 49c38 0 60 -19 60 -49c0 -44 -41 -68 -200 -166v-52h277l8 60h-179c126 63 169 97 169 161z" glyph-name="onehalf" unicode="½"/><glyph d="M365 46v-239h69v321h-56l-144 -85l35 -49z" glyph-name="oneinferior" unicode="₁"/><glyph d="M130 607v-239h69v321h-56l-144 -85l35 -49zM14 237l31 -53l534 256l-30 53zM546 0v56h55v59h-55v86h-67l-6 -86h-97l115 191l-60 25l-136 -227v-48h178v-56h73z" glyph-name="onequarter" unicode="¼"/><glyph d="M365 554v-239h69v321h-56l-144 -85l35 -49z" glyph-name="onesuperior" unicode="¹"/><glyph d="M290 749c-45 0 -97 -8 -155 -30l22 -58c49 17 94 24 122 24c62 0 99 -22 99 -78v-31h-59c-135 0 -217 -48 -217 -136c0 -80 61 -133 152 -133c51 0 101 21 134 59c14 -37 42 -54 83 -59l18 54c-22 7 -33 20 -33 50v198c0 87 -54 140 -166 140zM320 521h58v-99 c-26 -34 -65 -56 -105 -56c-55 0 -87 26 -87 77c0 50 40 78 134 78zM498 0v75h-392v-75h392z" glyph-name="ordfeminine" unicode="ª"/><glyph d="M300 749c-123 0 -204 -90 -204 -220c0 -134 80 -222 204 -222c123 0 203 91 203 222c0 134 -79 220 -203 220zM300 685c74 0 119 -50 119 -156c0 -108 -45 -158 -119 -158s-121 50 -121 158c0 106 47 156 121 156zM497 0v75h-393v-75h393z" glyph-name="ordmasculine" unicode="º"/><glyph d="M301 469c12 0 23 -1 33 -3l-118 -382c-35 30 -53 87 -53 179c0 140 47 206 138 206zM300 57c-12 0 -23 1 -33 3l118 381c34 -30 52 -86 52 -177c0 -141 -46 -207 -137 -207zM417 508l41 126l-70 20l-38 -121c-16 3 -32 5 -49 5c-148 0 -227 -113 -227 -275 c0 -115 40 -201 111 -244l-42 -129l70 -20l37 124c16 -3 32 -5 50 -5c147 0 226 114 226 275c0 114 -39 201 -109 244z" glyph-name="oslash" unicode="ø"/><glyph d="M213 624l201 90l-44 71l-185 -115zM301 469c12 0 23 -1 33 -3l-118 -382c-35 30 -53 87 -53 179c0 140 47 206 138 206zM300 57c-12 0 -23 1 -33 3l118 381c34 -30 52 -86 52 -177c0 -141 -46 -207 -137 -207zM417 508l41 126l-70 20l-38 -121c-16 3 -32 5 -49 5 c-148 0 -227 -113 -227 -275c0 -115 40 -201 111 -244l-42 -129l70 -20l37 124c16 -3 32 -5 50 -5c147 0 226 114 226 275c0 114 -39 201 -109 244z" glyph-name="oslashacute" unicode="ǿ"/><glyph d="M351 652c57 0 91 41 111 85l-54 24c-16 -28 -29 -44 -51 -44c-31 0 -50 48 -109 48c-57 0 -91 -39 -111 -84l54 -24c16 28 29 44 51 44c31 0 52 -49 109 -49zM301 538c-148 0 -227 -113 -227 -275c0 -166 78 -274 226 -274c147 0 226 114 226 275c0 166 -77 274 -225 274 zM301 470c90 0 136 -66 136 -206c0 -141 -46 -207 -137 -207s-137 66 -137 206c0 141 47 207 138 207z" glyph-name="otilde" unicode="õ"/><glyph d="M316 471c83 0 121 -69 121 -207c0 -141 -44 -206 -132 -206c-50 0 -94 25 -121 66v262c28 42 73 85 132 85zM336 538c-64 0 -119 -31 -158 -85l-7 73h-70v-738l83 10v251c35 -40 82 -60 139 -60c137 0 203 115 203 275c0 165 -50 274 -190 274z" glyph-name="p" unicode="p"/><glyph d="M556 -201v889h-259c-167 0 -254 -88 -254 -201c0 -109 83 -198 248 -198v-501l76 11v820h113v-831z" glyph-name="paragraph" unicode="¶"/><glyph d="M212 350c0 210 70 317 214 444l-43 46c-163 -133 -258 -262 -258 -490s95 -357 258 -490l43 46c-143 126 -214 235 -214 444z" glyph-name="parenleft" unicode="("/><glyph d="M212 340c0 210 70 317 214 444l-43 46c-163 -133 -258 -262 -258 -490s95 -357 258 -490l43 46c-143 126 -214 235 -214 444z" glyph-name="parenleft.case"/><glyph d="M292 159c0 107 23 156 79 240l-47 27c-60 -80 -103 -144 -103 -267c0 -122 43 -185 103 -265l47 26c-56 84 -79 134 -79 239z" glyph-name="parenleft.dnom"/><glyph d="M299 529c0 106 23 156 78 240l-46 26c-60 -79 -103 -143 -103 -266c0 -122 43 -186 103 -266l46 27c-55 84 -78 133 -78 239z" glyph-name="parenleft.numr"/><glyph d="M299 474c0 107 23 156 78 240l-46 27c-60 -80 -103 -144 -103 -267c0 -122 43 -185 103 -265l46 26c-55 84 -78 134 -78 239z" glyph-name="parenleftsuperior" unicode="⁽"/><glyph d="M388 350c0 -209 -71 -318 -214 -444l43 -46c163 133 258 262 258 490s-95 357 -258 490l-43 -46c144 -127 214 -234 214 -444z" glyph-name="parenright" unicode=")"/><glyph d="M388 340c0 -209 -71 -318 -214 -444l43 -46c163 133 258 262 258 490s-95 357 -258 490l-43 -46c144 -127 214 -234 214 -444z" glyph-name="parenright.case"/><glyph d="M307 159c0 -105 -23 -155 -79 -239l47 -26c60 80 103 143 103 265c0 123 -43 187 -103 267l-47 -27c56 -84 79 -133 79 -240z" glyph-name="parenright.dnom"/><glyph d="M301 529c0 -106 -23 -155 -78 -239l46 -26c60 79 103 143 103 265c0 123 -43 187 -103 267l-46 -27c55 -84 78 -134 78 -240z" glyph-name="parenright.numr"/><glyph d="M301 474c0 -105 -23 -155 -78 -239l46 -26c60 80 103 143 103 265c0 123 -43 187 -103 267l-46 -27c55 -84 78 -133 78 -240z" glyph-name="parenrightsuperior" unicode="⁾"/><glyph d="M165 696l-20 -63c170 -46 272 -142 279 -283c-31 45 -80 79 -145 79c-105 0 -189 -88 -189 -220c0 -139 96 -220 209 -220c131 0 212 113 212 269c0 260 -104 371 -346 438zM289 363c55 0 96 -27 139 -86v-24c-1 -132 -50 -197 -132 -197c-73 0 -122 61 -122 158 c0 96 50 149 115 149z" glyph-name="partialdiff" unicode="∂"/><glyph d="M165 696l-20 -63c170 -46 272 -142 279 -283c-31 45 -80 79 -145 79c-105 0 -189 -88 -189 -220c0 -139 96 -220 209 -220c131 0 212 113 212 269c0 260 -104 371 -346 438zM289 363c55 0 96 -27 139 -86v-24c-1 -132 -50 -197 -132 -197c-73 0 -122 61 -122 158 c0 96 50 149 115 149z" glyph-name="partialdiff.tosf"/><glyph d="M559 672l-53 35l-474 -692l52 -35zM166 700c-93 0 -147 -74 -147 -161c0 -85 54 -161 147 -161c94 0 147 76 147 161c0 86 -53 161 -147 161zM166 640c40 0 70 -28 70 -101c0 -71 -30 -103 -70 -103c-41 0 -70 38 -70 103c0 69 31 101 70 101zM436 316 c-94 0 -148 -74 -148 -160c0 -85 54 -162 148 -162c93 0 146 77 146 162c0 86 -53 160 -146 160zM436 256c40 0 69 -28 69 -100s-29 -103 -69 -103c-41 0 -71 38 -71 103c0 70 31 100 71 100z" glyph-name="percent" unicode="%"/><glyph d="M559 672l-53 35l-474 -692l52 -35zM166 700c-93 0 -147 -74 -147 -161c0 -85 54 -161 147 -161c94 0 147 76 147 161c0 86 -53 161 -147 161zM166 640c40 0 70 -28 70 -101c0 -71 -30 -103 -70 -103c-41 0 -70 38 -70 103c0 69 31 101 70 101zM436 316 c-94 0 -148 -74 -148 -160c0 -85 54 -162 148 -162c93 0 146 77 146 162c0 86 -53 160 -146 160zM436 256c40 0 69 -28 69 -100s-29 -103 -69 -103c-41 0 -71 38 -71 103c0 70 31 100 71 100z" glyph-name="percent.tosf"/><glyph d="M212 77c0 -50 37 -88 87 -88c51 0 88 38 88 88c0 48 -37 87 -88 87c-50 0 -87 -39 -87 -87z" glyph-name="period" unicode="."/><glyph d="M212 342c0 -50 37 -88 87 -88c51 0 88 38 88 88c0 49 -37 87 -88 87c-50 0 -87 -38 -87 -87z" glyph-name="periodcentered" unicode="·"/><glyph d="M176 700c-75 0 -131 -52 -131 -135c0 -85 56 -136 131 -136c73 0 129 51 129 136c0 82 -56 135 -129 135zM176 649c53 0 63 -42 63 -84c0 -45 -10 -88 -63 -88c-54 0 -63 45 -63 88s9 84 63 84zM575 472l-24 57l-532 -210l25 -56zM452 258c-75 0 -131 -52 -131 -135 c0 -85 56 -135 131 -135c73 0 129 50 129 135c0 82 -56 135 -129 135zM175 258c-75 0 -130 -52 -130 -135c0 -85 55 -135 130 -135c74 0 130 50 130 135c0 82 -56 135 -130 135zM452 207c52 0 63 -42 63 -84c0 -45 -11 -88 -63 -88c-54 0 -64 45 -64 88s10 84 64 84z M175 207c54 0 63 -42 63 -84c0 -45 -9 -88 -63 -88c-53 0 -63 45 -63 88s10 84 63 84z" glyph-name="perthousand" unicode="‰"/><glyph d="M176 700c-75 0 -131 -52 -131 -135c0 -85 56 -136 131 -136c73 0 129 51 129 136c0 82 -56 135 -129 135zM176 649c53 0 63 -42 63 -84c0 -45 -10 -88 -63 -88c-54 0 -63 45 -63 88s9 84 63 84zM575 472l-24 57l-532 -210l25 -56zM452 258c-75 0 -131 -52 -131 -135 c0 -85 56 -135 131 -135c73 0 129 50 129 135c0 82 -56 135 -129 135zM175 258c-75 0 -130 -52 -130 -135c0 -85 55 -135 130 -135c74 0 130 50 130 135c0 82 -56 135 -130 135zM452 207c52 0 63 -42 63 -84c0 -45 -11 -88 -63 -88c-54 0 -64 45 -64 88s10 84 64 84z M175 207c54 0 63 -42 63 -84c0 -45 -9 -88 -63 -88c-53 0 -63 45 -63 88s10 84 63 84z" glyph-name="perthousand.tosf"/><glyph d="M402 538c-112 0 -150 -83 -150 -220v-262c-106 13 -135 82 -135 204c0 74 18 155 56 266h-84c-27 -71 -55 -165 -55 -287c0 -150 69 -236 218 -249v-202l79 11v191c143 13 235 92 235 278c0 180 -50 270 -164 270zM401 472c62 0 80 -61 80 -204 c0 -133 -36 -201 -150 -214v247c0 91 1 171 70 171z" glyph-name="phi" unicode="φ"/><glyph d="M474 457h84v69h-421c-58 0 -97 -1 -131 -17l19 -64c32 9 41 11 89 12v-457h84v457h192v-331c0 -81 28 -118 104 -137l30 68c-37 8 -50 26 -50 79v321z" glyph-name="pi" unicode="π"/><glyph d="M338 346v149h-78v-149h-144v-70h144v-148h78v148h146v70h-146z" glyph-name="plus" unicode="+"/><glyph d="M333 197v90h-65v-90h-86v-62h86v-89h65v89h85v62h-85z" glyph-name="plus.dnom"/><glyph d="M333 564v91h-65v-91h-86v-61h86v-89h65v89h85v61h-85z" glyph-name="plus.numr"/><glyph d="M338 346v149h-78v-149h-144v-70h144v-148h78v148h146v70h-146z" glyph-name="plus.tosf"/><glyph d="M340 388v149h-80v-149h-144v-70h144v-155h80v155h144v70h-144zM484 0v72h-368v-72h368z" glyph-name="plusminus" unicode="±"/><glyph d="M340 388v149h-80v-149h-144v-70h144v-155h80v155h144v70h-144zM484 0v72h-368v-72h368z" glyph-name="plusminus.tosf"/><glyph d="M333 512v90h-65v-90h-86v-62h86v-89h65v89h85v62h-85z" glyph-name="plussuperior" unicode="⁺"/><glyph d="M573 618v70h-546v-70h89v-830l82 10v820h205v-830l83 10v820h87z" glyph-name="product" unicode="∏"/><glyph d="M573 618v70h-546v-70h89v-830l82 10v820h205v-830l83 10v820h87z" glyph-name="product.tosf"/><glyph d="M340 63v463h-78v-463c-103 11 -137 54 -137 137v326h-83v-333c0 -101 65 -188 220 -199v-206l78 10v196c160 13 229 111 229 260c0 104 -10 185 -26 272h-85c18 -97 27 -191 27 -264c0 -118 -23 -186 -145 -199z" glyph-name="psi" unicode="ψ"/><glyph d="M274 538c-130 0 -200 -117 -200 -276c0 -165 52 -273 194 -273c57 0 109 24 148 78v-269l83 -10v738h-71l-7 -57c-35 44 -83 69 -147 69zM295 471c50 0 94 -26 121 -68v-264c-28 -43 -72 -81 -131 -81c-82 0 -122 68 -122 205c0 139 44 208 132 208z" glyph-name="q" unicode="q"/><glyph d="M299 700c-80 0 -151 -31 -209 -99l59 -44c42 51 95 73 142 73c68 0 119 -32 119 -90c0 -113 -178 -112 -178 -274v-39h84v34c0 147 180 125 180 284c0 79 -74 155 -197 155zM277 122c-38 0 -66 -30 -66 -66c0 -38 28 -67 66 -67s67 29 67 67c0 36 -29 66 -67 66z" glyph-name="question" unicode="?"/><glyph d="M324 498c-38 0 -66 -29 -66 -67c0 -36 28 -66 66 -66c37 0 67 30 67 66c0 38 -30 67 -67 67zM369 222v39h-83v-35c0 -146 -181 -124 -181 -283c0 -79 75 -155 197 -155c80 0 151 31 210 99l-59 44c-42 -51 -95 -73 -142 -73c-68 0 -119 32 -119 90c0 113 177 112 177 274 z" glyph-name="questiondown" unicode="¿"/><glyph d="M324 700c-38 0 -66 -30 -66 -67s28 -67 66 -67c37 0 67 30 67 67s-30 67 -67 67zM369 422v39h-83v-35c0 -145 -181 -123 -181 -283c0 -79 75 -154 197 -154c80 0 153 30 211 98l-59 45c-42 -52 -96 -74 -144 -74c-67 0 -118 32 -118 90c0 114 177 112 177 274z" glyph-name="questiondown.case"/><glyph d="M331 739l16 -260h73l16 260h-105zM164 739l16 -260h73l16 260h-105z" glyph-name="quotedbl" unicode="&quot;"/><glyph d="M339 56c0 -22 10 -43 26 -54l-40 -184h65l82 173c14 30 17 47 17 65c0 41 -33 73 -75 73c-40 0 -75 -32 -75 -73zM124 56c0 -22 10 -43 26 -54l-40 -184h65l82 173c15 32 18 47 18 65c0 41 -34 73 -75 73s-76 -32 -76 -73z" glyph-name="quotedblbase" unicode="„"/><glyph d="M476 551c0 22 -10 43 -26 54l40 184h-65l-82 -173c-15 -32 -17 -49 -17 -65c0 -41 33 -73 74 -73s76 32 76 73zM260 551c0 22 -10 43 -26 54l40 184h-66l-81 -173c-15 -32 -17 -49 -17 -65c0 -41 32 -73 75 -73c41 0 75 32 75 73z" glyph-name="quotedblleft" unicode="“"/><glyph d="M339 715c0 -23 10 -43 26 -55l-40 -183h65l82 173c15 32 18 46 18 65c0 41 -34 73 -76 73c-40 0 -75 -32 -75 -73zM123 715c0 -23 10 -43 25 -55l-39 -183h65l81 173c15 32 19 46 19 65c0 41 -34 73 -76 73c-40 0 -75 -32 -75 -73z" glyph-name="quotedblright" unicode="”"/><glyph d="M368 551c0 22 -10 43 -26 54l40 184h-65l-82 -173c-15 -32 -17 -49 -17 -65c0 -41 33 -73 74 -73c42 0 76 32 76 73z" glyph-name="quoteleft" unicode="‘"/><glyph d="M231 716c0 -23 10 -43 26 -54l-40 -184h65l82 173c15 32 18 46 18 65c0 41 -34 73 -75 73s-76 -32 -76 -73z" glyph-name="quoteright" unicode="’"/><glyph d="M231 56c0 -22 10 -43 26 -54l-40 -184h65l82 173c15 32 18 47 18 65c0 41 -34 73 -76 73c-40 0 -75 -32 -75 -73z" glyph-name="quotesinglbase" unicode="‚"/><glyph d="M248 739l15 -260h74l15 260h-104z" glyph-name="quotesingle" unicode="'"/><glyph d="M94 0h354v66h-148v249c18 73 73 142 144 142c22 0 38 -3 61 -9l15 82c-25 6 -43 8 -69 8c-63 0 -121 -38 -152 -113l-10 101h-195v-65h123v-395h-123v-66z" glyph-name="r" unicode="r"/><glyph d="M379 785l-185 -115l28 -46l201 90zM94 0h354v66h-148v249c18 73 73 142 144 142c22 0 38 -3 61 -9l15 82c-25 6 -43 8 -69 8c-63 0 -121 -38 -152 -113l-10 101h-195v-65h123v-395h-123v-66z" glyph-name="racute" unicode="ŕ"/><glyph d="M694 795v71h-241l-212 -777l-139 392l-72 -25l167 -456h93l221 795h183z" glyph-name="radical" unicode="√"/><glyph d="M694 795v71h-241l-212 -777l-139 392l-72 -25l167 -456h93l221 795h183z" glyph-name="radical.tosf"/><glyph d="M472 748l-38 41l-124 -91l-124 91l-40 -41l136 -119h56zM94 0h354v66h-148v249c18 73 73 142 144 142c22 0 38 -3 61 -9l15 82c-25 6 -43 8 -69 8c-63 0 -121 -38 -152 -113l-10 101h-195v-65h123v-395h-123v-66z" glyph-name="rcaron" unicode="ř"/><glyph d="M94 0h354v66h-148v249c18 73 73 142 144 142c22 0 38 -3 61 -9l15 82c-25 6 -43 8 -69 8c-63 0 -121 -38 -152 -113l-10 101h-195v-65h123v-395h-123v-66zM261 -71c-30 0 -54 -22 -54 -53c0 -17 9 -34 22 -44l-29 -118h50l50 108c11 23 15 37 15 54c0 31 -23 53 -54 53z" glyph-name="rcommaaccent" unicode="ŗ"/><glyph d="M300 747c-140 0 -253 -115 -253 -255s113 -253 253 -253s252 113 252 253s-112 255 -252 255zM300 700c115 0 200 -93 200 -208s-85 -206 -200 -206s-201 91 -201 206s86 208 201 208zM257 592h30c44 0 63 -14 63 -41c0 -33 -22 -45 -61 -45h-32v86zM286 636h-85v-282h56 v109h29l75 -109h66l-86 118c39 11 67 37 67 80c0 55 -40 84 -122 84z" glyph-name="registered" unicode="®"/><glyph d="M484 276v71h-368v-212h76v141h292z" glyph-name="revlogicalnot" unicode="⌐"/><glyph d="M304 472c88 0 130 -69 130 -208c0 -133 -47 -206 -135 -206c-50 0 -94 24 -122 66v133c0 137 32 215 127 215zM306 538c-138 0 -212 -93 -212 -268v-482l83 10v251c36 -40 83 -60 141 -60c139 0 206 127 206 275c0 174 -65 274 -218 274z" glyph-name="rho" unicode="ρ"/><glyph d="M300 823c-64 0 -111 -45 -111 -103c0 -56 47 -101 111 -101s111 45 111 101c0 58 -47 103 -111 103zM300 777c34 0 54 -21 54 -57c0 -35 -20 -56 -54 -56c-33 0 -54 21 -54 56c0 36 21 57 54 57z" glyph-name="ring" unicode="˚"/><glyph d="M299 942c-64 0 -110 -45 -110 -102s46 -102 110 -102c65 0 111 45 111 102s-46 102 -111 102zM299 897c34 0 55 -22 55 -57s-21 -57 -55 -57c-32 0 -54 22 -54 57s22 57 54 57z" glyph-name="ring.case"/><glyph d="M600 -500v1500h-300v-1500h300z" glyph-name="rtblock" unicode="▐"/><glyph d="M280 57c-62 0 -118 23 -159 57l-47 -54c45 -39 110 -71 205 -71c113 0 222 44 222 156c0 99 -68 135 -171 163c-107 29 -140 45 -140 93c0 40 31 69 115 69c68 0 113 -20 152 -47l37 56c-44 33 -106 59 -191 59c-118 0 -199 -56 -199 -144c0 -92 70 -124 180 -151 c111 -28 127 -54 127 -102c0 -51 -50 -84 -131 -84z" glyph-name="s" unicode="s"/><glyph d="M377 785l-185 -115l28 -46l201 90zM280 57c-62 0 -118 23 -159 57l-47 -54c45 -39 110 -71 205 -71c113 0 222 44 222 156c0 99 -68 135 -171 163c-107 29 -140 45 -140 93c0 40 31 69 115 69c68 0 113 -20 152 -47l37 56c-44 33 -106 59 -191 59 c-118 0 -199 -56 -199 -144c0 -92 70 -124 180 -151c111 -28 127 -54 127 -102c0 -51 -50 -84 -131 -84z" glyph-name="sacute" unicode="ś"/><glyph d="M427 728l-65 42l-105 -168l41 -26zM280 57c-62 0 -118 23 -159 57l-47 -54c45 -39 110 -71 205 -71c113 0 222 44 222 156c0 99 -68 135 -171 163c-107 29 -140 45 -140 93c0 40 31 69 115 69c68 0 113 -20 152 -47l37 56c-44 33 -106 59 -191 59 c-118 0 -199 -56 -199 -144c0 -92 70 -124 180 -151c111 -28 127 -54 127 -102c0 -51 -50 -84 -131 -84z" glyph-name="sacute.loclPLK"/><glyph d="M470 748l-38 41l-124 -91l-124 91l-40 -41l136 -119h56zM280 57c-62 0 -118 23 -159 57l-47 -54c45 -39 110 -71 205 -71c113 0 222 44 222 156c0 99 -68 135 -171 163c-107 29 -140 45 -140 93c0 40 31 69 115 69c68 0 113 -20 152 -47l37 56c-44 33 -106 59 -191 59 c-118 0 -199 -56 -199 -144c0 -92 70 -124 180 -151c111 -28 127 -54 127 -102c0 -51 -50 -84 -131 -84z" glyph-name="scaron" unicode="š"/><glyph d="M501 145c0 99 -68 135 -171 163c-107 29 -140 45 -140 93c0 40 31 69 115 69c68 0 113 -20 152 -47l37 56c-44 33 -106 59 -191 59c-118 0 -199 -56 -199 -144c0 -92 70 -124 180 -151c111 -28 127 -54 127 -102c0 -51 -50 -84 -131 -84c-62 0 -118 23 -159 57l-47 -54 c41 -36 100 -66 183 -70l-7 -87c53 0 87 -7 87 -43c0 -30 -25 -42 -60 -42c-22 0 -49 6 -68 16l-27 -48c26 -15 65 -24 105 -24c64 0 121 32 121 98c0 39 -27 77 -92 83v48c99 9 185 54 185 154z" glyph-name="scedilla" unicode="ş"/><glyph d="M144 670l40 -41l124 91l124 -91l38 41l-134 119h-56zM280 57c-62 0 -118 23 -159 57l-47 -54c45 -39 110 -71 205 -71c113 0 222 44 222 156c0 99 -68 135 -171 163c-107 29 -140 45 -140 93c0 40 31 69 115 69c68 0 113 -20 152 -47l37 56c-44 33 -106 59 -191 59 c-118 0 -199 -56 -199 -144c0 -92 70 -124 180 -151c111 -28 127 -54 127 -102c0 -51 -50 -84 -131 -84z" glyph-name="scircumflex" unicode="ŝ"/><glyph d="M280 57c-62 0 -118 23 -159 57l-47 -54c45 -39 110 -71 205 -71c113 0 222 44 222 156c0 99 -68 135 -171 163c-107 29 -140 45 -140 93c0 40 31 69 115 69c68 0 113 -20 152 -47l37 56c-44 33 -106 59 -191 59c-118 0 -199 -56 -199 -144c0 -92 70 -124 180 -151 c111 -28 127 -54 127 -102c0 -51 -50 -84 -131 -84zM300 -71c-30 0 -54 -22 -54 -53c0 -17 9 -34 22 -44l-29 -118h50l50 108c11 23 15 37 15 54c0 31 -23 53 -54 53z" glyph-name="scommaaccent" unicode="ș"/><glyph d="M239 417c138 -52 171 -62 171 -118c0 -29 -18 -61 -48 -87c-139 51 -172 60 -172 119c0 28 17 60 49 86zM317 700c-104 0 -189 -56 -189 -146c0 -45 22 -81 59 -109c-44 -27 -81 -71 -81 -124c0 -80 46 -117 155 -154c100 -33 123 -52 123 -97c0 -44 -43 -71 -100 -71 c-56 0 -96 15 -136 43l-40 -56c43 -33 98 -55 171 -55c112 0 193 54 193 145c0 46 -24 81 -60 108c44 27 80 71 80 126c0 78 -44 116 -153 152c-101 35 -124 53 -124 99c0 43 39 71 96 71s93 -16 133 -43l40 57c-44 32 -94 54 -167 54z" glyph-name="section" unicode="§"/><glyph d="M239 417c138 -52 171 -62 171 -118c0 -29 -18 -61 -48 -87c-139 51 -172 60 -172 119c0 28 17 60 49 86zM317 700c-104 0 -189 -56 -189 -146c0 -45 22 -81 59 -109c-44 -27 -81 -71 -81 -124c0 -80 46 -117 155 -154c100 -33 123 -52 123 -97c0 -44 -43 -71 -100 -71 c-56 0 -96 15 -136 43l-40 -56c43 -33 98 -55 171 -55c112 0 193 54 193 145c0 46 -24 81 -60 108c44 27 80 71 80 126c0 78 -44 116 -153 152c-101 35 -124 53 -124 99c0 43 39 71 96 71s93 -16 133 -43l40 57c-44 32 -94 54 -167 54z" glyph-name="section.tosf"/><glyph d="M299 511c-46 0 -80 -36 -80 -80c0 -45 34 -82 80 -82s81 37 81 82c0 44 -35 80 -81 80zM299 165c-45 0 -80 -36 -80 -80c0 -27 12 -52 32 -67l-48 -198h76l82 187c14 31 19 54 19 78c0 44 -35 80 -81 80z" glyph-name="semicolon" unicode=";"/><glyph d="M153 14l77 -23l275 634v63h-407v-69h323z" glyph-name="seven" unicode="7"/><glyph d="M206 22l70 -30l164 280v49h-280v-59h202z" glyph-name="seven.dnom"/><glyph d="M206 389l70 -30l164 280v49h-280v-59h202z" glyph-name="seven.numr"/><glyph d="M500 499v64h-408v-69h324l-241 -586l75 -25z" glyph-name="seven.tosf"/><glyph d="M96 389l70 -30l164 280v49h-280v-59h202zM-5 237l30 -53l534 256l-29 53zM588 244c0 45 -53 83 -141 83c-81 0 -140 -36 -140 -85c0 -42 22 -63 62 -74c-51 -12 -80 -38 -80 -76c0 -58 57 -98 157 -98c98 0 159 40 159 100c0 42 -31 65 -87 82c39 4 70 23 70 68zM378 242 c0 16 21 31 69 31c49 0 70 -16 70 -32c0 -23 -19 -32 -55 -43c-62 11 -84 21 -84 44zM531 95c0 -23 -32 -42 -85 -42c-56 0 -83 16 -83 41c0 22 21 40 60 51c64 -11 108 -21 108 -50z" glyph-name="seveneighths" unicode="⅞"/><glyph d="M206 -171l70 -30l164 280v49h-280v-59h202z" glyph-name="seveninferior" unicode="₇"/><glyph d="M206 337l70 -30l164 280v49h-280v-59h202z" glyph-name="sevensuperior" unicode="⁷"/><glyph d="M500 925h49v-74h-49v74zM400 925h49v-74h-49v74zM300 925h50v-74h-50v74zM200 925h49v-74h-49v74zM100 925h49v-74h-49v74zM250 850l49 1v-75h-49v74zM450 850h49v-74h-49v74zM350 850h49v-74h-49v74zM150 850h49v-74h-49v74zM50 850h49v-74h-49v74zM300 775l49 1v-75 h-49v74zM500 775h49v-74h-49v74zM400 775h49v-74h-49v74zM200 775h49v-74h-49v74zM100 775h50v-74h-50v74zM150 700l49 1v-75h-49v74zM50 700l49 1v-75h-49v74zM450 700h49v-74h-49v74zM350 700h49v-74h-49v74zM250 700h50v-74h-50v74zM500 625h49v-74h-49v74zM400 625h49 v-74h-49v74zM300 625h49v-74h-49v74zM200 625h49v-74h-49v74zM100 625h49v-74h-49v74zM150 550l49 1v-75h-49v74zM450 550h49v-74h-49v74zM350 550h49v-74h-49v74zM250 550h49v-74h-49v74zM50 550h49v-74h-49v74zM500 475h49v-74h-49v74zM400 475h49v-74h-49v74zM300 475h49 v-74h-49v74zM200 475h49v-74h-49v74zM100 475h49v-74h-49v74zM450 400h49v-74h-49v74zM350 400h49v-74h-49v74zM250 400h49v-74h-49v74zM150 400h49v-74h-49v74zM50 400h49v-74h-49v74zM500 325h49v-74h-49v74zM400 325h49v-74h-49v74zM300 325h49v-74h-49v74zM200 325h49 v-74h-49v74zM100 325h49v-74h-49v74zM450 250h49v-74h-49v74zM350 250h49v-74h-49v74zM250 250h49v-74h-49v74zM150 250h49v-74h-49v74zM50 250h49v-74h-49v74zM500 175h49v-74h-49v74zM400 175h49v-74h-49v74zM300 175h49v-74h-49v74zM200 175h49v-74h-49v74zM100 175h49 v-74h-49v74zM450 100h49v-74h-49v74zM350 100h49v-74h-49v74zM250 100h49v-74h-49v74zM150 100h49v-74h-49v74zM50 100h49v-74h-49v74zM500 25h49v-74h-49v74zM400 25h49v-74h-49v74zM300 25h49v-74h-49v74zM200 25h49v-74h-49v74zM100 25h49v-74h-49v74zM450 -50h49v-74 h-49v74zM350 -50h49v-74h-49v74zM250 -50h49v-74h-49v74zM150 -50h50v-74h-50v74zM50 -50h49v-74h-49v74zM400 -125l49 1v-75h-49v74zM500 -125h49v-74h-49v74zM300 -125h49v-74h-49v74zM200 -125h49v-74h-49v74zM100 -125h49v-74h-49v74zM350 -200l49 1v-75h-49v74z M150 -200l49 1v-75h-49v74zM450 -200h49v-74h-49v74zM250 -200h49v-74h-49v74zM50 -200h49v-74h-49v74zM500 -275h49v-74h-49v74zM400 -275h49v-74h-49v74zM300 -275h50v-74h-50v74zM200 -275h49v-74h-49v74zM100 -275h49v-74h-49v74zM350 -350l49 1v-75h-49v74zM150 -350 l49 1v-75h-49v74zM450 -350h49v-74h-49v74zM250 -350h49v-74h-49v74zM50 -350h49v-74h-49v74zM550 926v74h-51v-74h-49v74h-51v-74h-49v74h-51v-74h-49v74h-51v-74h-49v74h-51v-74h-49v74h-50v-75h49v-74h-49v-76h49v-74h-49v-76h49v-74h-49v-76h49v-74h-49v-76h49v-74h-49 v-76h49v-74h-49v-76h49v-74h-49v-76h49v-74h-49v-76h49v-74h-49v-76h49v-75h51v75h49v-75h51v75h49v-75h51v75h49v-75h51v75h49v-75h51v75h49v-75h51v76h-50v74h50v76h-50v74h50v76h-50v74h50v76h-50v74h50v76h-50v74h50v76h-50v74h50v76h-50v74h50v76h-50v74h50v76h-50v74 h50v76h-50z" glyph-name="shade" unicode="▒"/><glyph d="M300 57c-90 0 -137 66 -137 206c0 171 82 206 200 205c42 -34 72 -96 72 -204c0 -141 -46 -207 -135 -207zM559 457v70c-66 2 -160 5 -237 5c-157 0 -248 -107 -248 -269c0 -166 81 -274 226 -274c144 0 227 113 224 276c-2 104 -39 170 -89 201z" glyph-name="sigma" unicode="σ"/><glyph d="M348 538c-141 0 -246 -97 -246 -267c0 -134 65 -193 192 -239c103 -37 125 -47 125 -88c0 -50 -42 -75 -101 -98l36 -60c106 47 155 93 155 167c0 78 -60 107 -160 144c-129 47 -158 75 -158 174c0 130 74 197 160 197c59 0 91 -13 134 -41l42 55c-57 41 -105 56 -179 56 z" glyph-name="sigmafinal" unicode="ς"/><glyph d="M329 448c-68 0 -122 -27 -166 -93c3 168 64 277 171 277c38 0 73 -10 105 -29l32 56c-39 26 -83 41 -136 41c-161 0 -255 -146 -255 -375c0 -205 61 -336 228 -336c119 0 216 90 216 243c0 147 -89 216 -195 216zM308 56c-99 0 -141 70 -144 226c35 58 86 98 153 98 c73 0 122 -37 122 -151c0 -107 -44 -173 -131 -173z" glyph-name="six" unicode="6"/><glyph d="M392 251l35 47c-35 21 -76 29 -113 29c-112 0 -166 -76 -166 -164c0 -96 54 -169 159 -169c79 0 145 45 145 117c0 70 -59 101 -120 101c-50 0 -83 -17 -113 -43c3 68 34 99 95 99c31 0 55 -5 78 -17zM318 163c37 0 61 -17 61 -54c0 -32 -25 -56 -72 -56 c-55 0 -74 35 -86 69c33 29 63 41 97 41z" glyph-name="six.dnom"/><glyph d="M392 619l35 47c-35 21 -76 29 -113 29c-112 0 -166 -76 -166 -164c0 -96 54 -169 159 -169c79 0 145 45 145 117c0 70 -59 101 -120 101c-50 0 -83 -17 -113 -43c3 68 34 99 95 99c31 0 55 -5 78 -17zM318 531c37 0 61 -17 61 -54c0 -32 -25 -56 -72 -56 c-55 0 -74 35 -86 69c33 29 63 41 97 41z" glyph-name="six.numr"/><glyph d="M329 448c-68 0 -122 -27 -166 -93c3 168 64 277 171 277c38 0 73 -10 105 -29l32 56c-39 26 -83 41 -136 41c-161 0 -255 -146 -255 -375c0 -205 61 -336 228 -336c119 0 216 90 216 243c0 147 -89 216 -195 216zM308 56c-99 0 -141 70 -144 226c35 58 86 98 153 98 c73 0 122 -37 122 -151c0 -107 -44 -173 -131 -173z" glyph-name="six.tosf"/><glyph d="M392 58l35 47c-35 21 -76 29 -113 29c-112 0 -166 -76 -166 -164c0 -96 54 -169 159 -169c79 0 145 45 145 117c0 70 -59 101 -120 101c-50 0 -83 -17 -113 -43c3 68 34 99 95 99c31 0 55 -5 78 -17zM318 -30c37 0 61 -17 61 -54c0 -32 -25 -56 -72 -56 c-55 0 -74 35 -86 69c33 29 63 41 97 41z" glyph-name="sixinferior" unicode="₆"/><glyph d="M392 566l35 47c-35 21 -76 29 -113 29c-112 0 -166 -76 -166 -164c0 -96 54 -169 159 -169c79 0 145 45 145 117c0 70 -59 101 -120 101c-50 0 -83 -17 -113 -43c3 68 34 99 95 99c31 0 55 -5 78 -17zM318 478c37 0 61 -17 61 -54c0 -32 -25 -56 -72 -56 c-55 0 -74 35 -86 69c33 29 63 41 97 41z" glyph-name="sixsuperior" unicode="⁶"/><glyph d="M53 -73l67 -30l427 880l-66 32z" glyph-name="slash" unicode="/"/><glyph d="M300 539c-150 0 -270 -120 -270 -269c0 -150 120 -270 270 -270c149 0 270 120 270 270c0 149 -121 269 -270 269zM300 487c118 0 211 -99 211 -217c0 -120 -93 -218 -211 -218c-120 0 -211 98 -211 218c0 118 91 217 211 217zM378 391c-28 0 -48 -20 -48 -45 c0 -27 20 -47 48 -47s48 20 48 47c0 25 -20 45 -48 45zM218 391c-28 0 -48 -20 -48 -45c0 -27 20 -47 48 -47s48 20 48 47c0 25 -20 45 -48 45zM443 240h-44c-13 -52 -42 -89 -99 -89s-86 37 -99 89h-44c9 -73 64 -134 143 -134s134 61 143 134z" glyph-name="smileface" unicode="☺"/><glyph d="M144 349v-72h312v72h-312z" glyph-name="softhyphen" unicode="­"/><glyph d="M144 389v-72h312v72h-312z" glyph-name="softhyphen.case"/><glyph glyph-name="space"/><glyph glyph-name="space.frac"/><glyph d="M300 539c-142 -131 -230 -210 -230 -300c0 -64 38 -105 98 -105c50 0 86 20 114 66l-16 -135h-156l-40 -65h460l-40 65h-156l-16 135c28 -46 64 -66 114 -66c60 0 98 41 98 105c0 90 -88 169 -230 300z" glyph-name="spade" unicode="♠"/><glyph d="M570 0v540h-540v-540h540zM110 460h380v-380h-380v380zM410 160v220h-220v-220h220z" glyph-name="squarewhitewithsmallblack" unicode="▣"/><glyph d="M346 700c-118 0 -189 -79 -189 -184v-129h-82v-58h82v-129c0 -61 -3 -107 -82 -133v-67h432l10 71h-339c52 29 62 79 62 133v125h207v58h-207v121c0 80 38 122 109 122c49 0 86 -18 120 -59l56 43c-44 61 -107 86 -179 86z" glyph-name="sterling" unicode="£"/><glyph d="M346 700c-118 0 -189 -79 -189 -184v-129h-82v-58h82v-129c0 -61 -3 -107 -82 -133v-67h432l10 71h-339c52 29 62 79 62 133v125h207v58h-207v121c0 80 38 122 109 122c49 0 86 -18 120 -59l56 43c-44 61 -107 86 -179 86z" glyph-name="sterling.tosf"/><glyph d="M497 616v72h-396v-73l226 -271l-226 -271v-73h396v72h-298l198 243v61l-198 240h298z" glyph-name="summation" unicode="∑"/><glyph d="M497 616v72h-396v-73l226 -271l-226 -271v-73h396v72h-298l198 243v61l-198 240h298z" glyph-name="summation.tosf"/><glyph d="M300 376c64 0 110 -48 110 -112s-46 -111 -110 -111s-109 47 -109 111s45 112 109 112zM324 420v107h-48v-107c-26 -3 -49 -13 -69 -27l-80 82l-36 -36l80 -80c-15 -20 -26 -45 -30 -72h-111v-47h111c4 -26 15 -49 29 -69l-79 -78l36 -36l79 80c20 -14 44 -23 70 -27 v-110h48v110c26 4 49 13 70 27l79 -80l36 36l-79 78c15 19 25 43 29 69h111v47h-111c-4 27 -15 52 -31 72l81 80l-36 36l-81 -82c-20 14 -43 24 -68 27z" glyph-name="sun" unicode="☼"/><glyph d="M518 26l-32 57c-29 -15 -62 -25 -101 -25c-73 0 -101 31 -101 90v314h172l10 64h-182v130l-83 -10v-120h-121v-64h121v-315c0 -93 64 -158 176 -158c49 0 105 14 141 37z" glyph-name="t" unicode="t"/><glyph d="M508 16l-22 60c-29 -11 -61 -18 -89 -18c-51 0 -86 19 -86 72v327h195v69h-311c-60 0 -109 -5 -156 -21l14 -66c55 15 81 18 130 18h45v-318c0 -95 61 -150 155 -150c48 0 101 13 125 27z" glyph-name="tau" unicode="τ"/><glyph d="M518 26l-32 57c-29 -15 -62 -25 -101 -25c-73 0 -101 31 -101 90v140h173v64h-173v110h172l10 64h-182v130l-83 -10v-120h-121v-64h121v-110h-110v-64h110v-141c0 -93 64 -158 176 -158c49 0 105 14 141 37z" glyph-name="tbar" unicode="ŧ"/><glyph d="M518 26l-32 57c-29 -15 -62 -25 -101 -25c-73 0 -101 31 -101 90v314h172l10 64h-182v130l-83 -10v-120h-121v-64h121v-315c0 -93 64 -158 176 -158c49 0 105 14 141 37z" glyph-name="tcaron" unicode="ť"/><glyph d="M391 -57v46c45 3 94 16 127 37l-32 57c-29 -15 -62 -25 -101 -25c-73 0 -101 31 -101 90v314h172l10 64h-182v130l-83 -10v-120h-121v-64h121v-315c0 -80 47 -139 131 -154l-7 -90c53 0 87 -7 87 -43c0 -30 -25 -42 -60 -42c-22 0 -49 6 -68 16l-27 -48 c26 -15 65 -24 105 -24c64 0 121 32 121 98c0 39 -27 77 -92 83z" glyph-name="tcedilla" unicode="ţ"/><glyph d="M301 749c-148 0 -227 -147 -227 -378c0 -236 78 -382 226 -382c147 0 226 152 226 383c0 236 -77 377 -225 377zM301 679c91 0 134 -81 138 -273h-278c4 192 48 273 140 273zM161 339h277c-5 -198 -48 -282 -138 -282s-134 84 -139 282z" glyph-name="theta" unicode="θ"/><glyph d="M316 471c83 0 121 -69 121 -207c0 -141 -44 -206 -132 -206c-50 0 -94 25 -121 66v262c28 42 73 85 132 85zM184 461v288l-83 -10v-951l83 10v251c35 -40 82 -60 139 -60c137 0 203 115 203 275c0 165 -50 274 -190 274c-60 0 -114 -27 -152 -77z" glyph-name="thorn" unicode="þ"/><glyph d="M269 700c-70 0 -137 -24 -195 -80l45 -51c46 43 87 64 146 64c73 0 131 -41 131 -117c0 -83 -65 -121 -131 -121h-41l-10 -66h58c81 0 143 -32 143 -131c0 -86 -57 -141 -154 -141c-56 0 -114 23 -153 69l-56 -46c52 -64 134 -91 211 -91c142 0 239 90 239 209 c0 107 -76 163 -157 169c73 14 135 77 135 160c0 94 -82 173 -211 173z" glyph-name="three" unicode="3"/><glyph d="M308 327c-52 0 -102 -14 -148 -52l38 -41c35 26 69 38 105 38c41 0 62 -15 62 -44c0 -30 -24 -41 -64 -41h-34l-8 -43h46c48 0 72 -13 72 -47c0 -28 -24 -47 -76 -47c-38 0 -77 13 -108 40l-46 -38c42 -42 98 -58 151 -58c98 0 154 41 154 101c0 49 -28 67 -85 76 c53 9 71 31 71 67c0 54 -49 89 -130 89z" glyph-name="three.dnom"/><glyph d="M308 695c-52 0 -102 -14 -148 -52l38 -41c35 26 69 38 105 38c41 0 62 -15 62 -44c0 -30 -24 -41 -64 -41h-34l-8 -43h46c48 0 72 -13 72 -47c0 -28 -24 -47 -76 -47c-38 0 -77 13 -108 40l-46 -38c42 -42 98 -58 151 -58c98 0 154 41 154 101c0 49 -28 67 -85 76 c53 9 71 31 71 67c0 54 -49 89 -130 89z" glyph-name="three.numr"/><glyph d="M276 573c-77 0 -137 -25 -193 -77l44 -52c45 43 85 61 143 61c77 0 122 -40 122 -102c0 -76 -57 -118 -133 -118h-37l-10 -66h52c92 0 145 -39 145 -127c0 -85 -52 -139 -147 -139c-59 0 -105 20 -147 67l-52 -48c51 -60 119 -88 201 -88c144 0 232 87 232 204 c0 105 -62 159 -150 169c73 16 129 71 129 150c0 87 -68 166 -199 166z" glyph-name="three.tosf"/><glyph d="M3 237l31 -53l534 256l-30 53zM147 695c-52 0 -102 -14 -148 -52l38 -41c35 26 69 38 105 38c41 0 62 -15 62 -44c0 -30 -24 -41 -64 -41h-34l-8 -43h46c48 0 72 -13 72 -47c0 -28 -24 -47 -76 -47c-38 0 -77 13 -108 40l-46 -38c42 -42 98 -58 151 -58 c98 0 154 41 154 101c0 49 -28 67 -85 76c53 9 71 31 71 67c0 54 -49 89 -130 89zM598 244c0 45 -53 83 -141 83c-82 0 -140 -36 -140 -85c0 -42 22 -63 62 -74c-51 -12 -80 -38 -80 -76c0 -58 57 -98 157 -98c98 0 159 40 159 100c0 42 -31 65 -88 82c40 4 71 23 71 68z M388 242c0 16 21 31 69 31c49 0 70 -16 70 -32c0 -23 -19 -32 -55 -43c-62 11 -84 21 -84 44zM541 95c0 -23 -32 -42 -85 -42c-56 0 -83 16 -83 41c0 22 21 40 60 51c64 -11 108 -21 108 -50z" glyph-name="threeeighths" unicode="⅜"/><glyph d="M308 134c-52 0 -102 -14 -148 -52l38 -41c35 26 69 38 105 38c41 0 62 -15 62 -44c0 -30 -24 -41 -64 -41h-34l-8 -43h46c48 0 72 -13 72 -47c0 -28 -24 -47 -76 -47c-38 0 -77 13 -108 40l-46 -38c42 -42 98 -58 151 -58c98 0 154 41 154 101c0 49 -28 67 -85 76 c53 9 71 31 71 67c0 54 -49 89 -130 89z" glyph-name="threeinferior" unicode="₃"/><glyph d="M24 237l30 -53l534 256l-29 53zM158 695c-52 0 -102 -14 -148 -52l38 -41c35 26 69 38 105 38c41 0 62 -15 62 -44c0 -30 -24 -41 -64 -41h-34l-8 -43h46c48 0 72 -13 72 -47c0 -28 -24 -47 -76 -47c-38 0 -77 13 -108 40l-46 -38c42 -42 98 -58 151 -58 c98 0 154 41 154 101c0 49 -28 67 -85 76c53 9 71 31 71 67c0 54 -49 89 -130 89zM547 0v56h56v59h-56v86h-66l-6 -86h-97l115 191l-61 25l-136 -227v-48h179v-56h72z" glyph-name="threequarters" unicode="¾"/><glyph d="M308 642c-52 0 -102 -14 -148 -52l38 -41c35 26 69 38 105 38c41 0 62 -15 62 -44c0 -30 -24 -41 -64 -41h-34l-8 -43h46c48 0 72 -13 72 -47c0 -28 -24 -47 -76 -47c-38 0 -77 13 -108 40l-46 -38c42 -42 98 -58 151 -58c98 0 154 41 154 101c0 49 -28 67 -85 76 c53 9 71 31 71 67c0 54 -49 89 -130 89z" glyph-name="threesuperior" unicode="³"/><glyph d="M351 652c57 0 91 41 111 85l-54 24c-16 -28 -29 -44 -51 -44c-31 0 -50 48 -109 48c-57 0 -91 -39 -111 -84l54 -24c16 28 29 44 51 44c31 0 52 -49 109 -49z" glyph-name="tilde" unicode="˜"/><glyph d="M351 772c56 0 91 40 110 85l-54 23c-16 -28 -29 -44 -51 -44c-31 0 -50 48 -109 48c-56 0 -91 -39 -111 -84l54 -24c16 28 29 44 51 44c31 0 52 -48 110 -48z" glyph-name="tilde.case"/><glyph d="M353 598c56 0 91 41 110 85l-54 24c-16 -28 -29 -44 -51 -44c-31 0 -50 48 -109 48c-57 0 -91 -39 -111 -84l54 -24c16 28 29 44 51 44c31 0 52 -49 110 -49z" glyph-name="tildecomb" horiz-adv-x="0" unicode="̃"/><glyph d="M273 806l-38 -205l63 -11l67 200z" glyph-name="tonos" unicode="΄"/><glyph d="M278 703l-47 -184l64 -11l74 180z" glyph-name="tonos.case"/><glyph d="M579 298l-15 390h-95l-43 -281l-52 281h-361v-55h99v-335h62v335h107l-14 -335h57l9 234c1 32 1 66 0 97h3l57 -294h65l47 294h3c-2 -33 0 -67 1 -98l10 -233h60z" glyph-name="trademark" unicode="™"/><glyph d="M300 0l270 540h-540z" glyph-name="triagdn" unicode="▼"/><glyph d="M570 0v540l-540 -270z" glyph-name="triaglf" unicode="◄"/><glyph d="M570 270l-540 270v-540z" glyph-name="triagrt" unicode="►"/><glyph d="M570 0l-270 540l-270 -540h540z" glyph-name="triagup" unicode="▲"/><glyph d="M269 700c-93 0 -155 -33 -210 -99l58 -44c44 51 81 73 149 73c77 0 123 -48 123 -125c0 -113 -56 -188 -316 -437v-68h409l10 71h-324c227 207 308 310 308 436c0 110 -77 193 -207 193z" glyph-name="two" unicode="2"/><glyph d="M435 221c0 63 -48 106 -133 106c-56 0 -108 -24 -148 -71l51 -38c29 36 62 49 95 49c37 0 59 -19 59 -49c0 -44 -40 -68 -200 -166v-52h277l9 60h-179c126 63 169 97 169 161z" glyph-name="two.dnom"/><glyph d="M435 589c0 63 -48 106 -133 106c-56 0 -108 -24 -148 -71l51 -38c29 36 62 49 95 49c37 0 59 -19 59 -49c0 -44 -40 -68 -200 -166v-52h277l9 60h-179c126 63 169 97 169 161z" glyph-name="two.numr"/><glyph d="M286 573c-90 0 -154 -37 -209 -104l54 -45c49 59 95 80 155 80c72 0 123 -43 123 -109c0 -82 -30 -128 -319 -327v-68h406l10 71h-308c276 169 299 235 299 326c0 101 -81 176 -211 176z" glyph-name="two.tosf"/><glyph d="M435 28c0 63 -48 106 -133 106c-56 0 -108 -24 -148 -71l51 -38c29 36 62 49 95 49c37 0 59 -19 59 -49c0 -44 -40 -68 -200 -166v-52h277l9 60h-179c126 63 169 97 169 161z" glyph-name="twoinferior" unicode="₂"/><glyph d="M435 536c0 63 -48 106 -133 106c-56 0 -108 -24 -148 -71l51 -38c29 36 62 49 95 49c37 0 59 -19 59 -49c0 -44 -40 -68 -200 -166v-52h277l9 60h-179c126 63 169 97 169 161z" glyph-name="twosuperior" unicode="²"/><glyph d="M184 153v373h-83v-383c0 -97 50 -154 152 -154c61 0 127 29 168 82l7 -71h71v526h-83v-387c-28 -45 -85 -84 -143 -84c-61 0 -89 29 -89 98z" glyph-name="u" unicode="u"/><glyph d="M300 747c-210 0 -379 -171 -379 -381s169 -381 379 -381s379 171 379 381s-169 381 -379 381zM319 523v184c4 0 8 0 13 -1c45 -49 82 -104 107 -164c-39 -11 -81 -17 -120 -19zM279 707v-184c-39 2 -80 9 -119 19c25 60 62 115 108 164c3 1 7 1 11 1zM382 698 c69 -17 129 -54 174 -105c-23 -16 -52 -29 -82 -40c-22 55 -55 104 -92 145zM218 698c-38 -41 -70 -90 -93 -145c-30 11 -58 24 -82 40c45 51 106 88 175 105zM578 565c37 -51 60 -114 63 -181h-131c-1 49 -10 95 -24 138c33 12 64 26 92 43zM21 565c28 -17 59 -31 93 -43 c-14 -43 -23 -89 -25 -138h-130c3 67 26 130 62 181zM451 511c13 -40 21 -82 22 -127h-154v105c44 1 89 10 132 22zM149 511c42 -12 86 -20 130 -22v-105h-153c2 45 10 87 23 127zM510 348h131c-3 -68 -26 -130 -63 -182c-28 17 -59 32 -92 44c14 42 23 89 24 138zM319 348 h154c-1 -45 -9 -88 -22 -127c-43 12 -88 20 -132 21v106zM126 348h153v-106c-44 -2 -88 -9 -130 -21c-13 39 -21 82 -23 127zM-41 348h130c2 -49 11 -96 25 -138c-34 -12 -65 -27 -93 -44c-36 52 -59 114 -62 182zM319 24v184c39 -1 81 -8 120 -19 c-25 -60 -62 -114 -107 -164c-5 0 -9 -1 -13 -1zM279 208v-184c-4 0 -8 1 -11 1c-46 50 -83 104 -108 164c39 11 80 18 119 19zM474 178c30 -10 59 -23 82 -39c-45 -51 -105 -89 -174 -105c37 40 70 89 92 144zM125 178c23 -55 55 -104 93 -144c-69 16 -130 54 -175 105 c24 16 52 29 82 39z" glyph-name="u1F310" unicode="🌐"/><glyph d="M370 785l-185 -115l28 -46l201 90zM184 153v373h-83v-383c0 -97 50 -154 152 -154c61 0 127 29 168 82l7 -71h71v526h-83v-387c-28 -45 -85 -84 -143 -84c-61 0 -89 29 -89 98z" glyph-name="uacute" unicode="ú"/><glyph d="M298 630c92 0 142 75 150 135l-57 13c-15 -50 -45 -84 -93 -84c-47 0 -76 34 -90 84l-57 -13c8 -60 56 -135 147 -135zM184 153v373h-83v-383c0 -97 50 -154 152 -154c61 0 127 29 168 82l7 -71h71v526h-83v-387c-28 -45 -85 -84 -143 -84c-61 0 -89 29 -89 98z" glyph-name="ubreve" unicode="ŭ"/><glyph d="M137 670l40 -41l124 91l124 -91l38 41l-134 119h-56zM184 153v373h-83v-383c0 -97 50 -154 152 -154c61 0 127 29 168 82l7 -71h71v526h-83v-387c-28 -45 -85 -84 -143 -84c-61 0 -89 29 -89 98z" glyph-name="ucircumflex" unicode="û"/><glyph d="M402 648c32 0 55 23 55 53c0 31 -23 54 -55 54c-30 0 -53 -23 -53 -54c0 -30 23 -53 53 -53zM196 648c30 0 54 23 54 53c0 31 -24 54 -54 54c-31 0 -54 -23 -54 -54c0 -30 23 -53 54 -53zM184 153v373h-83v-383c0 -97 50 -154 152 -154c61 0 127 29 168 82l7 -71h71v526 h-83v-387c-28 -45 -85 -84 -143 -84c-61 0 -89 29 -89 98z" glyph-name="udieresis" unicode="ü"/><glyph d="M185 715l202 -91l27 46l-185 117zM184 153v373h-83v-383c0 -97 50 -154 152 -154c61 0 127 29 168 82l7 -71h71v526h-83v-387c-28 -45 -85 -84 -143 -84c-61 0 -89 29 -89 98z" glyph-name="ugrave" unicode="ù"/><glyph d="M428 835l-87 -173l52 -28l108 163zM254 835l-77 -173l54 -26l97 164zM184 153v373h-83v-383c0 -97 50 -154 152 -154c61 0 127 29 168 82l7 -71h71v526h-83v-387c-28 -45 -85 -84 -143 -84c-61 0 -89 29 -89 98z" glyph-name="uhungarumlaut" unicode="ű"/><glyph d="M165 676h269v64h-269v-64zM184 153v373h-83v-383c0 -97 50 -154 152 -154c61 0 127 29 168 82l7 -71h71v526h-83v-387c-28 -45 -85 -84 -143 -84c-61 0 -89 29 -89 98z" glyph-name="umacron" unicode="ū"/><glyph d="M-7 -109v-72h614v72h-614z" glyph-name="underscore" unicode="_"/><glyph d="M607 -79v79h-614v-79h614zM607 -215v79h-614v-79h614z" glyph-name="underscoredbl" unicode="‗"/><glyph glyph-name="uni00A0"/><glyph d="M483 167v359h-83v-384c-30 -42 -76 -80 -139 -80c-81 0 -89 64 -89 169v295h-83v-738l83 10v154c0 21 -4 51 -9 87c26 -37 50 -51 104 -51c53 0 110 34 141 85c3 -25 14 -67 25 -85l78 12c-13 40 -28 98 -28 167z" glyph-name="uni00B5" unicode="µ"/><glyph d="M341 0v615h209l9 73h-519v-73h216v-615h85zM302 -71c-30 0 -54 -22 -54 -53c0 -17 9 -34 22 -44l-29 -118h50l50 108c11 23 15 37 15 54c0 31 -23 53 -54 53z" glyph-name="uni021A" unicode="Ț"/><glyph d="M518 26l-32 57c-29 -15 -62 -25 -101 -25c-73 0 -101 31 -101 90v314h172l10 64h-182v130l-83 -10v-120h-121v-64h121v-315c0 -93 64 -158 176 -158c49 0 105 14 141 37zM374 -71c-30 0 -54 -22 -54 -53c0 -17 9 -34 22 -44l-29 -118h50l50 108c11 23 15 37 15 54 c0 31 -23 53 -54 53z" glyph-name="uni021B" unicode="ț"/><glyph d="M293 749c-30 0 -55 -23 -55 -53c0 -18 10 -33 23 -45l-30 -121h49l42 89c21 46 25 60 25 76c0 31 -23 54 -54 54z" glyph-name="uni02BC" unicode="ʼ"/><glyph d="M463 641l-135 107h-56l-135 -107l38 -43l125 81l126 -81z" glyph-name="uni0302" horiz-adv-x="0" unicode="̂"/><glyph d="M166 622h269v64h-269v-64z" glyph-name="uni0304" horiz-adv-x="0" unicode="̄"/><glyph d="M298 586c78 0 143 46 151 118l-57 13c-14 -40 -46 -67 -94 -67c-47 0 -76 27 -90 67l-57 -13c8 -72 71 -118 147 -118z" glyph-name="uni0306" horiz-adv-x="0" unicode="̆"/><glyph d="M300 719c-36 0 -60 -26 -60 -59c0 -34 24 -59 60 -59c37 0 61 25 61 59c0 33 -24 59 -61 59z" glyph-name="uni0307" horiz-adv-x="0" unicode="̇"/><glyph d="M404 594c31 0 54 23 54 53c0 31 -23 54 -54 54s-54 -23 -54 -54c0 -30 23 -53 54 -53zM198 594c30 0 53 23 53 53c0 31 -23 54 -53 54c-32 0 -55 -23 -55 -54c0 -30 23 -53 55 -53z" glyph-name="uni0308" horiz-adv-x="0" unicode="̈"/><glyph d="M300 769c-64 0 -111 -45 -111 -103c0 -56 47 -101 111 -101s111 45 111 101c0 58 -47 103 -111 103zM300 723c34 0 54 -21 54 -57c0 -35 -20 -56 -54 -56c-33 0 -54 21 -54 56c0 36 21 57 54 57z" glyph-name="uni030A" horiz-adv-x="0" unicode="̊"/><glyph d="M389 781l-87 -173l52 -28l108 163zM215 781l-77 -173l54 -26l97 164z" glyph-name="uni030B" horiz-adv-x="0" unicode="̋"/><glyph d="M463 688l-37 43l-126 -81l-125 81l-38 -43l135 -107h56z" glyph-name="uni030C" horiz-adv-x="0" unicode="̌"/><glyph d="M320 762c-30 0 -54 -22 -54 -53c0 -17 8 -34 22 -44l-30 -118h51l50 108c10 23 15 37 15 54c0 31 -24 53 -54 53z" glyph-name="uni0313" horiz-adv-x="0" unicode="̓"/><glyph d="M394 559c30 0 54 23 54 53c0 18 -9 34 -22 45l29 117h-50l-50 -107c-11 -23 -15 -38 -15 -55c0 -30 23 -53 54 -53z" glyph-name="uni0314" horiz-adv-x="0" unicode="̔"/><glyph d="M303 -71c-30 0 -54 -22 -54 -53c0 -17 9 -34 22 -44l-29 -118h50l50 108c11 23 15 37 15 54c0 31 -23 53 -54 53z" glyph-name="uni0326" horiz-adv-x="0" unicode="̦"/><glyph d="M303 -71c-30 0 -54 -22 -54 -53c0 -17 9 -34 22 -44l-29 -118h50l50 108c11 23 15 37 15 54c0 31 -23 53 -54 53z" glyph-name="uni0326.case" horiz-adv-x="0"/><glyph d="M342 -152c0 -30 -25 -41 -60 -41c-22 0 -49 6 -68 16l-26 -48c25 -15 64 -24 104 -24c64 0 122 32 122 97c0 40 -28 78 -93 84v73h-57l-9 -114c53 0 87 -7 87 -43z" glyph-name="uni0327" horiz-adv-x="0" unicode="̧"/><glyph d="M128 277h343v67h-343v-67z" glyph-name="uni0335" horiz-adv-x="0" unicode="̵"/><glyph d="M-25 277h651v67h-651v-67z" glyph-name="uni0336" horiz-adv-x="0" unicode="̶"/><glyph d="M437 800l-185 109l-46 -72l205 -81zM212 385v233h294l10 70h-390v-688h399v69h-313v245h255v71h-255z" glyph-name="uni0400" unicode="Ѐ"/><glyph d="M423 767c32 0 55 23 55 53c0 31 -23 54 -55 54c-30 0 -53 -23 -53 -54c0 -30 23 -53 53 -53zM217 767c30 0 54 23 54 53c0 31 -24 54 -54 54c-31 0 -54 -23 -54 -54c0 -30 23 -53 54 -53zM212 385v233h294l10 70h-390v-688h399v69h-313v245h255v71h-255z" glyph-name="uni0401" unicode="Ё"/><glyph d="M243 390v227h161l9 71h-418v-71h162v-617h86v321c26 24 64 54 126 54c81 0 111 -39 111 -135v-145c0 -89 -20 -126 -108 -161l22 -69c109 37 172 92 172 231v150c0 133 -57 203 -178 203c-60 0 -108 -27 -145 -59z" glyph-name="uni0402" unicode="Ђ"/><glyph d="M469 834l-37 71l-198 -105l22 -44zM535 613l9 75h-407v-688h85v613h313z" glyph-name="uni0403" unicode="Ѓ"/><glyph d="M352 700c-158 0 -294 -123 -294 -355s124 -356 296 -356c99 0 166 36 208 75l-46 56c-33 -30 -82 -60 -159 -60c-113 0 -203 75 -211 258h308v72h-305c13 176 104 240 209 240c53 0 103 -16 145 -52l49 55c-54 42 -111 67 -200 67z" glyph-name="uni0404" unicode="Є"/><glyph d="M536 191c0 131 -94 176 -201 207c-131 38 -174 68 -174 127c0 69 63 103 138 103c59 0 117 -19 166 -63l51 56c-58 50 -125 79 -219 79c-132 0 -223 -74 -223 -177c0 -110 86 -159 222 -199c119 -35 151 -68 151 -135c0 -87 -77 -128 -160 -128c-85 0 -144 28 -192 73 l-51 -58c58 -56 141 -87 241 -87c160 0 251 83 251 202z" glyph-name="uni0405" unicode="Ѕ"/><glyph d="M497 620v68h-394v-68h154v-551h-154v-69h394v69h-154v551h154z" glyph-name="uni0406" unicode="І"/><glyph d="M402 767c32 0 55 23 55 53c0 31 -23 54 -55 54c-30 0 -53 -23 -53 -54c0 -30 23 -53 53 -53zM196 767c30 0 54 23 54 53c0 31 -24 54 -54 54c-31 0 -54 -23 -54 -54c0 -30 23 -53 54 -53zM497 620v68h-394v-68h154v-551h-154v-69h394v69h-154v551h154z" glyph-name="uni0407" unicode="Ї"/><glyph d="M496 228v460h-289v-70h204v-385c0 -107 -54 -173 -150 -173c-41 0 -90 10 -150 48l-38 -57c54 -41 121 -63 189 -63c181 0 234 126 234 240z" glyph-name="uni0408" unicode="Ј"/><glyph d="M355 433v255h-255l-31 -375c-15 -196 -37 -233 -67 -267l44 -57c59 45 87 76 106 322l23 306h95v-617h93c146 0 237 63 237 221c0 147 -81 212 -245 212zM355 366h16c91 0 139 -38 139 -146c0 -122 -51 -150 -140 -150h-15v296z" glyph-name="uni0409" unicode="Љ"/><glyph d="M354 349h16c92 0 140 -34 140 -138c0 -120 -51 -144 -140 -143h-16v281zM354 413v275h-85v-275h-143v275h-84v-688h84v349h143v-349h94c145 0 237 56 237 212c0 140 -81 202 -246 201z" glyph-name="uni040A" unicode="Њ"/><glyph d="M404 617l9 71h-418v-71h162v-617h86v321c26 24 64 54 126 54c81 0 111 -39 111 -135v-240h86v246c0 133 -57 203 -178 203c-62 0 -108 -24 -145 -59v227h161z" glyph-name="uni040B" unicode="Ћ"/><glyph d="M439 834l-37 71l-198 -105l22 -44zM181 326h80l221 -326h104l-251 364l232 324h-93l-212 -290h-81v290h-86v-688h86v326z" glyph-name="uni040C" unicode="Ќ"/><glyph d="M416 800l-185 109l-46 -72l205 -81zM84 688v-688h112l243 593h4c-5 -48 -12 -138 -12 -242v-351h85v688h-110l-245 -595h-4c6 58 12 124 12 246v349h-85z" glyph-name="uni040D" unicode="Ѝ"/><glyph d="M308 759c77 0 142 46 150 119l-57 12c-14 -39 -46 -67 -93 -67s-76 28 -90 67l-57 -12c8 -73 71 -119 147 -119zM368 179l212 509h-87l-180 -443l-197 443h-89l227 -498h37c-27 -77 -59 -115 -182 -133l13 -68c145 18 199 77 246 190z" glyph-name="uni040E" unicode="Ў"/><glyph d="M516 0v688h-85v-617h-89v1h-99v-1h-74v617h-85v-688h175l15 -147h68v147h174z" glyph-name="uni040F" unicode="Џ"/><glyph d="M412 247h-229l115 369zM161 176h273l55 -176h90l-224 688h-110l-224 -688h84z" glyph-name="uni0410" unicode="А"/><glyph d="M477 617l8 71h-384v-688h174c156 0 267 57 267 214c0 145 -102 206 -268 206h-87v197h290zM187 352h100c96 0 165 -36 165 -139c0 -117 -70 -143 -165 -143h-100v282z" glyph-name="uni0411" unicode="Б"/><glyph d="M539 196c0 117 -82 156 -158 169c66 14 128 61 128 150c0 135 -123 173 -243 173h-169v-688h184c127 0 258 46 258 196zM421 510c0 -80 -45 -115 -127 -115h-112v224h104c83 0 135 -30 135 -109zM449 193c0 -102 -85 -122 -152 -122h-115v253h119c80 0 148 -26 148 -131z" glyph-name="uni0412" unicode="В"/><glyph d="M535 613l9 75h-407v-688h85v613h313z" glyph-name="uni0413" unicode="Г"/><glyph d="M426 616v-544h-300c61 55 71 135 103 412l15 132h182zM565 72h-51v616h-345l-26 -197c-39 -295 -45 -365 -100 -419h-43v-219h68l15 147h399l14 -147h69v219z" glyph-name="uni0414" unicode="Д"/><glyph d="M212 385v233h294l10 70h-390v-688h399v69h-313v245h255v71h-255z" glyph-name="uni0415" unicode="Е"/><glyph d="M199 327h62v-327h78v327h61l103 -327h85l-123 364l108 324h-81l-92 -291h-61v291h-78v-291h-61l-91 291h-82l108 -324l-123 -364h83z" glyph-name="uni0416" unicode="Ж"/><glyph d="M280 700c-90 0 -167 -29 -231 -86l49 -53c48 43 105 69 182 69c84 0 149 -37 149 -111c0 -80 -72 -113 -149 -113h-105l-10 -73h122c92 0 161 -39 161 -131c0 -87 -61 -141 -170 -141c-73 0 -143 26 -187 73l-56 -47c57 -65 146 -98 245 -98c160 0 260 92 260 216 c0 106 -80 162 -165 170c77 11 142 60 142 145c0 106 -91 180 -237 180z" glyph-name="uni0417" unicode="З"/><glyph d="M84 688v-688h112l243 593h4c-5 -48 -12 -138 -12 -242v-351h85v688h-110l-245 -595h-4c6 58 12 124 12 246v349h-85z" glyph-name="uni0418" unicode="И"/><glyph d="M298 773c77 0 142 39 150 112l-57 13c-15 -44 -46 -60 -93 -60s-75 16 -90 60l-57 -13c8 -73 71 -112 147 -112zM84 688v-688h112l243 593h4c-5 -48 -12 -138 -12 -242v-351h85v688h-110l-245 -595h-4c6 58 12 124 12 246v349h-85z" glyph-name="uni0419" unicode="Й"/><glyph d="M181 326h80l221 -326h104l-251 364l232 324h-93l-212 -290h-81v290h-86v-688h86v326z" glyph-name="uni041A" unicode="К"/><glyph d="M516 0v688h-346l-40 -304c-35 -265 -70 -294 -115 -331l38 -64c89 62 128 102 167 420l24 206h187v-615h85z" glyph-name="uni041B" unicode="Л"/><glyph d="M569 0l-39 688h-121l-107 -471l-112 471h-120l-39 -688h80l19 361c4 86 4 212 4 229h4l118 -466h87l114 466h2c0 -14 1 -134 6 -229l22 -361h82z" glyph-name="uni041C" unicode="М"/><glyph d="M431 328v-328h85v688h-85v-291h-262v291h-85v-688h85v328h262z" glyph-name="uni041D" unicode="Н"/><glyph d="M553 344c0 212 -86 356 -253 356s-253 -149 -253 -358c0 -212 86 -353 253 -353s253 146 253 355zM464 344c0 -184 -48 -283 -164 -283c-113 0 -164 98 -164 281c0 184 47 285 164 285s164 -100 164 -283z" glyph-name="uni041E" unicode="О"/><glyph d="M431 614v-614h85v688h-432v-688h85v614h262z" glyph-name="uni041F" unicode="П"/><glyph d="M557 477c0 144 -102 211 -266 211h-174v-688h85v256h89c155 0 266 60 266 221zM465 476c0 -118 -70 -151 -166 -151h-97v295h100c94 0 163 -37 163 -144z" glyph-name="uni0420" unicode="Р"/><glyph d="M358 700c-159 0 -294 -123 -294 -355s130 -356 298 -356c98 0 164 34 205 74l-44 57c-37 -30 -83 -58 -160 -58c-118 0 -210 77 -210 283c0 211 98 283 211 283c53 0 101 -15 145 -51l48 56c-54 43 -109 67 -199 67z" glyph-name="uni0421" unicode="С"/><glyph d="M341 0v615h209l9 73h-519v-73h216v-615h85z" glyph-name="uni0422" unicode="Т"/><glyph d="M368 179l212 509h-87l-180 -443l-197 443h-89l227 -498h37c-27 -77 -59 -115 -182 -133l13 -68c145 18 199 77 246 190z" glyph-name="uni0423" unicode="У"/><glyph d="M342 659v59h-84v-59c-167 -12 -245 -115 -245 -312c0 -206 87 -309 245 -316v-60h84v60c157 8 245 111 245 316c0 197 -78 300 -245 312zM341 95v500c108 -3 159 -69 159 -248c0 -170 -47 -243 -159 -252zM259 595v-500c-112 9 -159 82 -159 252c0 179 51 245 159 248z" glyph-name="uni0424" unicode="Ф"/><glyph d="M148 688h-98l198 -321l-217 -367h92l175 312l172 -312h99l-220 372l196 316h-93l-152 -265z" glyph-name="uni0425" unicode="Х"/><glyph d="M578 72h-62v616h-85v-617h-262v617h-85v-688h411l15 -147h68v219z" glyph-name="uni0426" unicode="Ц"/><glyph d="M516 688h-85v-332c-35 -34 -86 -61 -159 -61c-86 0 -135 42 -135 135v258h-86v-265c0 -123 80 -203 200 -203c73 0 120 19 180 62v-282h85v688z" glyph-name="uni0427" unicode="Ч"/><glyph d="M554 0v688h-81v-616h-134v616h-78v-616h-134v616h-81v-688h508z" glyph-name="uni0428" unicode="Ш"/><glyph d="M616 72h-62v616h-81v-616h-134v616h-78v-616h-134v616h-81v-688h487l15 -147h68v219z" glyph-name="uni0429" unicode="Щ"/><glyph d="M209 433v255h-209v-75h122v-613h194c155 0 265 61 265 221c0 149 -101 212 -266 212h-106zM209 364h121c92 0 162 -37 162 -144c0 -121 -69 -150 -161 -150h-122v294z" glyph-name="uni042A" unicode="Ъ"/><glyph d="M569 0v688h-88v-688h88zM119 432v256h-88v-688h153c157 0 246 72 246 221c0 136 -80 211 -248 211h-63zM119 367h73c97 0 147 -50 147 -147c0 -110 -52 -151 -146 -151h-74v298z" glyph-name="uni042B" unicode="Ы"/><glyph d="M180 433v255h-85v-688h191c154 0 265 61 265 221c0 149 -101 212 -266 212h-105zM180 365h117c93 0 162 -38 162 -145c0 -122 -70 -150 -163 -150h-116v295z" glyph-name="uni042C" unicode="Ь"/><glyph d="M269 700c-97 0 -167 -40 -219 -85l48 -50c42 33 90 65 167 65c110 0 175 -65 185 -240h-304v-72h304c-9 -177 -73 -258 -194 -258c-64 0 -114 23 -162 66l-52 -49c52 -53 129 -88 219 -88c170 0 277 124 277 364c0 233 -104 347 -269 347z" glyph-name="uni042D" unicode="Э"/><glyph d="M388 700c-131 0 -182 -109 -190 -308h-68v296h-83v-688h83v321h67c3 -199 48 -332 191 -332c136 0 191 126 191 355c0 234 -47 356 -191 356zM388 629c70 0 103 -72 103 -285c0 -214 -33 -285 -103 -285c-74 0 -102 72 -102 286c0 213 28 284 102 284z" glyph-name="uni042E" unicode="Ю"/><glyph d="M325 620h106v-273h-125c-90 0 -139 44 -139 138s52 135 158 135zM516 0v688h-180c-170 0 -260 -75 -260 -204c0 -83 40 -151 120 -187l-162 -297h96l146 277h155v-277h85z" glyph-name="uni042F" unicode="Я"/><glyph d="M477 114v254c0 104 -66 170 -197 170c-51 0 -107 -10 -171 -34l22 -62c54 19 102 26 137 26c78 0 125 -28 125 -104v-44h-77c-160 0 -247 -61 -247 -169c0 -98 64 -162 170 -162c68 0 127 25 165 74c15 -47 51 -69 96 -75l20 59c-29 9 -43 25 -43 67zM260 52 c-69 0 -102 34 -102 100c0 68 42 111 159 111h76v-136c-31 -48 -81 -75 -133 -75z" glyph-name="uni0430" unicode="а"/><glyph d="M332 492c-75 0 -133 -39 -168 -98c14 147 60 184 145 215c78 29 125 54 160 76l-37 65c-48 -34 -86 -50 -164 -77c-153 -53 -192 -165 -192 -384c0 -210 98 -300 223 -300c132 0 224 93 224 263c0 149 -76 240 -191 240zM299 57c-81 0 -132 71 -132 198v65 c38 75 96 103 152 103c67 0 113 -46 113 -174c0 -154 -60 -192 -133 -192z" glyph-name="uni0431" unicode="б"/><glyph d="M398 285c82 21 106 61 106 115c0 89 -83 138 -214 138c-63 0 -124 -8 -178 -19v-519h195c118 0 225 46 225 155c0 80 -44 122 -134 130zM291 471c86 0 127 -21 127 -78c0 -63 -45 -81 -114 -81h-109v153c32 4 56 6 96 6zM291 68h-96v178h115c63 0 133 -14 133 -91 c0 -83 -82 -87 -152 -87z" glyph-name="uni0432" unicode="в"/><glyph d="M158 0h83v457h273l10 69h-366v-526z" glyph-name="uni0433" unicode="г"/><glyph d="M411 459v-391h-278c61 44 79 100 93 294l6 97h179zM534 68h-38v458h-339l-12 -170c-14 -190 -36 -247 -83 -288h-35v-215h69l14 147h341l14 -147h69v215z" glyph-name="uni0434" unicode="д"/><glyph d="M166 234h354c1 11 2 27 2 45c0 160 -81 259 -217 259s-226 -116 -226 -275c0 -164 87 -274 241 -274c65 0 131 23 180 61l-39 57c-46 -37 -93 -49 -141 -49c-81 0 -150 53 -154 176zM306 469c83 0 134 -58 136 -171h-276c7 116 65 171 140 171z" glyph-name="uni0435" unicode="е"/><glyph d="M263 247v-247h74v247h54l104 -247h85l-122 283l112 243h-82l-95 -214h-56v214h-74v-214h-56l-93 214h-84l112 -243l-122 -283h82l104 247h57z" glyph-name="uni0436" unicode="ж"/><glyph d="M287 309h-95l-6 -68h106c88 0 135 -27 135 -86s-50 -98 -142 -98c-84 0 -142 23 -189 60l-42 -55c50 -40 120 -73 228 -73c133 0 235 58 235 163c0 84 -64 117 -136 129c61 18 106 59 106 115c0 100 -93 142 -209 142c-77 0 -154 -25 -204 -64l41 -52 c44 32 104 49 161 49c80 0 125 -26 125 -82c0 -48 -44 -80 -114 -80z" glyph-name="uni0437" unicode="з"/><glyph d="M499 0v526h-102l-220 -431h-4c2 20 8 102 8 184v247h-80v-526h100l223 435h4c-3 -19 -9 -94 -9 -188v-247h80z" glyph-name="uni0438" unicode="и"/><glyph d="M298 647c77 0 142 39 150 112l-57 13c-15 -44 -46 -60 -93 -60s-75 16 -90 60l-57 -13c8 -73 71 -112 147 -112zM499 0v526h-102l-220 -431h-4c2 20 8 102 8 184v247h-80v-526h100l223 435h4c-3 -19 -9 -94 -9 -188v-247h80z" glyph-name="uni0439" unicode="й"/><glyph d="M106 526v-526h83v246h104l175 -246h101l-205 283l177 243h-94l-152 -213h-106v213h-83z" glyph-name="uni043A" unicode="к"/><glyph d="M510 0v526h-357l-16 -213c-16 -212 -46 -240 -95 -271l36 -53c92 52 120 94 139 328l11 140h199v-457h83z" glyph-name="uni043B" unicode="л"/><glyph d="M557 0l-38 526h-111l-105 -360l-113 360h-110l-37 -526h79l15 260c3 56 5 126 2 184h4l117 -355h83l105 355h4c-1 -71 1 -129 5 -186l21 -258h79z" glyph-name="uni043C" unicode="м"/><glyph d="M416 235v-235h83v526h-83v-223h-232v223h-83v-526h83v235h232z" glyph-name="uni043D" unicode="н"/><glyph d="M301 538c-148 0 -227 -113 -227 -275c0 -166 78 -274 226 -274c147 0 226 114 226 275c0 166 -77 274 -225 274zM301 470c90 0 136 -66 136 -206c0 -141 -46 -207 -137 -207s-137 66 -137 206c0 141 47 207 138 207z" glyph-name="uni043E" unicode="о"/><glyph d="M416 458v-458h83v526h-398v-526h83v458h232z" glyph-name="uni043F" unicode="п"/><glyph d="M316 471c83 0 121 -69 121 -207c0 -141 -44 -206 -132 -206c-50 0 -94 25 -121 66v262c28 42 73 85 132 85zM336 538c-64 0 -119 -31 -158 -85l-7 73h-70v-738l83 10v251c35 -40 82 -60 139 -60c137 0 203 115 203 275c0 165 -50 274 -190 274z" glyph-name="uni0440" unicode="р"/><glyph d="M338 60c-90 0 -156 60 -156 201c0 139 65 207 156 207c47 0 91 -16 135 -49l42 57c-50 41 -108 62 -176 62c-157 0 -247 -119 -247 -277c0 -165 89 -272 246 -272c62 0 132 24 178 63l-40 58c-39 -31 -84 -50 -138 -50z" glyph-name="uni0441" unicode="с"/><glyph d="M530 457l10 69h-474v-69h193v-457h82v457h189z" glyph-name="uni0442" unicode="т"/><glyph d="M353 -3l185 529h-86l-149 -463l-152 463h-89l184 -526h28c-28 -82 -59 -126 -168 -145l13 -67c139 15 197 102 234 209z" glyph-name="uni0443" unicode="у"/><glyph d="M417 472c49 0 69 -59 69 -208s-27 -209 -76 -209c-29 0 -48 18 -72 51v317c26 33 47 49 79 49zM187 472c32 0 49 -16 75 -47v-319c-27 -33 -45 -51 -75 -51c-48 0 -72 59 -72 209c0 149 24 208 72 208zM338 738l-76 11v-263c-28 37 -59 52 -93 52 c-105 0 -140 -109 -140 -274s49 -275 142 -275c30 0 65 18 91 56v-257l76 11v246c26 -38 58 -56 89 -56c93 0 144 110 144 275s-31 274 -135 274c-36 0 -69 -17 -98 -54v254z" glyph-name="uni0444" unicode="ф"/><glyph d="M56 0h95l146 226l145 -226h102l-194 282l170 244h-95l-124 -196l-123 196h-98l171 -248z" glyph-name="uni0445" unicode="х"/><glyph d="M575 68h-82v458h-83v-457h-232v457h-83v-526h396l15 -147h69v215z" glyph-name="uni0446" unicode="ц"/><glyph d="M488 0v526h-82v-236c-33 -37 -95 -60 -146 -60c-62 0 -92 28 -92 98v198h-82v-207c0 -98 52 -155 154 -155c65 0 126 23 166 59v-223h82z" glyph-name="uni0447" unicode="ч"/><glyph d="M551 0v526h-78v-457h-134v457h-78v-457h-134v457h-78v-526h502z" glyph-name="uni0448" unicode="ш"/><glyph d="M623 68h-72v458h-78v-457h-134v457h-78v-457h-134v457h-78v-526h490l15 -147h69v215z" glyph-name="uni0449" unicode="щ"/><glyph d="M242 361v165h-209v-64h126v-462h145c139 0 241 47 241 184c0 127 -93 177 -240 177h-63zM242 295h73c88 0 141 -29 141 -112c0 -95 -62 -116 -142 -116h-72v228z" glyph-name="uni044A" unicode="ъ"/><glyph d="M538 0v526h-81v-526h81zM142 355v171h-80v-526h116c135 0 224 54 224 182c0 122 -85 173 -224 173h-36zM142 293h39c92 0 134 -30 134 -111c0 -92 -50 -117 -134 -117h-39v228z" glyph-name="uni044B" unicode="ы"/><glyph d="M210 361v165h-83v-526h205c102 0 201 56 201 181c0 108 -55 180 -220 180h-103zM210 295h102c102 0 132 -39 132 -114c0 -87 -50 -114 -121 -114h-113v228z" glyph-name="uni044C" unicode="ь"/><glyph d="M278 538c-65 0 -133 -21 -181 -61l39 -54c44 33 91 47 142 47c86 0 141 -53 151 -167h-248v-66h249c-8 -125 -68 -179 -157 -179c-52 0 -97 16 -141 48l-40 -54c48 -41 116 -63 181 -63c159 0 243 112 243 277s-77 272 -238 272z" glyph-name="uni044D" unicode="э"/><glyph d="M384 538c-115 0 -171 -90 -179 -234h-67v222h-82v-526h82v234h67c6 -140 59 -245 179 -245c128 0 184 111 184 275c0 171 -59 274 -184 274zM384 469c72 0 95 -67 95 -205c0 -129 -18 -207 -95 -207c-74 0 -93 78 -93 206c0 139 21 206 93 206z" glyph-name="uni044E" unicode="ю"/><glyph d="M308 471c38 0 61 -2 94 -6v-194h-103c-81 0 -121 32 -121 99c0 65 28 101 130 101zM310 538c-154 0 -220 -65 -220 -168c0 -66 28 -117 91 -147l-126 -223h94l113 204h140v-204h83v519c-50 11 -106 19 -175 19z" glyph-name="uni044F" unicode="я"/><glyph d="M195 715l202 -91l27 46l-185 117zM166 234h354c1 11 2 27 2 45c0 160 -81 259 -217 259s-226 -116 -226 -275c0 -164 87 -274 241 -274c65 0 131 23 180 61l-39 57c-46 -37 -93 -49 -141 -49c-81 0 -150 53 -154 176zM306 469c83 0 134 -58 136 -171h-276 c7 116 65 171 140 171z" glyph-name="uni0450" unicode="ѐ"/><glyph d="M412 648c32 0 55 23 55 53c0 31 -23 54 -55 54c-30 0 -53 -23 -53 -54c0 -30 23 -53 53 -53zM206 648c30 0 54 23 54 53c0 31 -24 54 -54 54c-31 0 -54 -23 -54 -54c0 -30 23 -53 54 -53zM166 234h354c1 11 2 27 2 45c0 160 -81 259 -217 259s-226 -116 -226 -275 c0 -164 87 -274 241 -274c65 0 131 23 180 61l-39 57c-46 -37 -93 -49 -141 -49c-81 0 -150 53 -154 176zM306 469c83 0 134 -58 136 -171h-276c7 116 65 171 140 171z" glyph-name="uni0451" unicode="ё"/><glyph d="M184 664v83l-83 -10v-73h-82v-66h82v-598h83v384c27 41 81 88 142 88c63 0 91 -29 91 -94v-354c0 -116 -32 -142 -102 -174l31 -61c102 46 154 90 154 236v357c0 98 -45 156 -148 156c-62 0 -127 -30 -168 -80v140h169v66h-169z" glyph-name="uni0452" unicode="ђ"/><glyph d="M410 785l-185 -115l28 -46l201 90zM158 0h83v457h273l10 69h-366v-526z" glyph-name="uni0453" unicode="ѓ"/><glyph d="M339 538c-157 0 -247 -119 -247 -277c0 -165 90 -272 247 -272c59 0 128 19 177 59l-41 56c-43 -33 -89 -46 -137 -46c-86 0 -152 53 -160 179h242v66h-241c13 112 78 167 159 167c47 0 91 -13 136 -45l42 55c-50 39 -110 58 -177 58z" glyph-name="uni0454" unicode="є"/><glyph d="M280 57c-62 0 -118 23 -159 57l-47 -54c45 -39 110 -71 205 -71c113 0 222 44 222 156c0 99 -68 135 -171 163c-107 29 -140 45 -140 93c0 40 31 69 115 69c68 0 113 -20 152 -47l37 56c-44 33 -106 59 -191 59c-118 0 -199 -56 -199 -144c0 -92 70 -124 180 -151 c111 -28 127 -54 127 -102c0 -51 -50 -84 -131 -84z" glyph-name="uni0455" unicode="ѕ"/><glyph d="M300 773c-35 0 -60 -26 -60 -59c0 -34 25 -59 60 -59c37 0 61 25 61 59c0 33 -24 59 -61 59zM367 66v460h-241v-65h158v-395h-163v-66h394v66h-148z" glyph-name="uni0456" unicode="і"/><glyph d="M403 648c32 0 55 23 55 53c0 31 -23 54 -55 54c-30 0 -53 -23 -53 -54c0 -30 23 -53 53 -53zM197 648c30 0 54 23 54 53c0 31 -24 54 -54 54c-31 0 -54 -23 -54 -54c0 -30 23 -53 54 -53zM367 66v460h-241v-65h158v-395h-163v-66h394v66h-148z" glyph-name="uni0457" unicode="ї"/><glyph d="M367 773c-36 0 -60 -26 -60 -59c0 -34 24 -59 60 -59s61 25 61 59c0 33 -25 59 -61 59zM445 83v443h-303v-65h220v-383c0 -141 -110 -200 -266 -226l14 -64c211 36 335 120 335 295z" glyph-name="uni0458" unicode="ј"/><glyph d="M363 356v170h-265l-11 -211c-11 -205 -46 -239 -84 -270l31 -56c88 53 125 103 135 332l7 139h106v-460h95c131 0 215 59 215 183c0 121 -81 173 -216 173h-13zM363 294h18c87 0 124 -31 124 -111c0 -92 -44 -118 -122 -118h-20v229z" glyph-name="uni0459" unicode="љ"/><glyph d="M366 328v198h-80v-198h-131v198h-82v-526h82v267h131v-267h96c127 0 213 44 213 165c0 119 -83 163 -216 163h-13zM366 266h17c85 0 124 -23 124 -101c0 -89 -47 -100 -122 -100h-19v201z" glyph-name="uni045A" unicode="њ"/><glyph d="M352 538c-62 0 -127 -29 -168 -84v144h169v66h-169v83l-83 -10v-73h-82v-66h82v-598h83v384c27 41 81 88 142 88c62 0 91 -28 91 -91v-381h83v382c0 98 -45 156 -148 156z" glyph-name="uni045B" unicode="ћ"/><glyph d="M390 785l-185 -115l28 -46l201 90zM106 526v-526h83v246h104l175 -246h101l-205 283l177 243h-94l-152 -213h-106v213h-83z" glyph-name="uni045C" unicode="ќ"/><glyph d="M185 715l202 -91l27 46l-185 117zM499 0v526h-102l-220 -431h-4c2 20 8 102 8 184v247h-80v-526h100l223 435h4c-3 -19 -9 -94 -9 -188v-247h80z" glyph-name="uni045D" unicode="ѝ"/><glyph d="M298 647c77 0 142 39 150 112l-57 13c-15 -44 -46 -60 -93 -60s-75 16 -90 60l-57 -13c8 -73 71 -112 147 -112zM353 -3l185 529h-86l-149 -463l-152 463h-89l184 -526h28c-28 -82 -59 -126 -168 -145l13 -67c139 15 197 102 234 209z" glyph-name="uni045E" unicode="ў"/><glyph d="M499 0v526h-83v-457h-232v457h-83v-526h157l15 -147h69v147h157z" glyph-name="uni045F" unicode="џ"/><glyph d="M248 420v197h160l9 71h-417v-71h162v-617h157c154 0 266 57 266 214c0 145 -103 206 -270 206h-67zM248 68v285h79c100 0 168 -38 168 -140c0 -116 -71 -145 -168 -145h-79z" glyph-name="uni0462" unicode="Ѣ"/><glyph d="M229 536v119l-83 -11v-108h-87v-67h87v-469h152c139 0 241 45 241 180c0 126 -93 175 -240 175h-70v114h122l11 67h-133zM229 290h80c88 0 141 -30 141 -110c0 -93 -61 -113 -142 -113h-79v223z" glyph-name="uni0463" unicode="ѣ"/><glyph d="M553 344c0 212 -86 356 -253 356s-253 -149 -253 -358c0 -212 86 -353 253 -353s253 146 253 355zM300 627c106 0 154 -84 161 -243h-323c8 159 56 243 162 243zM300 61c-109 0 -159 90 -163 257h325c-4 -167 -51 -257 -162 -257z" glyph-name="uni0472" unicode="Ѳ"/><glyph d="M301 538c-148 0 -227 -113 -227 -275c0 -166 78 -274 226 -274c147 0 226 114 226 275c0 166 -77 274 -225 274zM301 469c83 0 128 -57 134 -167h-270c6 111 52 167 136 167zM165 234h270c-8 -122 -53 -177 -135 -177c-83 0 -127 55 -135 177z" glyph-name="uni0473" unicode="ѳ"/><glyph d="M584 685l-85 16c-24 -38 -36 -64 -58 -140l-139 -468l-185 595h-92l231 -688h90l172 539c23 74 38 107 66 146z" glyph-name="uni0474" unicode="Ѵ"/><glyph d="M548 521l-81 11c-24 -26 -36 -63 -55 -120l-110 -340l-153 454h-88l190 -526h96l137 385c21 58 36 93 64 136z" glyph-name="uni0475" unicode="ѵ"/><glyph d="M544 834h-84v-146h-323v-688h85v613h313l9 75v146z" glyph-name="uni0490" unicode="Ґ"/><glyph d="M524 659h-85v-133h-281v-526h83v457h273l10 69v133z" glyph-name="uni0491" unicode="ґ"/><glyph d="M253 613h313l9 75h-408v-255h-101v-66h101v-367h86v367h158v66h-158v180z" glyph-name="uni0492" unicode="Ғ"/><glyph d="M272 457h273l10 69h-366v-224h-94v-66h94v-236h83v236h125v66h-125v155z" glyph-name="uni0493" unicode="ғ"/><glyph d="M588 0l-123 364l108 324h-81l-92 -291h-61v291h-78v-291h-61l-91 291h-82l108 -324l-123 -364h83l104 327h62v-327h78v327h61l103 -327h85z" glyph-name="uni0496" unicode="Җ"/><glyph d="M610 68h-63l-89 215l108 243h-82l-91 -214h-56v214h-74v-214h-56l-88 214h-85l108 -243l-118 -283h82l100 247h57v-247h74v247h54l100 -247h35l15 -147h69v215z" glyph-name="uni0497" unicode="җ"/><glyph d="M540 205c0 106 -80 162 -165 170c77 11 142 60 142 145c0 106 -91 180 -237 180c-90 0 -167 -29 -231 -86l49 -53c48 43 105 69 182 69c84 0 149 -37 149 -111c0 -80 -72 -113 -149 -113h-105l-10 -73h122c92 0 161 -39 161 -131c0 -87 -61 -141 -170 -141 c-73 0 -143 26 -187 73l-56 -47c52 -59 131 -92 220 -97l-7 -87c53 0 87 -7 87 -43c0 -30 -25 -42 -60 -42c-22 0 -49 6 -68 16l-27 -48c26 -15 65 -24 105 -24c64 0 121 32 121 98c0 39 -27 77 -92 83v47c140 13 226 100 226 215z" glyph-name="uni0498" unicode="Ҙ"/><glyph d="M517 152c0 84 -64 117 -136 129c61 18 106 59 106 115c0 100 -93 142 -209 142c-77 0 -154 -25 -204 -64l41 -52c44 32 104 49 161 49c80 0 125 -26 125 -82c0 -48 -44 -80 -114 -80h-95l-6 -68h106c88 0 135 -27 135 -86s-50 -98 -142 -98c-84 0 -142 23 -189 60 l-42 -55c47 -37 111 -69 208 -73l-7 -86c53 0 87 -7 87 -43c0 -30 -25 -42 -60 -42c-22 0 -49 6 -68 16l-27 -48c26 -15 65 -24 105 -24c64 0 121 32 121 98c0 39 -27 77 -92 83v48c113 10 196 67 196 161z" glyph-name="uni0499" unicode="ҙ"/><glyph d="M587 72h-51l-201 292l232 324h-93l-212 -290h-81v290h-86v-688h86v326h80l221 -326h22l15 -147h68v219z" glyph-name="uni049A" unicode="Қ"/><glyph d="M587 68h-67l-156 215l177 243h-94l-152 -213h-106v213h-83v-526h83v246h104l175 -246h35l15 -147h69v215z" glyph-name="uni049B" unicode="қ"/><glyph d="M228 326v-176h54v176h26l183 -326h96l-211 364l192 324h-90l-170 -290h-26v172h-54v-172h-49v290h-84v-688h84v326h49z" glyph-name="uni049C" unicode="Ҝ"/><glyph d="M106 526v-526h84v244h45v-124h47v124h28l168 -244h91l-192 284l164 242h-87l-144 -211h-28v115h-47v-115h-45v211h-84z" glyph-name="uni049D" unicode="ҝ"/><glyph d="M220 326h69l206 -326h104l-235 364l216 324h-93l-196 -289h-71v289h-209v-75h122v-613h87v326z" glyph-name="uni04A0" unicode="Ҡ"/><glyph d="M588 0l-207 283l179 243h-94l-154 -213h-96v213h-208v-64h125v-462h83v246h95l176 -246h101z" glyph-name="uni04A1" unicode="ҡ"/><glyph d="M580 72h-64v616h-85v-291h-262v291h-85v-688h85v328h262v-328h66l15 -147h68v219z" glyph-name="uni04A2" unicode="Ң"/><glyph d="M566 68h-81v458h-83v-223h-233v223h-83v-526h83v235h233v-235h81l14 -147h69v215z" glyph-name="uni04A3" unicode="ң"/><glyph d="M394 -10c80 7 137 37 173 73l-44 57c-37 -30 -83 -58 -160 -58c-118 0 -210 77 -210 283c0 211 98 283 211 283c53 0 101 -15 145 -51l48 56c-54 43 -109 67 -199 67c-159 0 -294 -123 -294 -355c0 -212 108 -333 255 -353c51 -33 77 -75 77 -117c0 -34 -20 -57 -58 -57 c-34 0 -53 11 -70 19l-21 -51c20 -12 51 -25 97 -25c76 0 124 45 124 111c0 48 -28 88 -74 118z" glyph-name="uni04AA" unicode="Ҫ"/><glyph d="M379 -8c50 8 101 30 137 60l-40 58c-39 -31 -84 -50 -138 -50c-90 0 -156 60 -156 201c0 139 65 207 156 207c47 0 91 -16 135 -49l42 57c-50 41 -108 62 -176 62c-157 0 -247 -119 -247 -277c0 -155 79 -259 218 -271c50 -32 75 -73 75 -115c0 -34 -20 -57 -58 -57 c-34 0 -53 11 -70 19l-21 -51c20 -12 51 -25 97 -25c76 0 124 45 124 111c0 49 -30 90 -78 120z" glyph-name="uni04AB" unicode="ҫ"/><glyph d="M341 615h209l9 73h-519v-73h216v-615h64l15 -147h68v219h-62v543z" glyph-name="uni04AC" unicode="Ҭ"/><glyph d="M341 457h189l10 69h-474v-69h193v-457h80l15 -147h69v215h-82v389z" glyph-name="uni04AD" unicode="ҭ"/><glyph d="M343 0v266l233 422h-89l-185 -345l-183 345h-95l233 -423v-265h86z" glyph-name="uni04AE" unicode="Ү"/><glyph d="M259 16v-228l82 10v218l201 510h-86l-154 -430l-156 430h-88z" glyph-name="uni04AF" unicode="ү"/><glyph d="M372 319l204 369h-89l-185 -345l-183 345h-95l203 -369h-99v-67h129v-252h86v252h129v67h-100z" glyph-name="uni04B0" unicode="Ұ"/><glyph d="M363 72l179 454h-86l-154 -430l-156 430h-88l179 -454h-83v-67h105v-217l82 10v207h105v67h-83z" glyph-name="uni04B1" unicode="ұ"/><glyph d="M575 72h-49l-177 300l196 316h-93l-152 -265l-152 265h-98l198 -321l-217 -367h92l175 312l172 -312h22l15 -147h68v219z" glyph-name="uni04B2" unicode="Ҳ"/><glyph d="M561 68h-64l-147 214l170 244h-95l-124 -196l-123 196h-98l171 -248l-195 -278h95l146 226l145 -226h35l15 -147h69v215z" glyph-name="uni04B3" unicode="ҳ"/><glyph d="M578 72h-62v616h-85v-332c-35 -34 -86 -61 -159 -61c-86 0 -135 42 -135 135v258h-86v-265c0 -123 80 -203 200 -203c73 0 120 19 180 62v-282h64l15 -147h68v219z" glyph-name="uni04B6" unicode="Ҷ"/><glyph d="M560 68h-82v458h-82v-236c-33 -37 -95 -60 -146 -60c-62 0 -92 28 -92 98v198h-82v-207c0 -98 52 -155 154 -155c65 0 126 23 166 59v-223h81l14 -147h69v215z" glyph-name="uni04B7" unicode="ҷ"/><glyph d="M516 688h-85v-332c-27 -26 -64 -49 -113 -57v239h-58v-243c-79 4 -123 46 -123 135v258h-86v-265c0 -123 80 -203 200 -203h9v-101h58v108c40 9 73 26 113 55v-282h85v688z" glyph-name="uni04B8" unicode="Ҹ"/><glyph d="M488 526h-82v-236c-24 -27 -62 -46 -101 -55v154h-54v-159c-56 3 -83 31 -83 98v198h-82v-207c0 -98 52 -155 154 -155h11v-73h54v81c40 9 75 27 101 51v-223h82v526z" glyph-name="uni04B9" unicode="ҹ"/><glyph d="M345 449c-82 0 -136 -27 -176 -71v310h-85v-688h85v294c40 51 85 80 157 80c94 0 136 -50 136 -139v-235h86v236c0 133 -75 213 -203 213z" glyph-name="uni04BA" unicode="Һ"/><glyph d="M350 477c-74 0 -128 -34 -165 -84v354l-83 -10v-737h83v318l1 -3c36 58 77 96 141 96c55 0 90 -24 90 -108v-303h83v315c0 100 -57 162 -150 162z" glyph-name="uni04BB" unicode="һ"/><glyph d="M497 620v68h-394v-68h154v-551h-154v-69h394v69h-154v551h154z" glyph-name="uni04C0" unicode="Ӏ"/><glyph d="M298 773c77 0 142 39 150 112l-57 13c-15 -44 -46 -60 -93 -60s-75 16 -90 60l-57 -13c8 -73 71 -112 147 -112zM199 327h62v-327h78v327h61l103 -327h85l-123 364l108 324h-81l-92 -291h-61v291h-78v-291h-61l-91 291h-82l108 -324l-123 -364h83z" glyph-name="uni04C1" unicode="Ӂ"/><glyph d="M298 647c77 0 142 39 150 112l-57 13c-15 -44 -46 -60 -93 -60s-75 16 -90 60l-57 -13c8 -73 71 -112 147 -112zM263 247v-247h74v247h54l104 -247h85l-122 283l112 243h-82l-95 -214h-56v214h-74v-214h-56l-93 214h-84l112 -243l-122 -283h82l104 247h57z" glyph-name="uni04C2" unicode="ӂ"/><glyph d="M516 688h-85v-332c-35 -34 -86 -61 -159 -61c-86 0 -135 42 -135 135v258h-86v-265c0 -123 80 -203 200 -203c73 0 120 19 180 62v-210h-71v-219h68l15 147h73v688z" glyph-name="uni04CB" unicode="Ӌ"/><glyph d="M488 526h-82v-236c-33 -37 -95 -60 -146 -60c-62 0 -92 28 -92 98v198h-82v-207c0 -98 52 -155 154 -155c65 0 126 23 166 59v-155h-86v-215h69l15 147h84v526z" glyph-name="uni04CC" unicode="ӌ"/><glyph d="M305 129v610h-245v-66h162v-539c0 -91 64 -145 156 -145c54 0 97 12 125 27l-22 60c-29 -11 -57 -18 -89 -18c-51 0 -87 19 -87 71z" glyph-name="uni04CF" unicode="ӏ"/><glyph d="M298 773c77 0 142 39 150 112l-57 13c-15 -44 -46 -60 -93 -60s-75 16 -90 60l-57 -13c8 -73 71 -112 147 -112zM412 247h-229l115 369zM161 176h273l55 -176h90l-224 688h-110l-224 -688h84z" glyph-name="uni04D0" unicode="Ӑ"/><glyph d="M290 647c77 0 142 39 150 112l-57 13c-15 -44 -46 -60 -93 -60s-75 16 -90 60l-57 -13c8 -73 71 -112 147 -112zM477 114v254c0 104 -66 170 -197 170c-51 0 -107 -10 -171 -34l22 -62c54 19 102 26 137 26c78 0 125 -28 125 -104v-44h-77c-160 0 -247 -61 -247 -169 c0 -98 64 -162 170 -162c68 0 127 25 165 74c15 -47 51 -69 96 -75l20 59c-29 9 -43 25 -43 67zM260 52c-69 0 -102 34 -102 100c0 68 42 111 159 111h76v-136c-31 -48 -81 -75 -133 -75z" glyph-name="uni04D1" unicode="ӑ"/><glyph d="M402 767c32 0 55 23 55 53c0 31 -23 54 -55 54c-30 0 -53 -23 -53 -54c0 -30 23 -53 53 -53zM196 767c30 0 54 23 54 53c0 31 -24 54 -54 54c-31 0 -54 -23 -54 -54c0 -30 23 -53 54 -53zM412 247h-229l115 369zM161 176h273l55 -176h90l-224 688h-110l-224 -688h84z" glyph-name="uni04D2" unicode="Ӓ"/><glyph d="M394 648c32 0 55 23 55 53c0 31 -23 54 -55 54c-30 0 -53 -23 -53 -54c0 -30 23 -53 53 -53zM188 648c30 0 54 23 54 53c0 31 -24 54 -54 54c-31 0 -54 -23 -54 -54c0 -30 23 -53 54 -53zM477 114v254c0 104 -66 170 -197 170c-51 0 -107 -10 -171 -34l22 -62 c54 19 102 26 137 26c78 0 125 -28 125 -104v-44h-77c-160 0 -247 -61 -247 -169c0 -98 64 -162 170 -162c68 0 127 25 165 74c15 -47 51 -69 96 -75l20 59c-29 9 -43 25 -43 67zM260 52c-69 0 -102 34 -102 100c0 68 42 111 159 111h76v-136c-31 -48 -81 -75 -133 -75z" glyph-name="uni04D3" unicode="ӓ"/><glyph d="M314 248h-166l92 373zM125 176h205l36 -176h242v70h-172l-52 244h173v70h-186l-52 234h237l10 70h-376l-202 -688h88z" glyph-name="uni04D4" unicode="Ӕ"/><glyph d="M435 538c-64 0 -108 -34 -126 -88c-21 53 -58 88 -138 88c-43 0 -91 -13 -135 -34l22 -63c44 19 69 27 105 27c58 0 91 -31 91 -104v-44h-46c-140 0 -214 -60 -214 -169c0 -98 59 -162 152 -162c67 0 107 27 153 89c33 -57 78 -89 148 -89c57 0 99 20 139 52l-38 57 c-34 -25 -61 -39 -100 -39c-70 0 -104 54 -113 174h270c1 12 2 28 2 46c0 161 -53 259 -172 259zM432 468c69 0 91 -59 93 -170h-190c9 126 37 170 97 170zM211 263h43c0 -42 4 -80 14 -113c-36 -64 -65 -97 -110 -97c-44 0 -74 35 -74 103c0 64 31 107 127 107z" glyph-name="uni04D5" unicode="ӕ"/><glyph d="M319 773c77 0 142 39 150 112l-57 13c-15 -44 -46 -60 -93 -60s-75 16 -90 60l-57 -13c8 -73 71 -112 147 -112zM212 385v233h294l10 70h-390v-688h399v69h-313v245h255v71h-255z" glyph-name="uni04D6" unicode="Ӗ"/><glyph d="M308 647c77 0 142 39 150 112l-57 13c-15 -44 -46 -60 -93 -60s-75 16 -90 60l-57 -13c8 -73 71 -112 147 -112zM166 234h354c1 11 2 27 2 45c0 160 -81 259 -217 259s-226 -116 -226 -275c0 -164 87 -274 241 -274c65 0 131 23 180 61l-39 57c-46 -37 -93 -49 -141 -49 c-81 0 -150 53 -154 176zM306 469c83 0 134 -58 136 -171h-276c7 116 65 171 140 171z" glyph-name="uni04D7" unicode="ӗ"/><glyph d="M45 331c0 -228 97 -342 252 -342c157 0 254 135 254 364c0 232 -91 347 -258 347c-88 0 -152 -32 -205 -77l48 -54c43 37 87 62 155 62c103 0 166 -69 172 -251h-415c-2 -18 -3 -37 -3 -49zM298 59c-107 0 -162 69 -170 250h335c-10 -173 -68 -250 -165 -250z" glyph-name="uni04D8" unicode="Ә"/><glyph d="M292 538c-74 0 -133 -24 -180 -62l39 -58c45 38 87 50 140 50c90 0 136 -52 144 -175h-359c-2 -14 -2 -29 -2 -46c0 -162 84 -258 219 -258c144 0 232 103 232 275c0 167 -69 274 -233 274zM293 56c-87 0 -138 59 -137 164v8h280c-6 -126 -54 -172 -143 -172z" glyph-name="uni04D9" unicode="ә"/><glyph d="M395 767c32 0 55 23 55 53c0 31 -23 54 -55 54c-30 0 -53 -23 -53 -54c0 -30 23 -53 53 -53zM189 767c30 0 54 23 54 53c0 31 -24 54 -54 54c-31 0 -54 -23 -54 -54c0 -30 23 -53 54 -53zM45 331c0 -228 97 -342 252 -342c157 0 254 135 254 364c0 232 -91 347 -258 347 c-88 0 -152 -32 -205 -77l48 -54c43 37 87 62 155 62c103 0 166 -69 172 -251h-415c-2 -18 -3 -37 -3 -49zM298 59c-107 0 -162 69 -170 250h335c-10 -173 -68 -250 -165 -250z" glyph-name="uni04DA" unicode="Ӛ"/><glyph d="M402 648c32 0 55 23 55 53c0 31 -23 54 -55 54c-30 0 -53 -23 -53 -54c0 -30 23 -53 53 -53zM196 648c30 0 54 23 54 53c0 31 -24 54 -54 54c-31 0 -54 -23 -54 -54c0 -30 23 -53 54 -53zM292 538c-74 0 -133 -24 -180 -62l39 -58c45 38 87 50 140 50 c90 0 136 -52 144 -175h-359c-2 -14 -2 -29 -2 -46c0 -162 84 -258 219 -258c144 0 232 103 232 275c0 167 -69 274 -233 274zM293 56c-87 0 -138 59 -137 164v8h280c-6 -126 -54 -172 -143 -172z" glyph-name="uni04DB" unicode="ӛ"/><glyph d="M402 767c32 0 55 23 55 53c0 31 -23 54 -55 54c-30 0 -53 -23 -53 -54c0 -30 23 -53 53 -53zM196 767c30 0 54 23 54 53c0 31 -24 54 -54 54c-31 0 -54 -23 -54 -54c0 -30 23 -53 54 -53zM199 327h62v-327h78v327h61l103 -327h85l-123 364l108 324h-81l-92 -291h-61v291 h-78v-291h-61l-91 291h-82l108 -324l-123 -364h83z" glyph-name="uni04DC" unicode="Ӝ"/><glyph d="M402 648c32 0 55 23 55 53c0 31 -23 54 -55 54c-30 0 -53 -23 -53 -54c0 -30 23 -53 53 -53zM196 648c30 0 54 23 54 53c0 31 -24 54 -54 54c-31 0 -54 -23 -54 -54c0 -30 23 -53 54 -53zM263 247v-247h74v247h54l104 -247h85l-122 283l112 243h-82l-95 -214h-56v214h-74 v-214h-56l-93 214h-84l112 -243l-122 -283h82l104 247h57z" glyph-name="uni04DD" unicode="ӝ"/><glyph d="M400 767c32 0 55 23 55 53c0 31 -23 54 -55 54c-30 0 -53 -23 -53 -54c0 -30 23 -53 53 -53zM194 767c30 0 54 23 54 53c0 31 -24 54 -54 54c-31 0 -54 -23 -54 -54c0 -30 23 -53 54 -53zM280 700c-90 0 -167 -29 -231 -86l49 -53c48 43 105 69 182 69 c84 0 149 -37 149 -111c0 -80 -72 -113 -149 -113h-105l-10 -73h122c92 0 161 -39 161 -131c0 -87 -61 -141 -170 -141c-73 0 -143 26 -187 73l-56 -47c57 -65 146 -98 245 -98c160 0 260 92 260 216c0 106 -80 162 -165 170c77 11 142 60 142 145c0 106 -91 180 -237 180z" glyph-name="uni04DE" unicode="Ӟ"/><glyph d="M396 649c32 0 55 23 55 53c0 31 -23 54 -55 54c-30 0 -53 -23 -53 -54c0 -30 23 -53 53 -53zM190 649c30 0 54 23 54 53c0 31 -24 54 -54 54c-31 0 -54 -23 -54 -54c0 -30 23 -53 54 -53zM287 309h-95l-6 -68h106c88 0 135 -27 135 -86s-50 -98 -142 -98 c-84 0 -142 23 -189 60l-42 -55c50 -40 120 -73 228 -73c133 0 235 58 235 163c0 84 -64 117 -136 129c61 18 106 59 106 115c0 100 -93 142 -209 142c-77 0 -154 -25 -204 -64l41 -52c44 32 104 49 161 49c80 0 125 -26 125 -82c0 -48 -44 -80 -114 -80z" glyph-name="uni04DF" unicode="ӟ"/><glyph d="M165 795h269v64h-269v-64zM84 688v-688h112l243 593h4c-5 -48 -12 -138 -12 -242v-351h85v688h-110l-245 -595h-4c6 58 12 124 12 246v349h-85z" glyph-name="uni04E2" unicode="Ӣ"/><glyph d="M165 676h269v64h-269v-64zM499 0v526h-102l-220 -431h-4c2 20 8 102 8 184v247h-80v-526h100l223 435h4c-3 -19 -9 -94 -9 -188v-247h80z" glyph-name="uni04E3" unicode="ӣ"/><glyph d="M402 767c32 0 55 23 55 53c0 31 -23 54 -55 54c-30 0 -53 -23 -53 -54c0 -30 23 -53 53 -53zM196 767c30 0 54 23 54 53c0 31 -24 54 -54 54c-31 0 -54 -23 -54 -54c0 -30 23 -53 54 -53zM84 688v-688h112l243 593h4c-5 -48 -12 -138 -12 -242v-351h85v688h-110 l-245 -595h-4c6 58 12 124 12 246v349h-85z" glyph-name="uni04E4" unicode="Ӥ"/><glyph d="M402 648c32 0 55 23 55 53c0 31 -23 54 -55 54c-30 0 -53 -23 -53 -54c0 -30 23 -53 53 -53zM196 648c30 0 54 23 54 53c0 31 -24 54 -54 54c-31 0 -54 -23 -54 -54c0 -30 23 -53 54 -53zM499 0v526h-102l-220 -431h-4c2 20 8 102 8 184v247h-80v-526h100l223 435h4 c-3 -19 -9 -94 -9 -188v-247h80z" glyph-name="uni04E5" unicode="ӥ"/><glyph d="M402 767c32 0 55 23 55 53c0 31 -23 54 -55 54c-30 0 -53 -23 -53 -54c0 -30 23 -53 53 -53zM196 767c30 0 54 23 54 53c0 31 -24 54 -54 54c-31 0 -54 -23 -54 -54c0 -30 23 -53 54 -53zM553 344c0 212 -86 356 -253 356s-253 -149 -253 -358c0 -212 86 -353 253 -353 s253 146 253 355zM464 344c0 -184 -48 -283 -164 -283c-113 0 -164 98 -164 281c0 184 47 285 164 285s164 -100 164 -283z" glyph-name="uni04E6" unicode="Ӧ"/><glyph d="M402 648c32 0 55 23 55 53c0 31 -23 54 -55 54c-30 0 -53 -23 -53 -54c0 -30 23 -53 53 -53zM196 648c30 0 54 23 54 53c0 31 -24 54 -54 54c-31 0 -54 -23 -54 -54c0 -30 23 -53 54 -53zM301 538c-148 0 -227 -113 -227 -275c0 -166 78 -274 226 -274 c147 0 226 114 226 275c0 166 -77 274 -225 274zM301 470c90 0 136 -66 136 -206c0 -141 -46 -207 -137 -207s-137 66 -137 206c0 141 47 207 138 207z" glyph-name="uni04E7" unicode="ӧ"/><glyph d="M553 344c0 212 -86 356 -253 356s-253 -149 -253 -358c0 -212 86 -353 253 -353s253 146 253 355zM300 627c106 0 154 -84 161 -243h-323c8 159 56 243 162 243zM300 61c-109 0 -159 90 -163 257h325c-4 -167 -51 -257 -162 -257z" glyph-name="uni04E8" unicode="Ө"/></font>
</defs>
</svg>
